<svg version="1.1" viewBox="0.0 0.0 600.0 371.0" fill="none" stroke="none" stroke-linecap="square" stroke-miterlimit="10" width="600" height="371" xmlns:xlink="http://www.w3.org/1999/xlink" xmlns="http://www.w3.org/2000/svg"><path fill="#ffffff" d="M0 0L600.0 0L600.0 371.0L0 371.0L0 0Z" fill-rule="nonzero"/><path fill="#ea4335" d="M196.02557 54.879852C225.57639 31.35724 262.23013 18.55 300.0 18.55L300.0 185.5Z" fill-rule="nonzero"/><path fill="#4285f4" d="M300.0 18.55C381.427 18.55 450.97592 77.2922 464.59744 157.57178C478.21896 237.85135 431.939 316.24692 355.06937 343.10605C278.1997 369.96518 193.1669 337.45178 153.82712 266.15848C114.48733 194.86517 132.31786 105.59159 196.02557 54.879852L300.0 185.5Z" fill-rule="nonzero"/><path fill="#000000" d="M39.721874 42.51875L43.128124 43.378124Q42.05 47.58125 39.26875 49.784374Q36.4875 51.9875 32.45625 51.9875Q28.284374 51.9875 25.675 50.3Q23.065624 48.596874 21.70625 45.378124Q20.346874 42.159374 20.346874 38.471874Q20.346874 34.440624 21.878124 31.45625Q23.425 28.45625 26.253124 26.909374Q29.096874 25.346874 32.503124 25.346874Q36.378124 25.346874 39.003124 27.315624Q41.64375 29.284374 42.690624 32.846874L39.33125 33.64375Q38.425 30.83125 36.721874 29.55Q35.01875 28.253124 32.440624 28.253124Q29.471874 28.253124 27.471874 29.690624Q25.471874 31.1125 24.659374 33.51875Q23.8625 35.909374 23.8625 38.45625Q23.8625 41.7375 24.815624 44.190624Q25.76875 46.64375 27.784374 47.8625Q29.815624 49.065624 32.175 49.065624Q35.034374 49.065624 37.01875 47.425Q39.01875 45.76875 39.721874 42.51875ZM47.33125 51.55L47.33125 25.784374L57.05 25.784374Q59.6125 25.784374 60.971874 26.01875Q62.8625 26.346874 64.14375 27.2375Q65.44063 28.1125 66.22188 29.721874Q67.00313 31.315624 67.00313 33.2375Q67.00313 36.51875 64.90938 38.8Q62.815624 41.065624 57.346874 41.065624L50.7375 41.065624L50.7375 51.55L47.33125 51.55ZM50.7375 38.034374L57.39375 38.034374Q60.70625 38.034374 62.096874 36.8Q63.4875 35.565624 63.4875 33.33125Q63.4875 31.721874 62.659374 30.58125Q61.846874 29.425 60.51875 29.05Q59.64375 28.815624 57.33125 28.815624L50.7375 28.815624L50.7375 38.034374ZM88.2375 25.784374L91.64375 25.784374L91.64375 40.675Q91.64375 44.55 90.76875 46.846874Q89.89375 49.128124 87.59688 50.565624Q85.3 51.9875 81.58125 51.9875Q77.95625 51.9875 75.64375 50.7375Q73.34688 49.4875 72.3625 47.128124Q71.37813 44.76875 71.37813 40.675L71.37813 25.784374L74.78438 25.784374L74.78438 40.64375Q74.78438 44.003124 75.40938 45.596874Q76.03438 47.190624 77.55 48.05Q79.08125 48.909374 81.28438 48.909374Q85.03438 48.909374 86.62813 47.20625Q88.2375 45.503124 88.2375 40.64375L88.2375 25.784374Z" fill-rule="nonzero"/><path fill="#9e9e9e" d="M31.95625 96.55L28.8 96.55L28.8 76.39375Q27.659374 77.47188 25.8 78.56563Q23.940624 79.65938 22.471874 80.20625L22.471874 77.14375Q25.128124 75.89375 27.1125 74.12813Q29.096874 72.34688 29.925 70.675L31.95625 70.675L31.95625 96.55ZM40.05 83.84688Q40.05 79.26875 40.9875 76.4875Q41.925 73.69063 43.76875 72.19063Q45.628124 70.675 48.440624 70.675Q50.51875 70.675 52.08125 71.51875Q53.64375 72.34688 54.659374 73.925Q55.690624 75.4875 56.26875 77.75313Q56.846874 80.00313 56.846874 83.84688Q56.846874 88.37813 55.909374 91.15938Q54.9875 93.94063 53.128124 95.47188Q51.284374 96.9875 48.440624 96.9875Q44.721874 96.9875 42.596874 94.31563Q40.05 91.09688 40.05 83.84688ZM43.3 83.84688Q43.3 90.19063 44.784374 92.3Q46.26875 94.39375 48.440624 94.39375Q50.628124 94.39375 52.1125 92.28438Q53.596874 90.175 53.596874 83.84688Q53.596874 77.47188 52.1125 75.39375Q50.628124 73.3 48.409374 73.3Q46.2375 73.3 44.925 75.14375Q43.3 77.4875 43.3 83.84688ZM61.815624 96.55L61.815624 92.94063L65.425 92.94063L65.425 96.55L61.815624 96.55ZM70.25313 74.15938L70.25313 71.1125L86.94063 71.1125L86.94063 73.58125Q84.47188 76.19063 82.05 80.53438Q79.64375 84.87813 78.33125 89.47188Q77.37813 92.70625 77.1125 96.55L73.8625 96.55Q73.90938 93.50313 75.05 89.20625Q76.19063 84.89375 78.33125 80.89375Q80.47188 76.89375 82.87813 74.15938L70.25313 74.15938ZM90.64375 76.97188Q90.64375 74.20625 92.03438 72.28438Q93.425 70.34688 96.05 70.34688Q98.4875 70.34688 100.06563 72.08125Q101.65938 73.8 101.65938 77.15938Q101.65938 80.425 100.05 82.19063Q98.44063 83.95625 96.09688 83.95625Q93.75313 83.95625 92.19063 82.22188Q90.64375 80.4875 90.64375 76.97188ZM96.14375 72.51875Q94.97188 72.51875 94.19063 73.55Q93.40938 74.56563 93.40938 77.28438Q93.40938 79.76875 94.19063 80.78438Q94.9875 81.78438 96.14375 81.78438Q97.34688 81.78438 98.12813 80.76875Q98.90938 79.7375 98.90938 77.03438Q98.90938 74.53438 98.1125 73.53438Q97.31563 72.51875 96.14375 72.51875ZM96.15938 97.50313L110.25313 70.34688L112.83125 70.34688L98.78438 97.50313L96.15938 97.50313ZM107.3 90.50313Q107.3 87.72188 108.69063 85.8Q110.08125 83.87813 112.7375 83.87813Q115.15938 83.87813 116.75313 85.6125Q118.34688 87.33125 118.34688 90.69063Q118.34688 93.97188 116.7375 95.7375Q115.12813 97.50313 112.75313 97.50313Q110.425 97.50313 108.8625 95.75313Q107.3 94.00313 107.3 90.50313ZM112.83125 86.05Q111.62813 86.05 110.84688 87.08125Q110.06563 88.09688 110.06563 90.81563Q110.06563 93.28438 110.84688 94.3Q111.64375 95.31563 112.81563 95.31563Q114.01875 95.31563 114.8 94.3Q115.58125 93.28438 115.58125 90.56563Q115.58125 88.08125 114.78438 87.06563Q114.00313 86.05 112.83125 86.05Z" fill-rule="nonzero"/><path stroke="#757575" stroke-width="1.0" stroke-linecap="butt" d="M18.55 62.05L127.05 62.05L247.68411 35.77425" fill-rule="nonzero"/><path fill="#9e9e9e" d="M249.68411 35.77425C249.68411 34.66968 248.78868 33.77425 247.68411 33.77425C246.57954 33.77425 245.68411 34.66968 245.68411 35.77425C245.68411 36.87882 246.57954 37.77425 247.68411 37.77425C248.78868 37.77425 249.68411 36.87882 249.68411 35.77425" fill-rule="nonzero"/><path fill="#000000" d="M547.8094 298.45L547.8094 272.6844L551.21564 272.6844L551.21564 298.45L547.8094 298.45ZM555.1844 285.90314Q555.1844 279.48126 558.6219 275.85626Q562.075 272.21564 567.52814 272.21564Q571.10626 272.21564 573.96564 273.9344Q576.825 275.6375 578.325 278.6844Q579.84064 281.73126 579.84064 285.60626Q579.84064 289.5125 578.2469 292.60626Q576.66876 295.7 573.7625 297.29376Q570.8719 298.8875 567.5125 298.8875Q563.8719 298.8875 560.9969 297.1375Q558.1375 295.3719 556.65314 292.34064Q555.1844 289.29376 555.1844 285.90314ZM558.7 285.95Q558.7 290.60626 561.2 293.29376Q563.71564 295.96564 567.4969 295.96564Q571.34064 295.96564 573.825 293.2625Q576.325 290.5594 576.325 285.575Q576.325 282.4344 575.2625 280.09064Q574.2 277.7469 572.1375 276.45Q570.09064 275.15314 567.54376 275.15314Q563.9344 275.15314 561.3094 277.65314Q558.7 280.1375 558.7 285.95Z" fill-rule="nonzero"/><path fill="#9e9e9e" d="M485.8094 329.48126Q483.84064 328.7469 482.8875 327.41876Q481.95 326.075 481.95 324.21564Q481.95 321.40314 483.96564 319.4969Q485.9969 317.575 489.34064 317.575Q492.71564 317.575 494.77814 319.54376Q496.84064 321.4969 496.84064 324.3094Q496.84064 326.10626 495.8875 327.4344Q494.95 328.7469 493.04376 329.48126Q495.41876 330.2469 496.65314 331.98126Q497.8875 333.7 497.8875 336.09064Q497.8875 339.3875 495.54376 341.6375Q493.21564 343.8875 489.40314 343.8875Q485.59064 343.8875 483.2469 341.6375Q480.90314 339.3719 480.90314 335.9969Q480.90314 333.48126 482.1844 331.79376Q483.46564 330.09064 485.8094 329.48126ZM485.1844 324.10626Q485.1844 325.9344 486.35626 327.10626Q487.54376 328.2625 489.41876 328.2625Q491.2469 328.2625 492.41876 327.1219Q493.59064 325.96564 493.59064 324.29376Q493.59064 322.54376 492.3719 321.35626Q491.16876 320.16876 489.3875 320.16876Q487.575 320.16876 486.3719 321.34064Q485.1844 322.4969 485.1844 324.10626ZM484.16876 336.0125Q484.16876 337.3719 484.8094 338.6375Q485.45 339.90314 486.71564 340.60626Q487.98126 341.29376 489.4344 341.29376Q491.7 341.29376 493.16876 339.84064Q494.65314 338.3719 494.65314 336.1219Q494.65314 333.84064 493.1375 332.34064Q491.6219 330.84064 489.325 330.84064Q487.09064 330.84064 485.6219 332.325Q484.16876 333.79376 484.16876 336.0125ZM501.41876 337.4969L504.46564 337.21564Q504.84064 339.35626 505.9344 340.325Q507.02814 341.29376 508.73126 341.29376Q510.1844 341.29376 511.27814 340.6219Q512.3875 339.95 513.09064 338.84064Q513.79376 337.71564 514.2625 335.825Q514.7469 333.91876 514.7469 331.95Q514.7469 331.7469 514.73126 331.325Q513.77814 332.825 512.1375 333.77814Q510.4969 334.71564 508.575 334.71564Q505.3719 334.71564 503.15314 332.40314Q500.95 330.075 500.95 326.27814Q500.95 322.35626 503.2625 319.96564Q505.575 317.575 509.04376 317.575Q511.5594 317.575 513.6375 318.9344Q515.73126 320.27814 516.8094 322.79376Q517.8875 325.29376 517.8875 330.04376Q517.8875 334.98126 516.8094 337.90314Q515.7469 340.825 513.6219 342.35626Q511.5125 343.8875 508.66876 343.8875Q505.6375 343.8875 503.71564 342.21564Q501.8094 340.52814 501.41876 337.4969ZM514.3719 326.1219Q514.3719 323.3875 512.91876 321.79376Q511.48126 320.2 509.4344 320.2Q507.325 320.2 505.7625 321.91876Q504.2 323.6375 504.2 326.3875Q504.2 328.84064 505.6844 330.3875Q507.16876 331.91876 509.34064 331.91876Q511.54376 331.91876 512.95 330.3875Q514.3719 328.84064 514.3719 326.1219ZM522.71564 343.45L522.71564 339.84064L526.325 339.84064L526.325 343.45L522.71564 343.45ZM530.96564 336.65314L534.1219 336.23126Q534.66876 338.91876 535.98126 340.10626Q537.29376 341.29376 539.16876 341.29376Q541.40314 341.29376 542.9344 339.7469Q544.48126 338.2 544.48126 335.90314Q544.48126 333.73126 543.0594 332.325Q541.6375 330.90314 539.4344 330.90314Q538.54376 330.90314 537.2 331.2469L537.5594 328.46564Q537.8719 328.5125 538.0594 328.5125Q540.09064 328.5125 541.7 327.46564Q543.325 326.40314 543.325 324.2Q543.325 322.46564 542.1375 321.325Q540.96564 320.16876 539.10626 320.16876Q537.2625 320.16876 536.02814 321.34064Q534.79376 322.4969 534.45 324.8094L531.27814 324.2469Q531.85626 321.075 533.90314 319.325Q535.96564 317.575 539.02814 317.575Q541.1375 317.575 542.90314 318.48126Q544.6844 319.3875 545.6219 320.95Q546.575 322.5125 546.575 324.27814Q546.575 325.9344 545.66876 327.3094Q544.77814 328.6844 543.02814 329.4969Q545.3094 330.0125 546.575 331.6844Q547.84064 333.34064 547.84064 335.84064Q547.84064 339.21564 545.3719 341.5594Q542.91876 343.90314 539.15314 343.90314Q535.7625 343.90314 533.5125 341.8875Q531.27814 339.85626 530.96564 336.65314ZM551.54376 323.8719Q551.54376 321.10626 552.9344 319.1844Q554.325 317.2469 556.95 317.2469Q559.3875 317.2469 560.96564 318.98126Q562.5594 320.7 562.5594 324.0594Q562.5594 327.325 560.95 329.09064Q559.34064 330.85626 556.9969 330.85626Q554.65314 330.85626 553.09064 329.1219Q551.54376 327.3875 551.54376 323.8719ZM557.04376 319.41876Q555.8719 319.41876 555.09064 320.45Q554.3094 321.46564 554.3094 324.1844Q554.3094 326.66876 555.09064 327.6844Q555.8875 328.6844 557.04376 328.6844Q558.2469 328.6844 559.02814 327.66876Q559.8094 326.6375 559.8094 323.9344Q559.8094 321.4344 559.0125 320.4344Q558.21564 319.41876 557.04376 319.41876ZM557.0594 344.40314L571.15314 317.2469L573.73126 317.2469L559.6844 344.40314L557.0594 344.40314ZM568.2 337.40314Q568.2 334.6219 569.59064 332.7Q570.98126 330.77814 573.6375 330.77814Q576.0594 330.77814 577.65314 332.5125Q579.2469 334.23126 579.2469 337.59064Q579.2469 340.8719 577.6375 342.6375Q576.02814 344.40314 573.65314 344.40314Q571.325 344.40314 569.7625 342.65314Q568.2 340.90314 568.2 337.40314ZM573.73126 332.95Q572.52814 332.95 571.7469 333.98126Q570.96564 334.9969 570.96564 337.71564Q570.96564 340.1844 571.7469 341.2Q572.54376 342.21564 573.71564 342.21564Q574.91876 342.21564 575.7 341.2Q576.48126 340.1844 576.48126 337.46564Q576.48126 334.98126 575.6844 333.96564Q574.90314 332.95 573.73126 332.95Z" fill-rule="nonzero"/><path stroke="#757575" stroke-width="1.0" stroke-linecap="butt" d="M581.45 308.95L472.95 308.95L352.3159 335.22574" fill-rule="nonzero"/><path fill="#9e9e9e" d="M354.3159 335.22574C354.3159 334.1212 353.42047 333.22574 352.3159 333.22574C351.21133 333.22574 350.3159 334.1212 350.3159 335.22574C350.3159 336.33032 351.21133 337.22574 352.3159 337.22574C353.42047 337.22574 354.3159 336.33032 354.3159 335.22574" fill-rule="nonzero"/></svg>