<svg version="1.1" viewBox="0.0 0.0 600.0 371.0" fill="none" stroke="none" stroke-linecap="square" stroke-miterlimit="10" width="600" height="371" xmlns:xlink="http://www.w3.org/1999/xlink" xmlns="http://www.w3.org/2000/svg"><path fill="#ffffff" d="M0 0L600.0 0L600.0 371.0L0 371.0L0 0Z" fill-rule="nonzero"/><path stroke="#cccccc" stroke-width="1.0" stroke-linecap="butt" d="M163.5 61.5L163.5 300.5" fill-rule="nonzero"/><path stroke="#cccccc" stroke-width="1.0" stroke-linecap="butt" d="M254.5 61.5L254.5 300.5" fill-rule="nonzero"/><path stroke="#cccccc" stroke-width="1.0" stroke-linecap="butt" d="M345.5 61.5L345.5 300.5" fill-rule="nonzero"/><path stroke="#cccccc" stroke-width="1.0" stroke-linecap="butt" d="M436.5 61.5L436.5 300.5" fill-rule="nonzero"/><path stroke="#cccccc" stroke-width="1.0" stroke-linecap="butt" d="M526.5 61.5L526.5 300.5" fill-rule="nonzero"/><path stroke="#333333" stroke-width="1.0" stroke-linecap="butt" d="M77.5 300.5L581.5 300.5" fill-rule="nonzero"/><path stroke="#cccccc" stroke-width="1.0" stroke-linecap="butt" d="M77.5 240.5L581.5 240.5" fill-rule="nonzero"/><path stroke="#cccccc" stroke-width="1.0" stroke-linecap="butt" d="M77.5 181.5L581.5 181.5" fill-rule="nonzero"/><path stroke="#cccccc" stroke-width="1.0" stroke-linecap="butt" d="M77.5 121.5L581.5 121.5" fill-rule="nonzero"/><path stroke="#cccccc" stroke-width="1.0" stroke-linecap="butt" d="M77.5 61.5L581.5 61.5" fill-rule="nonzero"/><clipPath id="id_0"><path d="M77.55 61.916668L581.45 61.916668L581.45 300.45L77.55 300.45L77.55 61.916668Z" clip-rule="nonzero"/></clipPath><path stroke="#4285f4" stroke-width="2.0" stroke-linecap="butt" clip-path="url(#id_0)" d="M581.45 134.76474L508.81577 133.02048L436.18152 124.7702L363.5473 120.885086L290.91306 101.63843L218.27882 138.83174L145.64459 219.11311L109.32748 261.17847L91.16892 282.01138L82.08964 291.35593L77.55 295.89996" fill-rule="nonzero"/><path fill="#000000" fill-opacity="0.0" clip-path="url(#id_0)" d="M584.45 134.76474C584.45 136.4216 583.1069 137.76474 581.45 137.76474C579.79315 137.76474 578.45 136.4216 578.45 134.76474C578.45 133.1079 579.79315 131.76474 581.45 131.76474C583.1069 131.76474 584.45 133.1079 584.45 134.76474Z" fill-rule="nonzero"/><path fill="#000000" fill-opacity="0.0" clip-path="url(#id_0)" d="M511.81577 133.02048C511.81577 134.67732 510.47263 136.02048 508.81577 136.02048C507.1589 136.02048 505.81577 134.67732 505.81577 133.02048C505.81577 131.36362 507.1589 130.02048 508.81577 130.02048C510.47263 130.02048 511.81577 131.36362 511.81577 133.02048Z" fill-rule="nonzero"/><path fill="#000000" fill-opacity="0.0" clip-path="url(#id_0)" d="M439.18152 124.7702C439.18152 126.427055 437.83838 127.7702 436.18152 127.7702C434.5247 127.7702 433.18152 126.427055 433.18152 124.7702C433.18152 123.11334 434.5247 121.7702 436.18152 121.7702C437.83838 121.7702 439.18152 123.11334 439.18152 124.7702Z" fill-rule="nonzero"/><path fill="#000000" fill-opacity="0.0" clip-path="url(#id_0)" d="M366.5473 120.885086C366.5473 122.54194 365.20416 123.885086 363.5473 123.885086C361.89044 123.885086 360.5473 122.54194 360.5473 120.885086C360.5473 119.22823 361.89044 117.885086 363.5473 117.885086C365.20416 117.885086 366.5473 119.22823 366.5473 120.885086Z" fill-rule="nonzero"/><path fill="#000000" fill-opacity="0.0" clip-path="url(#id_0)" d="M293.91306 101.63843C293.91306 103.29528 292.56992 104.63843 290.91306 104.63843C289.2562 104.63843 287.91306 103.29528 287.91306 101.63843C287.91306 99.981575 289.2562 98.63843 290.91306 98.63843C292.56992 98.63843 293.91306 99.981575 293.91306 101.63843Z" fill-rule="nonzero"/><path fill="#000000" fill-opacity="0.0" clip-path="url(#id_0)" d="M221.27882 138.83174C221.27882 140.4886 219.93568 141.83174 218.27882 141.83174C216.62198 141.83174 215.27882 140.4886 215.27882 138.83174C215.27882 137.17488 216.62198 135.83174 218.27882 135.83174C219.93568 135.83174 221.27882 137.17488 221.27882 138.83174Z" fill-rule="nonzero"/><path fill="#000000" fill-opacity="0.0" clip-path="url(#id_0)" d="M148.64459 219.11311C148.64459 220.76997 147.30145 222.11311 145.64459 222.11311C143.98775 222.11311 142.64459 220.76997 142.64459 219.11311C142.64459 217.45627 143.98775 216.11311 145.64459 216.11311C147.30145 216.11311 148.64459 217.45627 148.64459 219.11311Z" fill-rule="nonzero"/><path fill="#000000" fill-opacity="0.0" clip-path="url(#id_0)" d="M112.32748 261.17847C112.32748 262.83533 110.98433 264.17847 109.32748 264.17847C107.67062 264.17847 106.32748 262.83533 106.32748 261.17847C106.32748 259.5216 107.67062 258.17847 109.32748 258.17847C110.98433 258.17847 112.32748 259.5216 112.32748 261.17847Z" fill-rule="nonzero"/><path fill="#000000" fill-opacity="0.0" clip-path="url(#id_0)" d="M94.16892 282.01138C94.16892 283.6682 92.825775 285.01138 91.16892 285.01138C89.51206 285.01138 88.16892 283.6682 88.16892 282.01138C88.16892 280.35452 89.51206 279.01138 91.16892 279.01138C92.825775 279.01138 94.16892 280.35452 94.16892 282.01138Z" fill-rule="nonzero"/><path fill="#000000" fill-opacity="0.0" clip-path="url(#id_0)" d="M85.08964 291.35593C85.08964 293.01276 83.74649 294.35593 82.08964 294.35593C80.432785 294.35593 79.08964 293.01276 79.08964 291.35593C79.08964 289.69907 80.432785 288.35593 82.08964 288.35593C83.74649 288.35593 85.08964 289.69907 85.08964 291.35593Z" fill-rule="nonzero"/><path fill="#000000" fill-opacity="0.0" clip-path="url(#id_0)" d="M80.55 295.89996C80.55 297.55682 79.206856 298.89996 77.55 298.89996C75.89314 298.89996 74.55 297.55682 74.55 295.89996C74.55 294.24313 75.89314 292.89996 77.55 292.89996C79.206856 292.89996 80.55 294.24313 80.55 295.89996Z" fill-rule="nonzero"/><path fill="#000000" d="M279.35938 347.16876L280.39062 347.3094Q280.21875 348.3719 279.51562 348.98126Q278.8125 349.59064 277.79688 349.59064Q276.51562 349.59064 275.73438 348.7625Q274.96875 347.91876 274.96875 346.35626Q274.96875 345.35626 275.29688 344.60626Q275.64062 343.84064 276.3125 343.46564Q277.0 343.09064 277.8125 343.09064Q278.8125 343.09064 279.45312 343.60626Q280.10938 344.10626 280.29688 345.0594L279.26562 345.21564Q279.125 344.59064 278.75 344.27814Q278.375 343.95 277.84375 343.95Q277.04688 343.95 276.54688 344.52814Q276.04688 345.09064 276.04688 346.325Q276.04688 347.59064 276.53125 348.15314Q277.01562 348.71564 277.78125 348.71564Q278.40625 348.71564 278.8125 348.34064Q279.23438 347.96564 279.35938 347.16876ZM280.90625 346.34064Q280.90625 344.60626 281.85938 343.77814Q282.65625 343.09064 283.8125 343.09064Q285.09375 343.09064 285.90625 343.9344Q286.73438 344.7625 286.73438 346.2469Q286.73438 347.45 286.375 348.1375Q286.01562 348.825 285.3125 349.21564Q284.625 349.59064 283.8125 349.59064Q282.51562 349.59064 281.70312 348.7625Q280.90625 347.91876 280.90625 346.34064ZM281.98438 346.34064Q281.98438 347.52814 282.5 348.1219Q283.03125 348.71564 283.8125 348.71564Q284.60938 348.71564 285.125 348.1219Q285.64062 347.52814 285.64062 346.3094Q285.64062 345.15314 285.10938 344.5594Q284.59375 343.96564 283.8125 343.96564Q283.03125 343.96564 282.5 344.5594Q281.98438 345.1375 281.98438 346.34064ZM288.29688 349.45L288.29688 343.23126L289.23438 343.23126L289.23438 344.10626Q289.92188 343.09064 291.21875 343.09064Q291.78125 343.09064 292.25 343.29376Q292.73438 343.4969 292.96875 343.825Q293.20312 344.15314 293.29688 344.59064Q293.34375 344.8875 293.34375 345.6219L293.34375 349.45L292.29688 349.45L292.29688 345.66876Q292.29688 345.0125 292.17188 344.7Q292.04688 344.3875 291.73438 344.2Q291.42188 343.9969 291.0 343.9969Q290.32812 343.9969 289.82812 344.4344Q289.34375 344.85626 289.34375 346.04376L289.34375 349.45L288.29688 349.45ZM299.35938 347.16876L300.39062 347.3094Q300.21875 348.3719 299.51562 348.98126Q298.8125 349.59064 297.79688 349.59064Q296.51562 349.59064 295.73438 348.7625Q294.96875 347.91876 294.96875 346.35626Q294.96875 345.35626 295.29688 344.60626Q295.64062 343.84064 296.3125 343.46564Q297.0 343.09064 297.8125 343.09064Q298.8125 343.09064 299.45312 343.60626Q300.10938 344.10626 300.29688 345.0594L299.26562 345.21564Q299.125 344.59064 298.75 344.27814Q298.375 343.95 297.84375 343.95Q297.04688 343.95 296.54688 344.52814Q296.04688 345.09064 296.04688 346.325Q296.04688 347.59064 296.53125 348.15314Q297.01562 348.71564 297.78125 348.71564Q298.40625 348.71564 298.8125 348.34064Q299.23438 347.96564 299.35938 347.16876ZM305.375 349.45L305.375 348.52814Q304.64062 349.59064 303.39062 349.59064Q302.84375 349.59064 302.35938 349.3875Q301.89062 349.16876 301.65625 348.85626Q301.42188 348.52814 301.32812 348.0594Q301.26562 347.7625 301.26562 347.075L301.26562 343.23126L302.32812 343.23126L302.32812 346.6844Q302.32812 347.4969 302.39062 347.79376Q302.48438 348.2 302.79688 348.45Q303.125 348.6844 303.60938 348.6844Q304.07812 348.6844 304.48438 348.45Q304.90625 348.2 305.07812 347.77814Q305.26562 347.35626 305.26562 346.5594L305.26562 343.23126L306.3125 343.23126L306.3125 349.45L305.375 349.45ZM308.28125 349.45L308.28125 343.23126L309.23438 343.23126L309.23438 344.16876Q309.59375 343.5125 309.89062 343.3094Q310.20312 343.09064 310.57812 343.09064Q311.10938 343.09064 311.65625 343.41876L311.29688 344.40314Q310.90625 344.16876 310.53125 344.16876Q310.17188 344.16876 309.89062 344.3875Q309.625 344.59064 309.51562 344.96564Q309.32812 345.52814 309.32812 346.1844L309.32812 349.45L308.28125 349.45ZM312.28125 349.45L312.28125 343.23126L313.23438 343.23126L313.23438 344.16876Q313.59375 343.5125 313.89062 343.3094Q314.20312 343.09064 314.57812 343.09064Q315.10938 343.09064 315.65625 343.41876L315.29688 344.40314Q314.90625 344.16876 314.53125 344.16876Q314.17188 344.16876 313.89062 344.3875Q313.625 344.59064 313.51562 344.96564Q313.32812 345.52814 313.32812 346.1844L313.32812 349.45L312.28125 349.45ZM320.54688 347.45L321.64062 347.575Q321.39062 348.52814 320.6875 349.0594Q319.98438 349.59064 318.90625 349.59064Q317.54688 349.59064 316.73438 348.7469Q315.9375 347.90314 315.9375 346.3875Q315.9375 344.825 316.75 343.96564Q317.5625 343.09064 318.84375 343.09064Q320.09375 343.09064 320.875 343.9344Q321.67188 344.77814 321.67188 346.325Q321.67188 346.41876 321.67188 346.60626L317.03125 346.60626Q317.09375 347.6375 317.60938 348.1844Q318.125 348.71564 318.90625 348.71564Q319.48438 348.71564 319.89062 348.41876Q320.3125 348.10626 320.54688 347.45ZM317.09375 345.7469L320.5625 345.7469Q320.5 344.95 320.17188 344.5594Q319.65625 343.95 318.85938 343.95Q318.125 343.95 317.625 344.4344Q317.14062 344.91876 317.09375 345.7469ZM323.29688 349.45L323.29688 343.23126L324.23438 343.23126L324.23438 344.10626Q324.92188 343.09064 326.21875 343.09064Q326.78125 343.09064 327.25 343.29376Q327.73438 343.4969 327.96875 343.825Q328.20312 344.15314 328.29688 344.59064Q328.34375 344.8875 328.34375 345.6219L328.34375 349.45L327.29688 349.45L327.29688 345.66876Q327.29688 345.0125 327.17188 344.7Q327.04688 344.3875 326.73438 344.2Q326.42188 343.9969 326.0 343.9969Q325.32812 343.9969 324.82812 344.4344Q324.34375 344.85626 324.34375 346.04376L324.34375 349.45L323.29688 349.45ZM332.59375 348.5125L332.75 349.4344Q332.29688 349.52814 331.95312 349.52814Q331.375 349.52814 331.0625 349.35626Q330.75 349.16876 330.60938 348.8719Q330.48438 348.575 330.48438 347.6219L330.48438 344.04376L329.71875 344.04376L329.71875 343.23126L330.48438 343.23126L330.48438 341.6844L331.53125 341.0594L331.53125 343.23126L332.59375 343.23126L332.59375 344.04376L331.53125 344.04376L331.53125 347.6844Q331.53125 348.1375 331.57812 348.2625Q331.64062 348.3875 331.76562 348.46564Q331.89062 348.54376 332.125 348.54376Q332.3125 348.54376 332.59375 348.5125ZM336.28125 349.45L336.28125 343.23126L337.23438 343.23126L337.23438 344.16876Q337.59375 343.5125 337.89062 343.3094Q338.20312 343.09064 338.57812 343.09064Q339.10938 343.09064 339.65625 343.41876L339.29688 344.40314Q338.90625 344.16876 338.53125 344.16876Q338.17188 344.16876 337.89062 344.3875Q337.625 344.59064 337.51562 344.96564Q337.32812 345.52814 337.32812 346.1844L337.32812 349.45L336.28125 349.45ZM344.54688 347.45L345.64062 347.575Q345.39062 348.52814 344.6875 349.0594Q343.98438 349.59064 342.90625 349.59064Q341.54688 349.59064 340.73438 348.7469Q339.9375 347.90314 339.9375 346.3875Q339.9375 344.825 340.75 343.96564Q341.5625 343.09064 342.84375 343.09064Q344.09375 343.09064 344.875 343.9344Q345.67188 344.77814 345.67188 346.325Q345.67188 346.41876 345.67188 346.60626L341.03125 346.60626Q341.09375 347.6375 341.60938 348.1844Q342.125 348.71564 342.90625 348.71564Q343.48438 348.71564 343.89062 348.41876Q344.3125 348.10626 344.54688 347.45ZM341.09375 345.7469L344.5625 345.7469Q344.5 344.95 344.17188 344.5594Q343.65625 343.95 342.85938 343.95Q342.125 343.95 341.625 344.4344Q341.14062 344.91876 341.09375 345.7469ZM351.26562 351.84064L351.26562 348.79376Q351.01562 349.1375 350.5625 349.3719Q350.125 349.59064 349.625 349.59064Q348.51562 349.59064 347.71875 348.71564Q346.92188 347.825 346.92188 346.27814Q346.92188 345.34064 347.25 344.60626Q347.57812 343.85626 348.1875 343.48126Q348.8125 343.09064 349.54688 343.09064Q350.70312 343.09064 351.35938 344.0594L351.35938 343.23126L352.3125 343.23126L352.3125 351.84064L351.26562 351.84064ZM348.0 346.325Q348.0 347.52814 348.5 348.1219Q349.01562 348.71564 349.71875 348.71564Q350.39062 348.71564 350.875 348.15314Q351.35938 347.575 351.35938 346.41876Q351.35938 345.16876 350.84375 344.54376Q350.34375 343.91876 349.64062 343.91876Q348.96875 343.91876 348.48438 344.5125Q348.0 345.09064 348.0 346.325ZM358.375 349.45L358.375 348.52814Q357.64062 349.59064 356.39062 349.59064Q355.84375 349.59064 355.35938 349.3875Q354.89062 349.16876 354.65625 348.85626Q354.42188 348.52814 354.32812 348.0594Q354.26562 347.7625 354.26562 347.075L354.26562 343.23126L355.32812 343.23126L355.32812 346.6844Q355.32812 347.4969 355.39062 347.79376Q355.48438 348.2 355.79688 348.45Q356.125 348.6844 356.60938 348.6844Q357.07812 348.6844 357.48438 348.45Q357.90625 348.2 358.07812 347.77814Q358.26562 347.35626 358.26562 346.5594L358.26562 343.23126L359.3125 343.23126L359.3125 349.45L358.375 349.45ZM365.54688 347.45L366.64062 347.575Q366.39062 348.52814 365.6875 349.0594Q364.98438 349.59064 363.90625 349.59064Q362.54688 349.59064 361.73438 348.7469Q360.9375 347.90314 360.9375 346.3875Q360.9375 344.825 361.75 343.96564Q362.5625 343.09064 363.84375 343.09064Q365.09375 343.09064 365.875 343.9344Q366.67188 344.77814 366.67188 346.325Q366.67188 346.41876 366.67188 346.60626L362.03125 346.60626Q362.09375 347.6375 362.60938 348.1844Q363.125 348.71564 363.90625 348.71564Q364.48438 348.71564 364.89062 348.41876Q365.3125 348.10626 365.54688 347.45ZM362.09375 345.7469L365.5625 345.7469Q365.5 344.95 365.17188 344.5594Q364.65625 343.95 363.85938 343.95Q363.125 343.95 362.625 344.4344Q362.14062 344.91876 362.09375 345.7469ZM367.875 347.59064L368.90625 347.4344Q369.0 348.0594 369.39062 348.3875Q369.79688 348.71564 370.53125 348.71564Q371.25 348.71564 371.59375 348.4344Q371.95312 348.1375 371.95312 347.73126Q371.95312 347.3719 371.64062 347.16876Q371.42188 347.02814 370.5625 346.8094Q369.40625 346.5125 368.95312 346.3094Q368.51562 346.09064 368.28125 345.71564Q368.04688 345.34064 368.04688 344.8719Q368.04688 344.46564 368.23438 344.10626Q368.42188 343.7469 368.75 343.5125Q369.0 343.34064 369.42188 343.21564Q369.84375 343.09064 370.34375 343.09064Q371.0625 343.09064 371.60938 343.3094Q372.17188 343.5125 372.4375 343.8719Q372.70312 344.23126 372.79688 344.825L371.76562 344.96564Q371.70312 344.4969 371.35938 344.23126Q371.03125 343.95 370.40625 343.95Q369.6875 343.95 369.375 344.2Q369.0625 344.4344 369.0625 344.7625Q369.0625 344.96564 369.1875 345.1219Q369.32812 345.29376 369.59375 345.40314Q369.75 345.46564 370.53125 345.66876Q371.65625 345.98126 372.09375 346.16876Q372.53125 346.35626 372.78125 346.71564Q373.03125 347.075 373.03125 347.6219Q373.03125 348.15314 372.71875 348.6219Q372.42188 349.075 371.84375 349.34064Q371.26562 349.59064 370.53125 349.59064Q369.3125 349.59064 368.67188 349.09064Q368.04688 348.575 367.875 347.59064ZM377.59375 348.5125L377.75 349.4344Q377.29688 349.52814 376.95312 349.52814Q376.375 349.52814 376.0625 349.35626Q375.75 349.16876 375.60938 348.8719Q375.48438 348.575 375.48438 347.6219L375.48438 344.04376L374.71875 344.04376L374.71875 343.23126L375.48438 343.23126L375.48438 341.6844L376.53125 341.0594L376.53125 343.23126L377.59375 343.23126L377.59375 344.04376L376.53125 344.04376L376.53125 347.6844Q376.53125 348.1375 376.57812 348.2625Q376.64062 348.3875 376.76562 348.46564Q376.89062 348.54376 377.125 348.54376Q377.3125 348.54376 377.59375 348.5125ZM377.875 347.59064L378.90625 347.4344Q379.0 348.0594 379.39062 348.3875Q379.79688 348.71564 380.53125 348.71564Q381.25 348.71564 381.59375 348.4344Q381.95312 348.1375 381.95312 347.73126Q381.95312 347.3719 381.64062 347.16876Q381.42188 347.02814 380.5625 346.8094Q379.40625 346.5125 378.95312 346.3094Q378.51562 346.09064 378.28125 345.71564Q378.04688 345.34064 378.04688 344.8719Q378.04688 344.46564 378.23438 344.10626Q378.42188 343.7469 378.75 343.5125Q379.0 343.34064 379.42188 343.21564Q379.84375 343.09064 380.34375 343.09064Q381.0625 343.09064 381.60938 343.3094Q382.17188 343.5125 382.4375 343.8719Q382.70312 344.23126 382.79688 344.825L381.76562 344.96564Q381.70312 344.4969 381.35938 344.23126Q381.03125 343.95 380.40625 343.95Q379.6875 343.95 379.375 344.2Q379.0625 344.4344 379.0625 344.7625Q379.0625 344.96564 379.1875 345.1219Q379.32812 345.29376 379.59375 345.40314Q379.75 345.46564 380.53125 345.66876Q381.65625 345.98126 382.09375 346.16876Q382.53125 346.35626 382.78125 346.71564Q383.03125 347.075 383.03125 347.6219Q383.03125 348.15314 382.71875 348.6219Q382.42188 349.075 381.84375 349.34064Q381.26562 349.59064 380.53125 349.59064Q379.3125 349.59064 378.67188 349.09064Q378.04688 348.575 377.875 347.59064Z" fill-rule="nonzero"/><path fill="#000000" d="M29.550013 243.90208L23.331263 243.90208L23.331263 242.94896L24.268763 242.94896Q23.612513 242.58958 23.409388 242.29271Q23.190638 241.98021 23.190638 241.60521Q23.190638 241.07396 23.518763 240.52708L24.503138 240.88646Q24.268763 241.27708 24.268763 241.65208Q24.268763 242.01146 24.487513 242.29271Q24.690638 242.55833 25.065638 242.66771Q25.628138 242.85521 26.284388 242.85521L29.550013 242.85521L29.550013 243.90208ZM27.550013 235.63646L27.675013 234.54271Q28.628138 234.79271 29.159388 235.49583Q29.690638 236.19896 29.690638 237.27708Q29.690638 238.63646 28.846888 239.44896Q28.003138 240.24583 26.487513 240.24583Q24.925013 240.24583 24.065638 239.43333Q23.190638 238.62083 23.190638 237.33958Q23.190638 236.08958 24.034388 235.30833Q24.878138 234.51146 26.425013 234.51146Q26.518763 234.51146 26.706263 234.51146L26.706263 239.15208Q27.737513 239.08958 28.284388 238.57396Q28.815638 238.05833 28.815638 237.27708Q28.815638 236.69896 28.518763 236.29271Q28.206263 235.87083 27.550013 235.63646ZM25.846888 239.08958L25.846888 235.62083Q25.050013 235.68333 24.659388 236.01146Q24.050013 236.52708 24.050013 237.32396Q24.050013 238.05833 24.534388 238.55833Q25.018763 239.04271 25.846888 239.08958ZM31.940638 228.91771L28.893763 228.91771Q29.237513 229.16771 29.471888 229.62083Q29.690638 230.05833 29.690638 230.55833Q29.690638 231.66771 28.815638 232.46458Q27.925013 233.26146 26.378138 233.26146Q25.440638 233.26146 24.706263 232.93333Q23.956263 232.60521 23.581263 231.99583Q23.190638 231.37083 23.190638 230.63646Q23.190638 229.48021 24.159388 228.82396L23.331263 228.82396L23.331263 227.87083L31.940638 227.87083L31.940638 228.91771ZM26.425013 232.18333Q27.628138 232.18333 28.221888 231.68333Q28.815638 231.16771 28.815638 230.46458Q28.815638 229.79271 28.253138 229.30833Q27.675013 228.82396 26.518763 228.82396Q25.268763 228.82396 24.643763 229.33958Q24.018763 229.83958 24.018763 230.54271Q24.018763 231.21458 24.612513 231.69896Q25.190638 232.18333 26.425013 232.18333ZM29.550013 221.80833L28.628138 221.80833Q29.690638 222.54271 29.690638 223.79271Q29.690638 224.33958 29.487513 224.82396Q29.268763 225.29271 28.956263 225.52708Q28.628138 225.76146 28.159388 225.85521Q27.862513 225.91771 27.175013 225.91771L23.331263 225.91771L23.331263 224.85521L26.784388 224.85521Q27.596888 224.85521 27.893763 224.79271Q28.300013 224.69896 28.550013 224.38646Q28.784388 224.05833 28.784388 223.57396Q28.784388 223.10521 28.550013 222.69896Q28.300013 222.27708 27.878138 222.10521Q27.456263 221.91771 26.659388 221.91771L23.331263 221.91771L23.331263 220.87083L29.550013 220.87083L29.550013 221.80833ZM27.550013 214.63646L27.675013 213.54271Q28.628138 213.79271 29.159388 214.49583Q29.690638 215.19896 29.690638 216.27708Q29.690638 217.63646 28.846888 218.44896Q28.003138 219.24583 26.487513 219.24583Q24.925013 219.24583 24.065638 218.43333Q23.190638 217.62083 23.190638 216.33958Q23.190638 215.08958 24.034388 214.30833Q24.878138 213.51146 26.425013 213.51146Q26.518763 213.51146 26.706263 213.51146L26.706263 218.15208Q27.737513 218.08958 28.284388 217.57396Q28.815638 217.05833 28.815638 216.27708Q28.815638 215.69896 28.518763 215.29271Q28.206263 214.87083 27.550013 214.63646ZM25.846888 218.08958L25.846888 214.62083Q25.050013 214.68333 24.659388 215.01146Q24.050013 215.52708 24.050013 216.32396Q24.050013 217.05833 24.534388 217.55833Q25.018763 218.04271 25.846888 218.08958ZM27.690638 212.30833L27.534388 211.27708Q28.159388 211.18333 28.487513 210.79271Q28.815638 210.38646 28.815638 209.65208Q28.815638 208.93333 28.534388 208.58958Q28.237513 208.23021 27.831263 208.23021Q27.471888 208.23021 27.268763 208.54271Q27.128138 208.76146 26.909388 209.62083Q26.612513 210.77708 26.409388 211.23021Q26.190638 211.66771 25.815638 211.90208Q25.440638 212.13646 24.971888 212.13646Q24.565638 212.13646 24.206263 211.94896Q23.846888 211.76146 23.612513 211.43333Q23.440638 211.18333 23.315638 210.76146Q23.190638 210.33958 23.190638 209.83958Q23.190638 209.12083 23.409388 208.57396Q23.612513 208.01146 23.971888 207.74583Q24.331263 207.48021 24.925013 207.38646L25.065638 208.41771Q24.596888 208.48021 24.331263 208.82396Q24.050013 209.15208 24.050013 209.77708Q24.050013 210.49583 24.300013 210.80833Q24.534388 211.12083 24.862513 211.12083Q25.065638 211.12083 25.221888 210.99583Q25.393763 210.85521 25.503138 210.58958Q25.565638 210.43333 25.768763 209.65208Q26.081263 208.52708 26.268763 208.08958Q26.456263 207.65208 26.815638 207.40208Q27.175013 207.15208 27.721888 207.15208Q28.253138 207.15208 28.721888 207.46458Q29.175013 207.76146 29.440638 208.33958Q29.690638 208.91771 29.690638 209.65208Q29.690638 210.87083 29.190638 211.51146Q28.675013 212.13646 27.690638 212.30833ZM28.612513 202.58958L29.534388 202.43333Q29.628138 202.88646 29.628138 203.23021Q29.628138 203.80833 29.456263 204.12083Q29.268763 204.43333 28.971888 204.57396Q28.675013 204.69896 27.721888 204.69896L24.143763 204.69896L24.143763 205.46458L23.331263 205.46458L23.331263 204.69896L21.784388 204.69896L21.159388 203.65208L23.331263 203.65208L23.331263 202.58958L24.143763 202.58958L24.143763 203.65208L27.784388 203.65208Q28.237513 203.65208 28.362513 203.60521Q28.487513 203.54271 28.565638 203.41771Q28.643763 203.29271 28.643763 203.05833Q28.643763 202.87083 28.612513 202.58958ZM27.690638 202.30833L27.534388 201.27708Q28.159388 201.18333 28.487513 200.79271Q28.815638 200.38646 28.815638 199.65208Q28.815638 198.93333 28.534388 198.58958Q28.237513 198.23021 27.831263 198.23021Q27.471888 198.23021 27.268763 198.54271Q27.128138 198.76146 26.909388 199.62083Q26.612513 200.77708 26.409388 201.23021Q26.190638 201.66771 25.815638 201.90208Q25.440638 202.13646 24.971888 202.13646Q24.565638 202.13646 24.206263 201.94896Q23.846888 201.76146 23.612513 201.43333Q23.440638 201.18333 23.315638 200.76146Q23.190638 200.33958 23.190638 199.83958Q23.190638 199.12083 23.409388 198.57396Q23.612513 198.01146 23.971888 197.74583Q24.331263 197.48021 24.925013 197.38646L25.065638 198.41771Q24.596888 198.48021 24.331263 198.82396Q24.050013 199.15208 24.050013 199.77708Q24.050013 200.49583 24.300013 200.80833Q24.534388 201.12083 24.862513 201.12083Q25.065638 201.12083 25.221888 200.99583Q25.393763 200.85521 25.503138 200.58958Q25.565638 200.43333 25.768763 199.65208Q26.081263 198.52708 26.268763 198.08958Q26.456263 197.65208 26.815638 197.40208Q27.175013 197.15208 27.721888 197.15208Q28.253138 197.15208 28.721888 197.46458Q29.175013 197.76146 29.440638 198.33958Q29.690638 198.91771 29.690638 199.65208Q29.690638 200.87083 29.190638 201.51146Q28.675013 202.13646 27.690638 202.30833ZM31.940638 191.88646L23.331263 191.88646L23.331263 190.93333L24.128138 190.93333Q23.659388 190.58958 23.425013 190.16771Q23.190638 189.73021 23.190638 189.12083Q23.190638 188.32396 23.596888 187.71458Q24.003138 187.10521 24.753138 186.80833Q25.503138 186.49583 26.393763 186.49583Q27.346888 186.49583 28.112513 186.83958Q28.878138 187.16771 29.284388 187.82396Q29.690638 188.48021 29.690638 189.19896Q29.690638 189.73021 29.471888 190.15208Q29.237513 190.57396 28.909388 190.83958L31.940638 190.83958L31.940638 191.88646ZM26.471888 190.93333Q27.675013 190.93333 28.253138 190.44896Q28.815638 189.96458 28.815638 189.27708Q28.815638 188.57396 28.221888 188.07396Q27.628138 187.57396 26.378138 187.57396Q25.190638 187.57396 24.612513 188.05833Q24.018763 188.54271 24.018763 189.23021Q24.018763 189.90208 24.643763 190.41771Q25.268763 190.93333 26.471888 190.93333ZM27.550013 180.63646L27.675013 179.54271Q28.628138 179.79271 29.159388 180.49583Q29.690638 181.19896 29.690638 182.27708Q29.690638 183.63646 28.846888 184.44896Q28.003138 185.24583 26.487513 185.24583Q24.925013 185.24583 24.065638 184.43333Q23.190638 183.62083 23.190638 182.33958Q23.190638 181.08958 24.034388 180.30833Q24.878138 179.51146 26.425013 179.51146Q26.518763 179.51146 26.706263 179.51146L26.706263 184.15208Q27.737513 184.08958 28.284388 183.57396Q28.815638 183.05833 28.815638 182.27708Q28.815638 181.69896 28.518763 181.29271Q28.206263 180.87083 27.550013 180.63646ZM25.846888 184.08958L25.846888 180.62083Q25.050013 180.68333 24.659388 181.01146Q24.050013 181.52708 24.050013 182.32396Q24.050013 183.05833 24.534388 183.55833Q25.018763 184.04271 25.846888 184.08958ZM29.550013 177.90208L23.331263 177.90208L23.331263 176.94896L24.268763 176.94896Q23.612513 176.58958 23.409388 176.29271Q23.190638 175.98021 23.190638 175.60521Q23.190638 175.07396 23.518763 174.52708L24.503138 174.88646Q24.268763 175.27708 24.268763 175.65208Q24.268763 176.01146 24.487513 176.29271Q24.690638 176.55833 25.065638 176.66771Q25.628138 176.85521 26.284388 176.85521L29.550013 176.85521L29.550013 177.90208ZM27.690638 171.30833L27.534388 170.27708Q28.159388 170.18333 28.487513 169.79271Q28.815638 169.38646 28.815638 168.65208Q28.815638 167.93333 28.534388 167.58958Q28.237513 167.23021 27.831263 167.23021Q27.471888 167.23021 27.268763 167.54271Q27.128138 167.76146 26.909388 168.62083Q26.612513 169.77708 26.409388 170.23021Q26.190638 170.66771 25.815638 170.90208Q25.440638 171.13646 24.971888 171.13646Q24.565638 171.13646 24.206263 170.94896Q23.846888 170.76146 23.612513 170.43333Q23.440638 170.18333 23.315638 169.76146Q23.190638 169.33958 23.190638 168.83958Q23.190638 168.12083 23.409388 167.57396Q23.612513 167.01146 23.971888 166.74583Q24.331263 166.48021 24.925013 166.38646L25.065638 167.41771Q24.596888 167.48021 24.331263 167.82396Q24.050013 168.15208 24.050013 168.77708Q24.050013 169.49583 24.300013 169.80833Q24.534388 170.12083 24.862513 170.12083Q25.065638 170.12083 25.221888 169.99583Q25.393763 169.85521 25.503138 169.58958Q25.565638 169.43333 25.768763 168.65208Q26.081263 167.52708 26.268763 167.08958Q26.456263 166.65208 26.815638 166.40208Q27.175013 166.15208 27.721888 166.15208Q28.253138 166.15208 28.721888 166.46458Q29.175013 166.76146 29.440638 167.33958Q29.690638 167.91771 29.690638 168.65208Q29.690638 169.87083 29.190638 170.51146Q28.675013 171.13646 27.690638 171.30833ZM27.550013 159.63646L27.675013 158.54271Q28.628138 158.79271 29.159388 159.49583Q29.690638 160.19896 29.690638 161.27708Q29.690638 162.63646 28.846888 163.44896Q28.003138 164.24583 26.487513 164.24583Q24.925013 164.24583 24.065638 163.43333Q23.190638 162.62083 23.190638 161.33958Q23.190638 160.08958 24.034388 159.30833Q24.878138 158.51146 26.425013 158.51146Q26.518763 158.51146 26.706263 158.51146L26.706263 163.15208Q27.737513 163.08958 28.284388 162.57396Q28.815638 162.05833 28.815638 161.27708Q28.815638 160.69896 28.518763 160.29271Q28.206263 159.87083 27.550013 159.63646ZM25.846888 163.08958L25.846888 159.62083Q25.050013 159.68333 24.659388 160.01146Q24.050013 160.52708 24.050013 161.32396Q24.050013 162.05833 24.534388 162.55833Q25.018763 163.04271 25.846888 163.08958ZM27.268763 152.82396L27.409388 151.79271Q28.471888 151.96458 29.081263 152.66771Q29.690638 153.37083 29.690638 154.38646Q29.690638 155.66771 28.862513 156.44896Q28.018763 157.21458 26.456263 157.21458Q25.456263 157.21458 24.706263 156.88646Q23.940638 156.54271 23.565638 155.87083Q23.190638 155.18333 23.190638 154.37083Q23.190638 153.37083 23.706263 152.73021Q24.206263 152.07396 25.159388 151.88646L25.315638 152.91771Q24.690638 153.05833 24.378138 153.43333Q24.050013 153.80833 24.050013 154.33958Q24.050013 155.13646 24.628138 155.63646Q25.190638 156.13646 26.425013 156.13646Q27.690638 156.13646 28.253138 155.65208Q28.815638 155.16771 28.815638 154.40208Q28.815638 153.77708 28.440638 153.37083Q28.065638 152.94896 27.268763 152.82396ZM26.440638 151.27708Q24.706263 151.27708 23.878138 150.32396Q23.190638 149.52708 23.190638 148.37083Q23.190638 147.08958 24.034388 146.27708Q24.862513 145.44896 26.346888 145.44896Q27.550013 145.44896 28.237513 145.80833Q28.925013 146.16771 29.315638 146.87083Q29.690638 147.55833 29.690638 148.37083Q29.690638 149.66771 28.862513 150.48021Q28.018763 151.27708 26.440638 151.27708ZM26.440638 150.19896Q27.628138 150.19896 28.221888 149.68333Q28.815638 149.15208 28.815638 148.37083Q28.815638 147.57396 28.221888 147.05833Q27.628138 146.54271 26.409388 146.54271Q25.253138 146.54271 24.659388 147.07396Q24.065638 147.58958 24.065638 148.37083Q24.065638 149.15208 24.659388 149.68333Q25.237513 150.19896 26.440638 150.19896ZM29.550013 143.88646L23.331263 143.88646L23.331263 142.94896L24.206263 142.94896Q23.190638 142.26146 23.190638 140.96458Q23.190638 140.40208 23.393763 139.93333Q23.596888 139.44896 23.925013 139.21458Q24.253138 138.98021 24.690638 138.88646Q24.987513 138.83958 25.721888 138.83958L29.550013 138.83958L29.550013 139.88646L25.768763 139.88646Q25.112513 139.88646 24.800013 140.01146Q24.487513 140.13646 24.300013 140.44896Q24.096888 140.76146 24.096888 141.18333Q24.096888 141.85521 24.534388 142.35521Q24.956263 142.83958 26.143763 142.83958L29.550013 142.83958L29.550013 143.88646ZM29.550013 132.85521L28.768763 132.85521Q29.690638 133.44896 29.690638 134.58958Q29.690638 135.33958 29.284388 135.96458Q28.862513 136.58958 28.128138 136.93333Q27.393763 137.27708 26.440638 137.27708Q25.518763 137.27708 24.753138 136.96458Q23.987513 136.65208 23.596888 136.02708Q23.190638 135.40208 23.190638 134.63646Q23.190638 134.07396 23.425013 133.63646Q23.659388 133.19896 24.034388 132.91771L20.956263 132.91771L20.956263 131.87083L29.550013 131.87083L29.550013 132.85521ZM26.440638 136.18333Q27.643763 136.18333 28.237513 135.68333Q28.815638 135.18333 28.815638 134.49583Q28.815638 133.80833 28.253138 133.32396Q27.690638 132.83958 26.534388 132.83958Q25.253138 132.83958 24.659388 133.33958Q24.065638 133.82396 24.065638 134.54271Q24.065638 135.24583 24.643763 135.71458Q25.206263 136.18333 26.440638 136.18333Z" fill-rule="nonzero"/><path fill="#000000" d="M65.05 300.21564Q65.05 298.6844 65.3625 297.7625Q65.675 296.825 66.28438 296.325Q66.90938 295.825 67.84688 295.825Q68.53438 295.825 69.05 296.10626Q69.58125 296.3875 69.925 296.91876Q70.26875 297.4344 70.45625 298.1844Q70.64375 298.9344 70.64375 300.21564Q70.64375 301.73126 70.33125 302.65314Q70.03438 303.575 69.40938 304.09064Q68.8 304.59064 67.84688 304.59064Q66.6125 304.59064 65.89375 303.7Q65.05 302.6375 65.05 300.21564ZM66.12813 300.21564Q66.12813 302.325 66.62813 303.02814Q67.12813 303.73126 67.84688 303.73126Q68.58125 303.73126 69.06563 303.02814Q69.56563 302.325 69.56563 300.21564Q69.56563 298.09064 69.06563 297.40314Q68.58125 296.7 67.83125 296.7Q67.1125 296.7 66.675 297.3094Q66.12813 298.09064 66.12813 300.21564Z" fill-rule="nonzero"/><path fill="#000000" d="M56.596874 243.80104L56.596874 244.81667L50.909374 244.81667Q50.909374 244.44167 51.034374 244.08229Q51.253124 243.50417 51.721874 242.94167Q52.20625 242.37917 53.1125 241.64479Q54.51875 240.48854 55.003124 239.81667Q55.503124 239.14479 55.503124 238.55104Q55.503124 237.92604 55.05 237.50417Q54.596874 237.06667 53.878124 237.06667Q53.1125 237.06667 52.659374 237.51979Q52.20625 237.97292 52.190624 238.78542L51.1125 238.67604Q51.221874 237.45729 51.940624 236.83229Q52.675 236.19167 53.909374 236.19167Q55.14375 236.19167 55.8625 236.87917Q56.58125 237.56667 56.58125 238.58229Q56.58125 239.09792 56.3625 239.59792Q56.159374 240.08229 55.659374 240.64479Q55.175 241.19167 54.05 242.14479Q53.096874 242.94167 52.815624 243.23854Q52.55 243.51979 52.378124 243.80104L56.596874 243.80104ZM58.05 240.58229Q58.05 239.05104 58.3625 238.12917Q58.675 237.19167 59.284374 236.69167Q59.909374 236.19167 60.846874 236.19167Q61.534374 236.19167 62.05 236.47292Q62.58125 236.75417 62.925 237.28542Q63.26875 237.80104 63.45625 238.55104Q63.64375 239.30104 63.64375 240.58229Q63.64375 242.09792 63.33125 243.01979Q63.034374 243.94167 62.409374 244.45729Q61.8 244.95729 60.846874 244.95729Q59.6125 244.95729 58.89375 244.06667Q58.05 243.00417 58.05 240.58229ZM59.128124 240.58229Q59.128124 242.69167 59.628124 243.39479Q60.128124 244.09792 60.846874 244.09792Q61.58125 244.09792 62.065624 243.39479Q62.565624 242.69167 62.565624 240.58229Q62.565624 238.45729 62.065624 237.76979Q61.58125 237.06667 60.83125 237.06667Q60.1125 237.06667 59.675 237.67604Q59.128124 238.45729 59.128124 240.58229ZM65.05 240.58229Q65.05 239.05104 65.3625 238.12917Q65.675 237.19167 66.28438 236.69167Q66.90938 236.19167 67.84688 236.19167Q68.53438 236.19167 69.05 236.47292Q69.58125 236.75417 69.925 237.28542Q70.26875 237.80104 70.45625 238.55104Q70.64375 239.30104 70.64375 240.58229Q70.64375 242.09792 70.33125 243.01979Q70.03438 243.94167 69.40938 244.45729Q68.8 244.95729 67.84688 244.95729Q66.6125 244.95729 65.89375 244.06667Q65.05 243.00417 65.05 240.58229ZM66.12813 240.58229Q66.12813 242.69167 66.62813 243.39479Q67.12813 244.09792 67.84688 244.09792Q68.58125 244.09792 69.06563 243.39479Q69.56563 242.69167 69.56563 240.58229Q69.56563 238.45729 69.06563 237.76979Q68.58125 237.06667 67.83125 237.06667Q67.1125 237.06667 66.675 237.67604Q66.12813 238.45729 66.12813 240.58229Z" fill-rule="nonzero"/><path fill="#000000" d="M54.425 185.18333L54.425 183.12083L50.70625 183.12083L50.70625 182.15208L54.628124 176.58958L55.4875 176.58958L55.4875 182.15208L56.64375 182.15208L56.64375 183.12083L55.4875 183.12083L55.4875 185.18333L54.425 185.18333ZM54.425 182.15208L54.425 178.29271L51.7375 182.15208L54.425 182.15208ZM58.05 180.94896Q58.05 179.41771 58.3625 178.49583Q58.675 177.55833 59.284374 177.05833Q59.909374 176.55833 60.846874 176.55833Q61.534374 176.55833 62.05 176.83958Q62.58125 177.12083 62.925 177.65208Q63.26875 178.16771 63.45625 178.91771Q63.64375 179.66771 63.64375 180.94896Q63.64375 182.46458 63.33125 183.38646Q63.034374 184.30833 62.409374 184.82396Q61.8 185.32396 60.846874 185.32396Q59.6125 185.32396 58.89375 184.43333Q58.05 183.37083 58.05 180.94896ZM59.128124 180.94896Q59.128124 183.05833 59.628124 183.76146Q60.128124 184.46458 60.846874 184.46458Q61.58125 184.46458 62.065624 183.76146Q62.565624 183.05833 62.565624 180.94896Q62.565624 178.82396 62.065624 178.13646Q61.58125 177.43333 60.83125 177.43333Q60.1125 177.43333 59.675 178.04271Q59.128124 178.82396 59.128124 180.94896ZM65.05 180.94896Q65.05 179.41771 65.3625 178.49583Q65.675 177.55833 66.28438 177.05833Q66.90938 176.55833 67.84688 176.55833Q68.53438 176.55833 69.05 176.83958Q69.58125 177.12083 69.925 177.65208Q70.26875 178.16771 70.45625 178.91771Q70.64375 179.66771 70.64375 180.94896Q70.64375 182.46458 70.33125 183.38646Q70.03438 184.30833 69.40938 184.82396Q68.8 185.32396 67.84688 185.32396Q66.6125 185.32396 65.89375 184.43333Q65.05 183.37083 65.05 180.94896ZM66.12813 180.94896Q66.12813 183.05833 66.62813 183.76146Q67.12813 184.46458 67.84688 184.46458Q68.58125 184.46458 69.06563 183.76146Q69.56563 183.05833 69.56563 180.94896Q69.56563 178.82396 69.06563 178.13646Q68.58125 177.43333 67.83125 177.43333Q67.1125 177.43333 66.675 178.04271Q66.12813 178.82396 66.12813 180.94896Z" fill-rule="nonzero"/><path fill="#000000" d="M56.51875 119.06563L55.471874 119.14375Q55.33125 118.51875 55.08125 118.2375Q54.64375 117.78438 54.01875 117.78438Q53.51875 117.78438 53.128124 118.06563Q52.64375 118.44063 52.346874 119.14375Q52.065624 119.83125 52.05 121.1125Q52.425 120.53438 52.971874 120.25313Q53.534374 119.97188 54.14375 119.97188Q55.190624 119.97188 55.925 120.75313Q56.675 121.53438 56.675 122.75313Q56.675 123.56563 56.315624 124.26875Q55.971874 124.95625 55.3625 125.33125Q54.753124 125.69063 53.9875 125.69063Q52.659374 125.69063 51.83125 124.72188Q51.003124 123.75313 51.003124 121.53438Q51.003124 119.03438 51.925 117.90938Q52.721874 116.925 54.08125 116.925Q55.096874 116.925 55.7375 117.50313Q56.39375 118.06563 56.51875 119.06563ZM52.221874 122.76875Q52.221874 123.31563 52.440624 123.81563Q52.675 124.3 53.08125 124.56563Q53.503124 124.83125 53.971874 124.83125Q54.628124 124.83125 55.1125 124.3Q55.596874 123.75313 55.596874 122.83125Q55.596874 121.94063 55.1125 121.425Q54.64375 120.90938 53.925 120.90938Q53.20625 120.90938 52.70625 121.425Q52.221874 121.94063 52.221874 122.76875ZM58.05 121.31563Q58.05 119.78438 58.3625 118.8625Q58.675 117.925 59.284374 117.425Q59.909374 116.925 60.846874 116.925Q61.534374 116.925 62.05 117.20625Q62.58125 117.4875 62.925 118.01875Q63.26875 118.53438 63.45625 119.28438Q63.64375 120.03438 63.64375 121.31563Q63.64375 122.83125 63.33125 123.75313Q63.034374 124.675 62.409374 125.19063Q61.8 125.69063 60.846874 125.69063Q59.6125 125.69063 58.89375 124.8Q58.05 123.7375 58.05 121.31563ZM59.128124 121.31563Q59.128124 123.425 59.628124 124.12813Q60.128124 124.83125 60.846874 124.83125Q61.58125 124.83125 62.065624 124.12813Q62.565624 123.425 62.565624 121.31563Q62.565624 119.19063 62.065624 118.50313Q61.58125 117.8 60.83125 117.8Q60.1125 117.8 59.675 118.40938Q59.128124 119.19063 59.128124 121.31563ZM65.05 121.31563Q65.05 119.78438 65.3625 118.8625Q65.675 117.925 66.28438 117.425Q66.90938 116.925 67.84688 116.925Q68.53438 116.925 69.05 117.20625Q69.58125 117.4875 69.925 118.01875Q70.26875 118.53438 70.45625 119.28438Q70.64375 120.03438 70.64375 121.31563Q70.64375 122.83125 70.33125 123.75313Q70.03438 124.675 69.40938 125.19063Q68.8 125.69063 67.84688 125.69063Q66.6125 125.69063 65.89375 124.8Q65.05 123.7375 65.05 121.31563ZM66.12813 121.31563Q66.12813 123.425 66.62813 124.12813Q67.12813 124.83125 67.84688 124.83125Q68.58125 124.83125 69.06563 124.12813Q69.56563 123.425 69.56563 121.31563Q69.56563 119.19063 69.06563 118.50313Q68.58125 117.8 67.83125 117.8Q67.1125 117.8 66.675 118.40938Q66.12813 119.19063 66.12813 121.31563Z" fill-rule="nonzero"/><path fill="#000000" d="M52.675 61.260414Q52.01875 61.010414 51.690624 60.572914Q51.378124 60.11979 51.378124 59.510414Q51.378124 58.572914 52.05 57.93229Q52.7375 57.291664 53.846874 57.291664Q54.971874 57.291664 55.659374 57.947914Q56.346874 58.604164 56.346874 59.541664Q56.346874 60.135414 56.034374 60.572914Q55.721874 61.010414 55.08125 61.260414Q55.878124 61.510414 56.284374 62.08854Q56.690624 62.666664 56.690624 63.46354Q56.690624 64.55729 55.909374 65.30729Q55.14375 66.05729 53.8625 66.05729Q52.596874 66.05729 51.815624 65.30729Q51.034374 64.55729 51.034374 63.43229Q51.034374 62.58854 51.45625 62.02604Q51.89375 61.46354 52.675 61.260414ZM52.45625 59.46354Q52.45625 60.072914 52.846874 60.46354Q53.253124 60.854164 53.878124 60.854164Q54.4875 60.854164 54.878124 60.479164Q55.26875 60.08854 55.26875 59.52604Q55.26875 58.947914 54.8625 58.55729Q54.45625 58.15104 53.8625 58.15104Q53.253124 58.15104 52.846874 58.541664Q52.45625 58.93229 52.45625 59.46354ZM52.128124 63.43229Q52.128124 63.885414 52.33125 64.30729Q52.55 64.729164 52.971874 64.96354Q53.39375 65.197914 53.878124 65.197914Q54.628124 65.197914 55.1125 64.71354Q55.6125 64.229164 55.6125 63.479164Q55.6125 62.71354 55.1125 62.21354Q54.6125 61.71354 53.846874 61.71354Q53.096874 61.71354 52.6125 62.21354Q52.128124 62.697914 52.128124 63.43229ZM58.05 61.68229Q58.05 60.15104 58.3625 59.229164Q58.675 58.291664 59.284374 57.791664Q59.909374 57.291664 60.846874 57.291664Q61.534374 57.291664 62.05 57.572914Q62.58125 57.854164 62.925 58.385414Q63.26875 58.90104 63.45625 59.65104Q63.64375 60.40104 63.64375 61.68229Q63.64375 63.197914 63.33125 64.11979Q63.034374 65.041664 62.409374 65.55729Q61.8 66.05729 60.846874 66.05729Q59.6125 66.05729 58.89375 65.166664Q58.05 64.104164 58.05 61.68229ZM59.128124 61.68229Q59.128124 63.791664 59.628124 64.49479Q60.128124 65.197914 60.846874 65.197914Q61.58125 65.197914 62.065624 64.49479Q62.565624 63.791664 62.565624 61.68229Q62.565624 59.55729 62.065624 58.86979Q61.58125 58.166664 60.83125 58.166664Q60.1125 58.166664 59.675 58.77604Q59.128124 59.55729 59.128124 61.68229ZM65.05 61.68229Q65.05 60.15104 65.3625 59.229164Q65.675 58.291664 66.28438 57.791664Q66.90938 57.291664 67.84688 57.291664Q68.53438 57.291664 69.05 57.572914Q69.58125 57.854164 69.925 58.385414Q70.26875 58.90104 70.45625 59.65104Q70.64375 60.40104 70.64375 61.68229Q70.64375 63.197914 70.33125 64.11979Q70.03438 65.041664 69.40938 65.55729Q68.8 66.05729 67.84688 66.05729Q66.6125 66.05729 65.89375 65.166664Q65.05 64.104164 65.05 61.68229ZM66.12813 61.68229Q66.12813 63.791664 66.62813 64.49479Q67.12813 65.197914 67.84688 65.197914Q68.58125 65.197914 69.06563 64.49479Q69.56563 63.791664 69.56563 61.68229Q69.56563 59.55729 69.06563 58.86979Q68.58125 58.166664 67.83125 58.166664Q67.1125 58.166664 66.675 58.77604Q66.12813 59.55729 66.12813 61.68229Z" fill-rule="nonzero"/><path fill="#000000" d="M162.85002 316.4344L162.85002 317.45L157.16252 317.45Q157.16252 317.075 157.28752 316.71564Q157.50627 316.1375 157.97502 315.575Q158.4594 315.0125 159.36565 314.27814Q160.7719 313.1219 161.25627 312.45Q161.75627 311.77814 161.75627 311.1844Q161.75627 310.5594 161.30315 310.1375Q160.85002 309.7 160.13127 309.7Q159.36565 309.7 158.91252 310.15314Q158.4594 310.60626 158.44377 311.41876L157.36565 311.3094Q157.47502 310.09064 158.19377 309.46564Q158.92815 308.825 160.16252 308.825Q161.3969 308.825 162.11565 309.5125Q162.8344 310.2 162.8344 311.21564Q162.8344 311.73126 162.61565 312.23126Q162.41252 312.71564 161.91252 313.27814Q161.42815 313.825 160.30315 314.77814Q159.35002 315.575 159.06877 315.8719Q158.80315 316.15314 158.63127 316.4344L162.85002 316.4344ZM164.30315 313.21564Q164.30315 311.6844 164.61565 310.7625Q164.92815 309.825 165.53752 309.325Q166.16252 308.825 167.10002 308.825Q167.78752 308.825 168.30315 309.10626Q168.8344 309.3875 169.17815 309.91876Q169.5219 310.4344 169.7094 311.1844Q169.8969 311.9344 169.8969 313.21564Q169.8969 314.73126 169.5844 315.65314Q169.28752 316.575 168.66252 317.09064Q168.05315 317.59064 167.10002 317.59064Q165.86565 317.59064 165.1469 316.7Q164.30315 315.6375 164.30315 313.21564ZM165.38127 313.21564Q165.38127 315.325 165.88127 316.02814Q166.38127 316.73126 167.10002 316.73126Q167.8344 316.73126 168.31877 316.02814Q168.81877 315.325 168.81877 313.21564Q168.81877 311.09064 168.31877 310.40314Q167.8344 309.7 167.0844 309.7Q166.36565 309.7 165.92815 310.3094Q165.38127 311.09064 165.38127 313.21564Z" fill-rule="nonzero"/><path fill="#000000" d="M251.47095 317.45L251.47095 315.3875L247.7522 315.3875L247.7522 314.41876L251.67407 308.85626L252.53345 308.85626L252.53345 314.41876L253.6897 314.41876L253.6897 315.3875L252.53345 315.3875L252.53345 317.45L251.47095 317.45ZM251.47095 314.41876L251.47095 310.5594L248.78345 314.41876L251.47095 314.41876ZM255.09595 313.21564Q255.09595 311.6844 255.40845 310.7625Q255.72095 309.825 256.33032 309.325Q256.95532 308.825 257.89282 308.825Q258.58032 308.825 259.09595 309.10626Q259.6272 309.3875 259.97095 309.91876Q260.3147 310.4344 260.5022 311.1844Q260.6897 311.9344 260.6897 313.21564Q260.6897 314.73126 260.3772 315.65314Q260.08032 316.575 259.45532 317.09064Q258.84595 317.59064 257.89282 317.59064Q256.65845 317.59064 255.9397 316.7Q255.09595 315.6375 255.09595 313.21564ZM256.17407 313.21564Q256.17407 315.325 256.67407 316.02814Q257.17407 316.73126 257.89282 316.73126Q258.6272 316.73126 259.11157 316.02814Q259.61157 315.325 259.61157 313.21564Q259.61157 311.09064 259.11157 310.40314Q258.6272 309.7 257.8772 309.7Q257.15845 309.7 256.72095 310.3094Q256.17407 311.09064 256.17407 313.21564Z" fill-rule="nonzero"/><path fill="#000000" d="M344.35748 310.96564L343.3106 311.04376Q343.16998 310.41876 342.91998 310.1375Q342.48248 309.6844 341.85748 309.6844Q341.35748 309.6844 340.96686 309.96564Q340.48248 310.34064 340.1856 311.04376Q339.90436 311.73126 339.88873 313.0125Q340.26373 312.4344 340.8106 312.15314Q341.3731 311.8719 341.98248 311.8719Q343.02936 311.8719 343.76373 312.65314Q344.51373 313.4344 344.51373 314.65314Q344.51373 315.46564 344.15436 316.16876Q343.8106 316.85626 343.20123 317.23126Q342.59186 317.59064 341.82623 317.59064Q340.4981 317.59064 339.66998 316.6219Q338.84186 315.65314 338.84186 313.4344Q338.84186 310.9344 339.76373 309.8094Q340.5606 308.825 341.91998 308.825Q342.9356 308.825 343.57623 309.40314Q344.23248 309.96564 344.35748 310.96564ZM340.0606 314.66876Q340.0606 315.21564 340.27936 315.71564Q340.51373 316.2 340.91998 316.46564Q341.34186 316.73126 341.8106 316.73126Q342.46686 316.73126 342.95123 316.2Q343.4356 315.65314 343.4356 314.73126Q343.4356 313.84064 342.95123 313.325Q342.48248 312.8094 341.76373 312.8094Q341.04498 312.8094 340.54498 313.325Q340.0606 313.84064 340.0606 314.66876ZM345.88873 313.21564Q345.88873 311.6844 346.20123 310.7625Q346.51373 309.825 347.1231 309.325Q347.7481 308.825 348.6856 308.825Q349.3731 308.825 349.88873 309.10626Q350.41998 309.3875 350.76373 309.91876Q351.10748 310.4344 351.29498 311.1844Q351.48248 311.9344 351.48248 313.21564Q351.48248 314.73126 351.16998 315.65314Q350.8731 316.575 350.2481 317.09064Q349.63873 317.59064 348.6856 317.59064Q347.45123 317.59064 346.73248 316.7Q345.88873 315.6375 345.88873 313.21564ZM346.96686 313.21564Q346.96686 315.325 347.46686 316.02814Q347.96686 316.73126 348.6856 316.73126Q349.41998 316.73126 349.90436 316.02814Q350.40436 315.325 350.40436 313.21564Q350.40436 311.09064 349.90436 310.40314Q349.41998 309.7 348.66998 309.7Q347.95123 309.7 347.51373 310.3094Q346.96686 311.09064 346.96686 313.21564Z" fill-rule="nonzero"/><path fill="#000000" d="M431.30652 312.79376Q430.65027 312.54376 430.32214 312.10626Q430.00964 311.65314 430.00964 311.04376Q430.00964 310.10626 430.68152 309.46564Q431.36902 308.825 432.4784 308.825Q433.6034 308.825 434.2909 309.48126Q434.9784 310.1375 434.9784 311.075Q434.9784 311.66876 434.6659 312.10626Q434.3534 312.54376 433.71277 312.79376Q434.50964 313.04376 434.9159 313.6219Q435.32214 314.2 435.32214 314.9969Q435.32214 316.09064 434.5409 316.84064Q433.77527 317.59064 432.49402 317.59064Q431.2284 317.59064 430.44714 316.84064Q429.6659 316.09064 429.6659 314.96564Q429.6659 314.1219 430.08777 313.5594Q430.52527 312.9969 431.30652 312.79376ZM431.08777 310.9969Q431.08777 311.60626 431.4784 311.9969Q431.88464 312.3875 432.50964 312.3875Q433.11902 312.3875 433.50964 312.0125Q433.90027 311.6219 433.90027 311.0594Q433.90027 310.48126 433.49402 310.09064Q433.08777 309.6844 432.49402 309.6844Q431.88464 309.6844 431.4784 310.075Q431.08777 310.46564 431.08777 310.9969ZM430.75964 314.96564Q430.75964 315.41876 430.96277 315.84064Q431.18152 316.2625 431.6034 316.4969Q432.02527 316.73126 432.50964 316.73126Q433.25964 316.73126 433.74402 316.2469Q434.24402 315.7625 434.24402 315.0125Q434.24402 314.2469 433.74402 313.7469Q433.24402 313.2469 432.4784 313.2469Q431.7284 313.2469 431.24402 313.7469Q430.75964 314.23126 430.75964 314.96564ZM436.68152 313.21564Q436.68152 311.6844 436.99402 310.7625Q437.30652 309.825 437.9159 309.325Q438.5409 308.825 439.4784 308.825Q440.1659 308.825 440.68152 309.10626Q441.21277 309.3875 441.55652 309.91876Q441.90027 310.4344 442.08777 311.1844Q442.27527 311.9344 442.27527 313.21564Q442.27527 314.73126 441.96277 315.65314Q441.6659 316.575 441.0409 317.09064Q440.43152 317.59064 439.4784 317.59064Q438.24402 317.59064 437.52527 316.7Q436.68152 315.6375 436.68152 313.21564ZM437.75964 313.21564Q437.75964 315.325 438.25964 316.02814Q438.75964 316.73126 439.4784 316.73126Q440.21277 316.73126 440.69714 316.02814Q441.19714 315.325 441.19714 313.21564Q441.19714 311.09064 440.69714 310.40314Q440.21277 309.7 439.46277 309.7Q438.74402 309.7 438.30652 310.3094Q437.75964 311.09064 437.75964 313.21564Z" fill-rule="nonzero"/><path fill="#000000" d="M520.94305 317.45L519.8962 317.45L519.8962 310.73126Q519.50555 311.09064 518.88055 311.46564Q518.2712 311.825 517.7868 311.9969L517.7868 310.98126Q518.6618 310.5594 519.31805 309.98126Q519.9899 309.3875 520.2712 308.825L520.94305 308.825L520.94305 317.45ZM523.9743 313.21564Q523.9743 311.6844 524.2868 310.7625Q524.5993 309.825 525.2087 309.325Q525.8337 308.825 526.7712 308.825Q527.4587 308.825 527.9743 309.10626Q528.50555 309.3875 528.8493 309.91876Q529.19305 310.4344 529.38055 311.1844Q529.56805 311.9344 529.56805 313.21564Q529.56805 314.73126 529.25555 315.65314Q528.9587 316.575 528.3337 317.09064Q527.7243 317.59064 526.7712 317.59064Q525.5368 317.59064 524.81805 316.7Q523.9743 315.6375 523.9743 313.21564ZM525.0524 313.21564Q525.0524 315.325 525.5524 316.02814Q526.0524 316.73126 526.7712 316.73126Q527.50555 316.73126 527.9899 316.02814Q528.4899 315.325 528.4899 313.21564Q528.4899 311.09064 527.9899 310.40314Q527.50555 309.7 526.75555 309.7Q526.0368 309.7 525.5993 310.3094Q525.0524 311.09064 525.0524 313.21564ZM530.9743 313.21564Q530.9743 311.6844 531.2868 310.7625Q531.5993 309.825 532.2087 309.325Q532.8337 308.825 533.7712 308.825Q534.4587 308.825 534.9743 309.10626Q535.50555 309.3875 535.8493 309.91876Q536.19305 310.4344 536.38055 311.1844Q536.56805 311.9344 536.56805 313.21564Q536.56805 314.73126 536.25555 315.65314Q535.9587 316.575 535.3337 317.09064Q534.7243 317.59064 533.7712 317.59064Q532.5368 317.59064 531.81805 316.7Q530.9743 315.6375 530.9743 313.21564ZM532.0524 313.21564Q532.0524 315.325 532.5524 316.02814Q533.0524 316.73126 533.7712 316.73126Q534.50555 316.73126 534.9899 316.02814Q535.4899 315.325 535.4899 313.21564Q535.4899 311.09064 534.9899 310.40314Q534.50555 309.7 533.75555 309.7Q533.0368 309.7 532.5993 310.3094Q532.0524 311.09064 532.0524 313.21564Z" fill-rule="nonzero"/><path fill="#757575" d="M20.096874 37.55L20.096874 23.2375L25.4875 23.2375Q26.925 23.2375 27.675 23.3625Q28.721874 23.55 29.440624 24.05Q30.159374 24.534374 30.58125 25.425Q31.01875 26.315624 31.01875 27.378124Q31.01875 29.20625 29.846874 30.471874Q28.690624 31.721874 25.659374 31.721874L21.9875 31.721874L21.9875 37.55L20.096874 37.55ZM21.9875 30.034374L25.690624 30.034374Q27.51875 30.034374 28.284374 29.3625Q29.065624 28.675 29.065624 27.425Q29.065624 26.534374 28.6125 25.89375Q28.159374 25.253124 27.425 25.05Q26.940624 24.925 25.64375 24.925L21.9875 24.925L21.9875 30.034374ZM32.846874 37.55L32.846874 27.175L34.425 27.175L34.425 28.753124Q35.034374 27.64375 35.55 27.3Q36.065624 26.940624 36.675 26.940624Q37.565624 26.940624 38.4875 27.503124L37.878124 29.14375Q37.2375 28.753124 36.596874 28.753124Q36.01875 28.753124 35.55 29.1125Q35.096874 29.45625 34.89375 30.065624Q34.6125 31.003124 34.6125 32.1125L34.6125 37.55L32.846874 37.55ZM39.221874 32.3625Q39.221874 29.4875 40.815624 28.096874Q42.159374 26.940624 44.08125 26.940624Q46.221874 26.940624 47.565624 28.346874Q48.925 29.753124 48.925 32.221874Q48.925 34.221874 48.33125 35.378124Q47.7375 36.51875 46.58125 37.159374Q45.440624 37.784374 44.08125 37.784374Q41.89375 37.784374 40.55 36.39375Q39.221874 34.9875 39.221874 32.3625ZM41.01875 32.3625Q41.01875 34.3625 41.878124 35.346874Q42.753124 36.33125 44.08125 36.33125Q45.39375 36.33125 46.253124 35.346874Q47.128124 34.346874 47.128124 32.3Q47.128124 30.378124 46.253124 29.39375Q45.378124 28.39375 44.08125 28.39375Q42.753124 28.39375 41.878124 29.39375Q41.01875 30.378124 41.01875 32.3625ZM57.64375 33.753124L59.3625 33.971874Q59.08125 35.76875 57.909374 36.784374Q56.753124 37.784374 55.05 37.784374Q52.925 37.784374 51.628124 36.39375Q50.33125 35.003124 50.33125 32.409374Q50.33125 30.721874 50.878124 29.471874Q51.440624 28.20625 52.58125 27.58125Q53.721874 26.940624 55.065624 26.940624Q56.753124 26.940624 57.815624 27.8Q58.89375 28.659374 59.20625 30.221874L57.4875 30.4875Q57.253124 29.440624 56.628124 28.925Q56.003124 28.39375 55.128124 28.39375Q53.8 28.39375 52.971874 29.346874Q52.14375 30.3 52.14375 32.346874Q52.14375 34.440624 52.940624 35.39375Q53.7375 36.33125 55.034374 36.33125Q56.065624 36.33125 56.753124 35.70625Q57.45625 35.065624 57.64375 33.753124ZM67.97188 34.20625L69.78438 34.440624Q69.3625 36.01875 68.19063 36.909374Q67.03438 37.784374 65.22188 37.784374Q62.95625 37.784374 61.6125 36.39375Q60.284374 34.9875 60.284374 32.45625Q60.284374 29.83125 61.628124 28.39375Q62.971874 26.940624 65.12813 26.940624Q67.20625 26.940624 68.51875 28.3625Q69.84688 29.76875 69.84688 32.346874Q69.84688 32.503124 69.83125 32.815624L62.096874 32.815624Q62.190624 34.51875 63.065624 35.425Q63.940624 36.33125 65.2375 36.33125Q66.20625 36.33125 66.87813 35.83125Q67.56563 35.315624 67.97188 34.20625ZM62.190624 31.3625L67.9875 31.3625Q67.87813 30.065624 67.33125 29.409374Q66.4875 28.39375 65.14375 28.39375Q63.940624 28.39375 63.1125 29.20625Q62.284374 30.003124 62.190624 31.3625ZM71.15938 34.45625L72.90938 34.175Q73.05 35.221874 73.72188 35.784374Q74.39375 36.33125 75.59688 36.33125Q76.8 36.33125 77.37813 35.846874Q77.97188 35.346874 77.97188 34.690624Q77.97188 34.096874 77.45625 33.753124Q77.09688 33.51875 75.65938 33.159374Q73.72188 32.659374 72.97188 32.315624Q72.2375 31.95625 71.84688 31.33125Q71.45625 30.690624 71.45625 29.925Q71.45625 29.2375 71.76875 28.64375Q72.09688 28.05 72.64375 27.659374Q73.05 27.3625 73.75313 27.159374Q74.47188 26.940624 75.28438 26.940624Q76.50313 26.940624 77.425 27.3Q78.34688 27.64375 78.78438 28.253124Q79.22188 28.846874 79.39375 29.846874L77.675 30.08125Q77.55 29.284374 76.9875 28.846874Q76.425 28.39375 75.40938 28.39375Q74.19063 28.39375 73.675 28.8Q73.15938 29.190624 73.15938 29.721874Q73.15938 30.065624 73.37813 30.346874Q73.58125 30.628124 74.05 30.815624Q74.31563 30.909374 75.59688 31.253124Q77.47188 31.753124 78.20625 32.08125Q78.94063 32.39375 79.3625 33.003124Q79.78438 33.596874 79.78438 34.503124Q79.78438 35.378124 79.26875 36.159374Q78.75313 36.940624 77.78438 37.3625Q76.81563 37.784374 75.59688 37.784374Q73.58125 37.784374 72.51875 36.940624Q71.45625 36.096874 71.15938 34.45625ZM81.15938 34.45625L82.90938 34.175Q83.05 35.221874 83.72188 35.784374Q84.39375 36.33125 85.59688 36.33125Q86.8 36.33125 87.37813 35.846874Q87.97188 35.346874 87.97188 34.690624Q87.97188 34.096874 87.45625 33.753124Q87.09688 33.51875 85.65938 33.159374Q83.72188 32.659374 82.97188 32.315624Q82.2375 31.95625 81.84688 31.33125Q81.45625 30.690624 81.45625 29.925Q81.45625 29.2375 81.76875 28.64375Q82.09688 28.05 82.64375 27.659374Q83.05 27.3625 83.75313 27.159374Q84.47188 26.940624 85.28438 26.940624Q86.50313 26.940624 87.425 27.3Q88.34688 27.64375 88.78438 28.253124Q89.22188 28.846874 89.39375 29.846874L87.675 30.08125Q87.55 29.284374 86.9875 28.846874Q86.425 28.39375 85.40938 28.39375Q84.19063 28.39375 83.675 28.8Q83.15938 29.190624 83.15938 29.721874Q83.15938 30.065624 83.37813 30.346874Q83.58125 30.628124 84.05 30.815624Q84.31563 30.909374 85.59688 31.253124Q87.47188 31.753124 88.20625 32.08125Q88.94063 32.39375 89.3625 33.003124Q89.78438 33.596874 89.78438 34.503124Q89.78438 35.378124 89.26875 36.159374Q88.75313 36.940624 87.78438 37.3625Q86.81563 37.784374 85.59688 37.784374Q83.58125 37.784374 82.51875 36.940624Q81.45625 36.096874 81.15938 34.45625ZM97.8625 41.51875L97.8625 27.175L99.47188 27.175L99.47188 28.51875Q100.03438 27.7375 100.7375 27.346874Q101.45625 26.940624 102.47188 26.940624Q103.8 26.940624 104.81563 27.628124Q105.83125 28.315624 106.34688 29.565624Q106.87813 30.8 106.87813 32.284374Q106.87813 33.878124 106.3 35.159374Q105.7375 36.425 104.64375 37.1125Q103.55 37.784374 102.34688 37.784374Q101.47188 37.784374 100.76875 37.409374Q100.08125 37.034374 99.62813 36.471874L99.62813 41.51875L97.8625 41.51875ZM99.45625 32.425Q99.45625 34.425 100.26875 35.378124Q101.08125 36.33125 102.2375 36.33125Q103.40938 36.33125 104.2375 35.346874Q105.08125 34.3625 105.08125 32.26875Q105.08125 30.3 104.25313 29.315624Q103.44063 28.315624 102.31563 28.315624Q101.19063 28.315624 100.31563 29.378124Q99.45625 30.425 99.45625 32.425ZM115.97188 34.20625L117.78438 34.440624Q117.3625 36.01875 116.19063 36.909374Q115.03438 37.784374 113.22188 37.784374Q110.95625 37.784374 109.6125 36.39375Q108.28438 34.9875 108.28438 32.45625Q108.28438 29.83125 109.62813 28.39375Q110.97188 26.940624 113.12813 26.940624Q115.20625 26.940624 116.51875 28.3625Q117.84688 29.76875 117.84688 32.346874Q117.84688 32.503124 117.83125 32.815624L110.09688 32.815624Q110.19063 34.51875 111.06563 35.425Q111.94063 36.33125 113.2375 36.33125Q114.20625 36.33125 114.87813 35.83125Q115.56563 35.315624 115.97188 34.20625ZM110.19063 31.3625L115.9875 31.3625Q115.87813 30.065624 115.33125 29.409374Q114.4875 28.39375 113.14375 28.39375Q111.94063 28.39375 111.1125 29.20625Q110.28438 30.003124 110.19063 31.3625ZM119.84688 37.55L119.84688 27.175L121.425 27.175L121.425 28.753124Q122.03438 27.64375 122.55 27.3Q123.06563 26.940624 123.675 26.940624Q124.56563 26.940624 125.4875 27.503124L124.87813 29.14375Q124.2375 28.753124 123.59688 28.753124Q123.01875 28.753124 122.55 29.1125Q122.09688 29.45625 121.89375 30.065624Q121.6125 31.003124 121.6125 32.1125L121.6125 37.55L119.84688 37.55ZM133.12813 37.55L133.12813 23.2375L139.47188 23.2375Q141.37813 23.2375 142.37813 23.628124Q143.37813 24.003124 143.97188 24.9875Q144.56563 25.95625 144.56563 27.14375Q144.56563 28.659374 143.58125 29.70625Q142.59688 30.753124 140.53438 31.034374Q141.28438 31.39375 141.675 31.753124Q142.50313 32.503124 143.25313 33.659374L145.7375 37.55L143.3625 37.55L141.45625 34.565624Q140.62813 33.284374 140.09688 32.596874Q139.56563 31.909374 139.12813 31.64375Q138.70625 31.3625 138.26875 31.253124Q137.94063 31.190624 137.22188 31.190624L135.01875 31.190624L135.01875 37.55L133.12813 37.55ZM135.01875 29.55L139.09688 29.55Q140.39375 29.55 141.1125 29.284374Q141.84688 29.01875 142.22188 28.425Q142.6125 27.83125 142.6125 27.14375Q142.6125 26.128124 141.87813 25.471874Q141.14375 24.815624 139.55 24.815624L135.01875 24.815624L135.01875 29.55ZM153.97188 34.20625L155.78438 34.440624Q155.3625 36.01875 154.19063 36.909374Q153.03438 37.784374 151.22188 37.784374Q148.95625 37.784374 147.6125 36.39375Q146.28438 34.9875 146.28438 32.45625Q146.28438 29.83125 147.62813 28.39375Q148.97188 26.940624 151.12813 26.940624Q153.20625 26.940624 154.51875 28.3625Q155.84688 29.76875 155.84688 32.346874Q155.84688 32.503124 155.83125 32.815624L148.09688 32.815624Q148.19063 34.51875 149.06563 35.425Q149.94063 36.33125 151.2375 36.33125Q152.20625 36.33125 152.87813 35.83125Q153.56563 35.315624 153.97188 34.20625ZM148.19063 31.3625L153.9875 31.3625Q153.87813 30.065624 153.33125 29.409374Q152.4875 28.39375 151.14375 28.39375Q149.94063 28.39375 149.1125 29.20625Q148.28438 30.003124 148.19063 31.3625ZM164.4875 41.51875L164.4875 36.440624Q164.06563 37.01875 163.33125 37.409374Q162.59688 37.784374 161.76875 37.784374Q159.925 37.784374 158.58125 36.315624Q157.25313 34.83125 157.25313 32.26875Q157.25313 30.70625 157.78438 29.471874Q158.33125 28.221874 159.3625 27.58125Q160.39375 26.940624 161.62813 26.940624Q163.55 26.940624 164.65938 28.565624L164.65938 27.175L166.2375 27.175L166.2375 41.51875L164.4875 41.51875ZM159.06563 32.33125Q159.06563 34.33125 159.89375 35.33125Q160.7375 36.33125 161.90938 36.33125Q163.03438 36.33125 163.84688 35.39375Q164.65938 34.440624 164.65938 32.4875Q164.65938 30.425 163.8 29.378124Q162.94063 28.33125 161.8 28.33125Q160.65938 28.33125 159.8625 29.3Q159.06563 30.26875 159.06563 32.33125ZM175.65938 37.55L175.65938 36.01875Q174.45625 37.784374 172.37813 37.784374Q171.45625 37.784374 170.65938 37.440624Q169.8625 37.08125 169.47188 36.55Q169.09688 36.01875 168.94063 35.2375Q168.83125 34.721874 168.83125 33.596874L168.83125 27.175L170.58125 27.175L170.58125 32.925Q170.58125 34.3 170.69063 34.784374Q170.8625 35.471874 171.39375 35.878124Q171.94063 36.26875 172.72188 36.26875Q173.51875 36.26875 174.20625 35.8625Q174.90938 35.45625 175.19063 34.76875Q175.4875 34.065624 175.4875 32.7375L175.4875 27.175L177.2375 27.175L177.2375 37.55L175.65938 37.55ZM185.97188 34.20625L187.78438 34.440624Q187.3625 36.01875 186.19063 36.909374Q185.03438 37.784374 183.22188 37.784374Q180.95625 37.784374 179.6125 36.39375Q178.28438 34.9875 178.28438 32.45625Q178.28438 29.83125 179.62813 28.39375Q180.97188 26.940624 183.12813 26.940624Q185.20625 26.940624 186.51875 28.3625Q187.84688 29.76875 187.84688 32.346874Q187.84688 32.503124 187.83125 32.815624L180.09688 32.815624Q180.19063 34.51875 181.06563 35.425Q181.94063 36.33125 183.2375 36.33125Q184.20625 36.33125 184.87813 35.83125Q185.56563 35.315624 185.97188 34.20625ZM180.19063 31.3625L185.9875 31.3625Q185.87813 30.065624 185.33125 29.409374Q184.4875 28.39375 183.14375 28.39375Q181.94063 28.39375 181.1125 29.20625Q180.28438 30.003124 180.19063 31.3625ZM189.15938 34.45625L190.90938 34.175Q191.05 35.221874 191.72188 35.784374Q192.39375 36.33125 193.59688 36.33125Q194.8 36.33125 195.37813 35.846874Q195.97188 35.346874 195.97188 34.690624Q195.97188 34.096874 195.45625 33.753124Q195.09688 33.51875 193.65938 33.159374Q191.72188 32.659374 190.97188 32.315624Q190.2375 31.95625 189.84688 31.33125Q189.45625 30.690624 189.45625 29.925Q189.45625 29.2375 189.76875 28.64375Q190.09688 28.05 190.64375 27.659374Q191.05 27.3625 191.75313 27.159374Q192.47188 26.940624 193.28438 26.940624Q194.50313 26.940624 195.425 27.3Q196.34688 27.64375 196.78438 28.253124Q197.22188 28.846874 197.39375 29.846874L195.675 30.08125Q195.55 29.284374 194.9875 28.846874Q194.425 28.39375 193.40938 28.39375Q192.19063 28.39375 191.675 28.8Q191.15938 29.190624 191.15938 29.721874Q191.15938 30.065624 191.37813 30.346874Q191.58125 30.628124 192.05 30.815624Q192.31563 30.909374 193.59688 31.253124Q195.47188 31.753124 196.20625 32.08125Q196.94063 32.39375 197.3625 33.003124Q197.78438 33.596874 197.78438 34.503124Q197.78438 35.378124 197.26875 36.159374Q196.75313 36.940624 195.78438 37.3625Q194.81563 37.784374 193.59688 37.784374Q191.58125 37.784374 190.51875 36.940624Q189.45625 36.096874 189.15938 34.45625ZM203.70625 35.971874L203.95625 37.534374Q203.22188 37.690624 202.62813 37.690624Q201.675 37.690624 201.14375 37.39375Q200.62813 37.08125 200.40938 36.596874Q200.19063 36.096874 200.19063 34.51875L200.19063 28.55L198.90938 28.55L198.90938 27.175L200.19063 27.175L200.19063 24.6125L201.94063 23.55L201.94063 27.175L203.70625 27.175L203.70625 28.55L201.94063 28.55L201.94063 34.6125Q201.94063 35.3625 202.03438 35.58125Q202.12813 35.784374 202.33125 35.925Q202.55 36.05 202.94063 36.05Q203.22188 36.05 203.70625 35.971874ZM215.22188 41.753124Q213.76875 39.925 212.76875 37.471874Q211.76875 35.003124 211.76875 32.3625Q211.76875 30.034374 212.51875 27.909374Q213.39375 25.440624 215.22188 22.9875L216.4875 22.9875Q215.3 25.01875 214.925 25.89375Q214.33125 27.2375 213.9875 28.70625Q213.56563 30.534374 213.56563 32.378124Q213.56563 37.065624 216.4875 41.753124L215.22188 41.753124ZM225.00313 37.55L223.2375 37.55L223.2375 26.346874Q222.6125 26.95625 221.58125 27.565624Q220.55 28.159374 219.72188 28.471874L219.72188 26.76875Q221.20625 26.08125 222.3 25.096874Q223.40938 24.096874 223.8625 23.175L225.00313 23.175L225.00313 37.55ZM229.55 38.409374L231.25313 38.659374Q231.3625 39.45625 231.84688 39.815624Q232.50313 40.3 233.64375 40.3Q234.8625 40.3 235.51875 39.815624Q236.19063 39.33125 236.425 38.45625Q236.56563 37.909374 236.55 36.190624Q235.39375 37.55 233.675 37.55Q231.53438 37.55 230.3625 36.003124Q229.19063 34.45625 229.19063 32.3Q229.19063 30.815624 229.72188 29.565624Q230.26875 28.315624 231.28438 27.628124Q232.31563 26.940624 233.69063 26.940624Q235.51875 26.940624 236.72188 28.425L236.72188 27.175L238.33125 27.175L238.33125 36.14375Q238.33125 38.565624 237.83125 39.565624Q237.34688 40.58125 236.26875 41.159374Q235.20625 41.753124 233.64375 41.753124Q231.8 41.753124 230.64375 40.925Q229.50313 40.096874 229.55 38.409374ZM231.00313 32.175Q231.00313 34.221874 231.81563 35.159374Q232.62813 36.096874 233.84688 36.096874Q235.05 36.096874 235.8625 35.159374Q236.69063 34.221874 236.69063 32.2375Q236.69063 30.33125 235.84688 29.3625Q235.00313 28.39375 233.81563 28.39375Q232.64375 28.39375 231.81563 29.346874Q231.00313 30.3 231.00313 32.175ZM242.4875 37.55L240.8625 37.55L240.8625 23.2375L242.6125 23.2375L242.6125 28.346874Q243.7375 26.940624 245.45625 26.940624Q246.40938 26.940624 247.26875 27.33125Q248.12813 27.721874 248.675 28.425Q249.22188 29.1125 249.53438 30.096874Q249.84688 31.08125 249.84688 32.20625Q249.84688 34.878124 248.53438 36.33125Q247.22188 37.784374 245.37813 37.784374Q243.53438 37.784374 242.4875 36.253124L242.4875 37.55ZM242.47188 32.284374Q242.47188 34.14375 242.97188 34.9875Q243.81563 36.33125 245.22188 36.33125Q246.37813 36.33125 247.20625 35.33125Q248.05 34.33125 248.05 32.346874Q248.05 30.315624 247.2375 29.3625Q246.44063 28.39375 245.3 28.39375Q244.14375 28.39375 243.3 29.39375Q242.47188 30.39375 242.47188 32.284374ZM257.8625 37.55L257.8625 27.175L259.4406 27.175L259.4406 28.628124Q259.925 27.878124 260.7375 27.409374Q261.55 26.940624 262.58124 26.940624Q263.7375 26.940624 264.47186 27.425Q265.20624 27.89375 265.51874 28.753124Q266.7531 26.940624 268.72186 26.940624Q270.26874 26.940624 271.09686 27.8Q271.925 28.659374 271.925 30.425L271.925 37.55L270.175 37.55L270.175 31.01875Q270.175 29.95625 270.0031 29.503124Q269.83124 29.034374 269.3781 28.753124Q268.9406 28.471874 268.33124 28.471874Q267.2375 28.471874 266.5031 29.20625Q265.78436 29.925 265.78436 31.51875L265.78436 37.55L264.03436 37.55L264.03436 30.815624Q264.03436 29.64375 263.59686 29.065624Q263.175 28.471874 262.1906 28.471874Q261.45624 28.471874 260.8156 28.8625Q260.1906 29.253124 259.90936 30.003124Q259.6281 30.753124 259.6281 32.175L259.6281 37.55L257.8625 37.55ZM280.97186 34.20625L282.78436 34.440624Q282.3625 36.01875 281.1906 36.909374Q280.03436 37.784374 278.22186 37.784374Q275.95624 37.784374 274.6125 36.39375Q273.28436 34.9875 273.28436 32.45625Q273.28436 29.83125 274.6281 28.39375Q275.97186 26.940624 278.1281 26.940624Q280.20624 26.940624 281.51874 28.3625Q282.84686 29.76875 282.84686 32.346874Q282.84686 32.503124 282.83124 32.815624L275.09686 32.815624Q275.1906 34.51875 276.0656 35.425Q276.9406 36.33125 278.2375 36.33125Q279.20624 36.33125 279.8781 35.83125Q280.5656 35.315624 280.97186 34.20625ZM275.1906 31.3625L280.9875 31.3625Q280.8781 30.065624 280.33124 29.409374Q279.4875 28.39375 278.14374 28.39375Q276.9406 28.39375 276.1125 29.20625Q275.28436 30.003124 275.1906 31.3625ZM284.8625 37.55L284.8625 27.175L286.4406 27.175L286.4406 28.628124Q286.925 27.878124 287.7375 27.409374Q288.55 26.940624 289.58124 26.940624Q290.7375 26.940624 291.47186 27.425Q292.20624 27.89375 292.51874 28.753124Q293.7531 26.940624 295.72186 26.940624Q297.26874 26.940624 298.09686 27.8Q298.925 28.659374 298.925 30.425L298.925 37.55L297.175 37.55L297.175 31.01875Q297.175 29.95625 297.0031 29.503124Q296.83124 29.034374 296.3781 28.753124Q295.9406 28.471874 295.33124 28.471874Q294.2375 28.471874 293.5031 29.20625Q292.78436 29.925 292.78436 31.51875L292.78436 37.55L291.03436 37.55L291.03436 30.815624Q291.03436 29.64375 290.59686 29.065624Q290.175 28.471874 289.1906 28.471874Q288.45624 28.471874 287.8156 28.8625Q287.1906 29.253124 286.90936 30.003124Q286.6281 30.753124 286.6281 32.175L286.6281 37.55L284.8625 37.55ZM306.83124 37.55L306.83124 23.2375L308.58124 23.2375L308.58124 37.55L306.83124 37.55ZM310.8781 25.253124L310.8781 23.2375L312.64374 23.2375L312.64374 25.253124L310.8781 25.253124ZM310.8781 37.55L310.8781 27.175L312.64374 27.175L312.64374 37.55L310.8781 37.55ZM314.8625 37.55L314.8625 27.175L316.4406 27.175L316.4406 28.628124Q316.925 27.878124 317.7375 27.409374Q318.55 26.940624 319.58124 26.940624Q320.7375 26.940624 321.47186 27.425Q322.20624 27.89375 322.51874 28.753124Q323.7531 26.940624 325.72186 26.940624Q327.26874 26.940624 328.09686 27.8Q328.925 28.659374 328.925 30.425L328.925 37.55L327.175 37.55L327.175 31.01875Q327.175 29.95625 327.0031 29.503124Q326.83124 29.034374 326.3781 28.753124Q325.9406 28.471874 325.33124 28.471874Q324.2375 28.471874 323.5031 29.20625Q322.78436 29.925 322.78436 31.51875L322.78436 37.55L321.03436 37.55L321.03436 30.815624Q321.03436 29.64375 320.59686 29.065624Q320.175 28.471874 319.1906 28.471874Q318.45624 28.471874 317.8156 28.8625Q317.1906 29.253124 316.90936 30.003124Q316.6281 30.753124 316.6281 32.175L316.6281 37.55L314.8625 37.55ZM330.8781 25.253124L330.8781 23.2375L332.64374 23.2375L332.64374 25.253124L330.8781 25.253124ZM330.8781 37.55L330.8781 27.175L332.64374 27.175L332.64374 37.55L330.8781 37.55ZM338.70624 35.971874L338.95624 37.534374Q338.22186 37.690624 337.6281 37.690624Q336.675 37.690624 336.14374 37.39375Q335.6281 37.08125 335.40936 36.596874Q335.1906 36.096874 335.1906 34.51875L335.1906 28.55L333.90936 28.55L333.90936 27.175L335.1906 27.175L335.1906 24.6125L336.9406 23.55L336.9406 27.175L338.70624 27.175L338.70624 28.55L336.9406 28.55L336.9406 34.6125Q336.9406 35.3625 337.03436 35.58125Q337.1281 35.784374 337.33124 35.925Q337.55 36.05 337.9406 36.05Q338.22186 36.05 338.70624 35.971874ZM342.01874 41.753124L340.76874 41.753124Q343.675 37.065624 343.675 32.378124Q343.675 30.534374 343.26874 28.7375Q342.925 27.26875 342.33124 25.925Q341.95624 25.034374 340.76874 22.9875L342.01874 22.9875Q343.8625 25.440624 344.7375 27.909374Q345.4875 30.034374 345.4875 32.3625Q345.4875 35.003124 344.47186 37.471874Q343.47186 39.925 342.01874 41.753124Z" fill-rule="nonzero"/></svg>