<svg version="1.1" viewBox="0.0 0.0 600.0 371.0" fill="none" stroke="none" stroke-linecap="square" stroke-miterlimit="10" width="600" height="371" xmlns:xlink="http://www.w3.org/1999/xlink" xmlns="http://www.w3.org/2000/svg"><path fill="#ffffff" d="M0 0L600.0 0L600.0 371.0L0 371.0L0 0Z" fill-rule="nonzero"/><path stroke="#cccccc" stroke-width="1.0" stroke-linecap="butt" d="M77.5 61.5L77.5 300.5" fill-rule="nonzero"/><path stroke="#cccccc" stroke-width="1.0" stroke-linecap="butt" d="M161.5 61.5L161.5 300.5" fill-rule="nonzero"/><path stroke="#cccccc" stroke-width="1.0" stroke-linecap="butt" d="M245.5 61.5L245.5 300.5" fill-rule="nonzero"/><path stroke="#cccccc" stroke-width="1.0" stroke-linecap="butt" d="M329.5 61.5L329.5 300.5" fill-rule="nonzero"/><path stroke="#cccccc" stroke-width="1.0" stroke-linecap="butt" d="M413.5 61.5L413.5 300.5" fill-rule="nonzero"/><path stroke="#cccccc" stroke-width="1.0" stroke-linecap="butt" d="M497.5 61.5L497.5 300.5" fill-rule="nonzero"/><path stroke="#cccccc" stroke-width="1.0" stroke-linecap="butt" d="M581.5 61.5L581.5 300.5" fill-rule="nonzero"/><path stroke="#333333" stroke-width="1.0" stroke-linecap="butt" d="M77.5 300.5L581.5 300.5" fill-rule="nonzero"/><path stroke="#cccccc" stroke-width="1.0" stroke-linecap="butt" d="M77.5 240.5L581.5 240.5" fill-rule="nonzero"/><path stroke="#cccccc" stroke-width="1.0" stroke-linecap="butt" d="M77.5 181.5L581.5 181.5" fill-rule="nonzero"/><path stroke="#cccccc" stroke-width="1.0" stroke-linecap="butt" d="M77.5 121.5L581.5 121.5" fill-rule="nonzero"/><path stroke="#cccccc" stroke-width="1.0" stroke-linecap="butt" d="M77.5 61.5L581.5 61.5" fill-rule="nonzero"/><clipPath id="id_0"><path d="M77.55 61.916668L581.45 61.916668L581.45 300.45L77.55 300.45L77.55 61.916668Z" clip-rule="nonzero"/></clipPath><path stroke="#4285f4" stroke-width="2.0" stroke-linecap="butt" clip-path="url(#id_0)" d="M77.55 236.23683L161.53334 182.98425L245.51666 144.55653L329.5 91.24434L413.48334 94.5361L497.46667 104.33982L581.45 107.65543" fill-rule="nonzero"/><path fill="#000000" fill-opacity="0.0" clip-path="url(#id_0)" d="M80.55 236.23683C80.55 237.89368 79.206856 239.23683 77.55 239.23683C75.89314 239.23683 74.55 237.89368 74.55 236.23683C74.55 234.57997 75.89314 233.23683 77.55 233.23683C79.206856 233.23683 80.55 234.57997 80.55 236.23683Z" fill-rule="nonzero"/><path fill="#000000" fill-opacity="0.0" clip-path="url(#id_0)" d="M164.53334 182.98425C164.53334 184.64111 163.19019 185.98425 161.53334 185.98425C159.87648 185.98425 158.53334 184.64111 158.53334 182.98425C158.53334 181.32741 159.87648 179.98425 161.53334 179.98425C163.19019 179.98425 164.53334 181.32741 164.53334 182.98425Z" fill-rule="nonzero"/><path fill="#000000" fill-opacity="0.0" clip-path="url(#id_0)" d="M248.51666 144.55653C248.51666 146.2134 247.17352 147.55653 245.51666 147.55653C243.85982 147.55653 242.51666 146.2134 242.51666 144.55653C242.51666 142.89969 243.85982 141.55653 245.51666 141.55653C247.17352 141.55653 248.51666 142.89969 248.51666 144.55653Z" fill-rule="nonzero"/><path fill="#000000" fill-opacity="0.0" clip-path="url(#id_0)" d="M332.5 91.24434C332.5 92.90119 331.15686 94.24434 329.5 94.24434C327.84314 94.24434 326.5 92.90119 326.5 91.24434C326.5 89.58749 327.84314 88.24434 329.5 88.24434C331.15686 88.24434 332.5 89.58749 332.5 91.24434Z" fill-rule="nonzero"/><path fill="#000000" fill-opacity="0.0" clip-path="url(#id_0)" d="M416.48334 94.5361C416.48334 96.192955 415.1402 97.5361 413.48334 97.5361C411.82648 97.5361 410.48334 96.192955 410.48334 94.5361C410.48334 92.87924 411.82648 91.5361 413.48334 91.5361C415.1402 91.5361 416.48334 92.87924 416.48334 94.5361Z" fill-rule="nonzero"/><path fill="#000000" fill-opacity="0.0" clip-path="url(#id_0)" d="M500.46667 104.33982C500.46667 105.99667 499.12354 107.33982 497.46667 107.33982C495.8098 107.33982 494.46667 105.99667 494.46667 104.33982C494.46667 102.68297 495.8098 101.33982 497.46667 101.33982C499.12354 101.33982 500.46667 102.68297 500.46667 104.33982Z" fill-rule="nonzero"/><path fill="#000000" fill-opacity="0.0" clip-path="url(#id_0)" d="M584.45 107.65543C584.45 109.31229 583.1069 110.65543 581.45 110.65543C579.79315 110.65543 578.45 109.31229 578.45 107.65543C578.45 105.99858 579.79315 104.65543 581.45 104.65543C583.1069 104.65543 584.45 105.99858 584.45 107.65543Z" fill-rule="nonzero"/><path fill="#000000" d="M289.42188 349.45L289.42188 340.85626L292.67188 340.85626Q293.51562 340.85626 293.96875 340.9344Q294.60938 341.04376 295.03125 341.34064Q295.46875 341.6375 295.71875 342.16876Q295.98438 342.7 295.98438 343.34064Q295.98438 344.4344 295.28125 345.2Q294.59375 345.95 292.76562 345.95L290.5625 345.95L290.5625 349.45L289.42188 349.45ZM290.5625 344.95L292.78125 344.95Q293.89062 344.95 294.34375 344.54376Q294.8125 344.1219 294.8125 343.3719Q294.8125 342.84064 294.53125 342.46564Q294.26562 342.075 293.82812 341.95Q293.53125 341.8719 292.76562 341.8719L290.5625 341.8719L290.5625 344.95ZM297.28125 349.45L297.28125 343.23126L298.23438 343.23126L298.23438 344.16876Q298.59375 343.5125 298.89062 343.3094Q299.20312 343.09064 299.57812 343.09064Q300.10938 343.09064 300.65625 343.41876L300.29688 344.40314Q299.90625 344.16876 299.53125 344.16876Q299.17188 344.16876 298.89062 344.3875Q298.625 344.59064 298.51562 344.96564Q298.32812 345.52814 298.32812 346.1844L298.32812 349.45L297.28125 349.45ZM300.90625 346.34064Q300.90625 344.60626 301.85938 343.77814Q302.65625 343.09064 303.8125 343.09064Q305.09375 343.09064 305.90625 343.9344Q306.73438 344.7625 306.73438 346.2469Q306.73438 347.45 306.375 348.1375Q306.01562 348.825 305.3125 349.21564Q304.625 349.59064 303.8125 349.59064Q302.51562 349.59064 301.70312 348.7625Q300.90625 347.91876 300.90625 346.34064ZM301.98438 346.34064Q301.98438 347.52814 302.5 348.1219Q303.03125 348.71564 303.8125 348.71564Q304.60938 348.71564 305.125 348.1219Q305.64062 347.52814 305.64062 346.3094Q305.64062 345.15314 305.10938 344.5594Q304.59375 343.96564 303.8125 343.96564Q303.03125 343.96564 302.5 344.5594Q301.98438 345.1375 301.98438 346.34064ZM312.35938 347.16876L313.39062 347.3094Q313.21875 348.3719 312.51562 348.98126Q311.8125 349.59064 310.79688 349.59064Q309.51562 349.59064 308.73438 348.7625Q307.96875 347.91876 307.96875 346.35626Q307.96875 345.35626 308.29688 344.60626Q308.64062 343.84064 309.3125 343.46564Q310.0 343.09064 310.8125 343.09064Q311.8125 343.09064 312.45312 343.60626Q313.10938 344.10626 313.29688 345.0594L312.26562 345.21564Q312.125 344.59064 311.75 344.27814Q311.375 343.95 310.84375 343.95Q310.04688 343.95 309.54688 344.52814Q309.04688 345.09064 309.04688 346.325Q309.04688 347.59064 309.53125 348.15314Q310.01562 348.71564 310.78125 348.71564Q311.40625 348.71564 311.8125 348.34064Q312.23438 347.96564 312.35938 347.16876ZM318.54688 347.45L319.64062 347.575Q319.39062 348.52814 318.6875 349.0594Q317.98438 349.59064 316.90625 349.59064Q315.54688 349.59064 314.73438 348.7469Q313.9375 347.90314 313.9375 346.3875Q313.9375 344.825 314.75 343.96564Q315.5625 343.09064 316.84375 343.09064Q318.09375 343.09064 318.875 343.9344Q319.67188 344.77814 319.67188 346.325Q319.67188 346.41876 319.67188 346.60626L315.03125 346.60626Q315.09375 347.6375 315.60938 348.1844Q316.125 348.71564 316.90625 348.71564Q317.48438 348.71564 317.89062 348.41876Q318.3125 348.10626 318.54688 347.45ZM315.09375 345.7469L318.5625 345.7469Q318.5 344.95 318.17188 344.5594Q317.65625 343.95 316.85938 343.95Q316.125 343.95 315.625 344.4344Q315.14062 344.91876 315.09375 345.7469ZM320.875 347.59064L321.90625 347.4344Q322.0 348.0594 322.39062 348.3875Q322.79688 348.71564 323.53125 348.71564Q324.25 348.71564 324.59375 348.4344Q324.95312 348.1375 324.95312 347.73126Q324.95312 347.3719 324.64062 347.16876Q324.42188 347.02814 323.5625 346.8094Q322.40625 346.5125 321.95312 346.3094Q321.51562 346.09064 321.28125 345.71564Q321.04688 345.34064 321.04688 344.8719Q321.04688 344.46564 321.23438 344.10626Q321.42188 343.7469 321.75 343.5125Q322.0 343.34064 322.42188 343.21564Q322.84375 343.09064 323.34375 343.09064Q324.0625 343.09064 324.60938 343.3094Q325.17188 343.5125 325.4375 343.8719Q325.70312 344.23126 325.79688 344.825L324.76562 344.96564Q324.70312 344.4969 324.35938 344.23126Q324.03125 343.95 323.40625 343.95Q322.6875 343.95 322.375 344.2Q322.0625 344.4344 322.0625 344.7625Q322.0625 344.96564 322.1875 345.1219Q322.32812 345.29376 322.59375 345.40314Q322.75 345.46564 323.53125 345.66876Q324.65625 345.98126 325.09375 346.16876Q325.53125 346.35626 325.78125 346.71564Q326.03125 347.075 326.03125 347.6219Q326.03125 348.15314 325.71875 348.6219Q325.42188 349.075 324.84375 349.34064Q324.26562 349.59064 323.53125 349.59064Q322.3125 349.59064 321.67188 349.09064Q321.04688 348.575 320.875 347.59064ZM327.875 347.59064L328.90625 347.4344Q329.0 348.0594 329.39062 348.3875Q329.79688 348.71564 330.53125 348.71564Q331.25 348.71564 331.59375 348.4344Q331.95312 348.1375 331.95312 347.73126Q331.95312 347.3719 331.64062 347.16876Q331.42188 347.02814 330.5625 346.8094Q329.40625 346.5125 328.95312 346.3094Q328.51562 346.09064 328.28125 345.71564Q328.04688 345.34064 328.04688 344.8719Q328.04688 344.46564 328.23438 344.10626Q328.42188 343.7469 328.75 343.5125Q329.0 343.34064 329.42188 343.21564Q329.84375 343.09064 330.34375 343.09064Q331.0625 343.09064 331.60938 343.3094Q332.17188 343.5125 332.4375 343.8719Q332.70312 344.23126 332.79688 344.825L331.76562 344.96564Q331.70312 344.4969 331.35938 344.23126Q331.03125 343.95 330.40625 343.95Q329.6875 343.95 329.375 344.2Q329.0625 344.4344 329.0625 344.7625Q329.0625 344.96564 329.1875 345.1219Q329.32812 345.29376 329.59375 345.40314Q329.75 345.46564 330.53125 345.66876Q331.65625 345.98126 332.09375 346.16876Q332.53125 346.35626 332.78125 346.71564Q333.03125 347.075 333.03125 347.6219Q333.03125 348.15314 332.71875 348.6219Q332.42188 349.075 331.84375 349.34064Q331.26562 349.59064 330.53125 349.59064Q329.3125 349.59064 328.67188 349.09064Q328.04688 348.575 327.875 347.59064ZM344.5625 346.4344L345.6875 346.73126Q345.32812 348.1219 344.40625 348.85626Q343.48438 349.59064 342.14062 349.59064Q340.75 349.59064 339.875 349.02814Q339.0 348.46564 338.54688 347.40314Q338.09375 346.325 338.09375 345.09064Q338.09375 343.7469 338.60938 342.7469Q339.125 341.7469 340.0625 341.23126Q341.01562 340.71564 342.15625 340.71564Q343.4375 340.71564 344.3125 341.3719Q345.20312 342.02814 345.54688 343.21564L344.42188 343.48126Q344.125 342.54376 343.54688 342.1219Q342.98438 341.6844 342.125 341.6844Q341.14062 341.6844 340.46875 342.16876Q339.8125 342.6375 339.53125 343.4344Q339.26562 344.23126 339.26562 345.09064Q339.26562 346.1844 339.57812 346.9969Q339.90625 347.8094 340.57812 348.21564Q341.25 348.6219 342.04688 348.6219Q343.0 348.6219 343.65625 348.075Q344.32812 347.52814 344.5625 346.4344ZM346.90625 346.34064Q346.90625 344.60626 347.85938 343.77814Q348.65625 343.09064 349.8125 343.09064Q351.09375 343.09064 351.90625 343.9344Q352.73438 344.7625 352.73438 346.2469Q352.73438 347.45 352.375 348.1375Q352.01562 348.825 351.3125 349.21564Q350.625 349.59064 349.8125 349.59064Q348.51562 349.59064 347.70312 348.7625Q346.90625 347.91876 346.90625 346.34064ZM347.98438 346.34064Q347.98438 347.52814 348.5 348.1219Q349.03125 348.71564 349.8125 348.71564Q350.60938 348.71564 351.125 348.1219Q351.64062 347.52814 351.64062 346.3094Q351.64062 345.15314 351.10938 344.5594Q350.59375 343.96564 349.8125 343.96564Q349.03125 343.96564 348.5 344.5594Q347.98438 345.1375 347.98438 346.34064ZM358.375 349.45L358.375 348.52814Q357.64062 349.59064 356.39062 349.59064Q355.84375 349.59064 355.35938 349.3875Q354.89062 349.16876 354.65625 348.85626Q354.42188 348.52814 354.32812 348.0594Q354.26562 347.7625 354.26562 347.075L354.26562 343.23126L355.32812 343.23126L355.32812 346.6844Q355.32812 347.4969 355.39062 347.79376Q355.48438 348.2 355.79688 348.45Q356.125 348.6844 356.60938 348.6844Q357.07812 348.6844 357.48438 348.45Q357.90625 348.2 358.07812 347.77814Q358.26562 347.35626 358.26562 346.5594L358.26562 343.23126L359.3125 343.23126L359.3125 349.45L358.375 349.45ZM361.29688 349.45L361.29688 343.23126L362.23438 343.23126L362.23438 344.10626Q362.92188 343.09064 364.21875 343.09064Q364.78125 343.09064 365.25 343.29376Q365.73438 343.4969 365.96875 343.825Q366.20312 344.15314 366.29688 344.59064Q366.34375 344.8875 366.34375 345.6219L366.34375 349.45L365.29688 349.45L365.29688 345.66876Q365.29688 345.0125 365.17188 344.7Q365.04688 344.3875 364.73438 344.2Q364.42188 343.9969 364.0 343.9969Q363.32812 343.9969 362.82812 344.4344Q362.34375 344.85626 362.34375 346.04376L362.34375 349.45L361.29688 349.45ZM370.59375 348.5125L370.75 349.4344Q370.29688 349.52814 369.95312 349.52814Q369.375 349.52814 369.0625 349.35626Q368.75 349.16876 368.60938 348.8719Q368.48438 348.575 368.48438 347.6219L368.48438 344.04376L367.71875 344.04376L367.71875 343.23126L368.48438 343.23126L368.48438 341.6844L369.53125 341.0594L369.53125 343.23126L370.59375 343.23126L370.59375 344.04376L369.53125 344.04376L369.53125 347.6844Q369.53125 348.1375 369.57812 348.2625Q369.64062 348.3875 369.76562 348.46564Q369.89062 348.54376 370.125 348.54376Q370.3125 348.54376 370.59375 348.5125Z" fill-rule="nonzero"/><path fill="#000000" d="M29.550013 247.24583L20.956263 247.24583L20.956263 243.43333Q20.956263 242.27708 21.190638 241.68333Q21.425013 241.08958 22.018763 240.73021Q22.596888 240.37083 23.300013 240.37083Q24.221888 240.37083 24.846888 240.96458Q25.471888 241.55833 25.643763 242.79271Q25.862513 242.33958 26.065638 242.10521Q26.518763 241.60521 27.206263 241.16771L29.550013 239.66771L29.550013 241.10521L27.768763 242.23021Q26.987513 242.73021 26.581263 243.05833Q26.175013 243.37083 26.018763 243.63646Q25.846888 243.88646 25.768763 244.15208Q25.737513 244.33958 25.737513 244.77708L25.737513 246.10521L29.550013 246.10521L29.550013 247.24583ZM24.753138 246.10521L24.753138 243.65208Q24.753138 242.88646 24.596888 242.44896Q24.425013 241.99583 24.081263 241.77708Q23.721888 241.54271 23.300013 241.54271Q22.690638 241.54271 22.300013 241.99583Q21.909388 242.43333 21.909388 243.38646L21.909388 246.10521L24.753138 246.10521ZM27.550013 234.13646L27.675013 233.04271Q28.628138 233.29271 29.159388 233.99583Q29.690638 234.69896 29.690638 235.77708Q29.690638 237.13646 28.846888 237.94896Q28.003138 238.74583 26.487513 238.74583Q24.925013 238.74583 24.065638 237.93333Q23.190638 237.12083 23.190638 235.83958Q23.190638 234.58958 24.034388 233.80833Q24.878138 233.01146 26.425013 233.01146Q26.518763 233.01146 26.706263 233.01146L26.706263 237.65208Q27.737513 237.58958 28.284388 237.07396Q28.815638 236.55833 28.815638 235.77708Q28.815638 235.19896 28.518763 234.79271Q28.206263 234.37083 27.550013 234.13646ZM25.846888 237.58958L25.846888 234.12083Q25.050013 234.18333 24.659388 234.51146Q24.050013 235.02708 24.050013 235.82396Q24.050013 236.55833 24.534388 237.05833Q25.018763 237.54271 25.846888 237.58958ZM31.940638 227.41771L28.893763 227.41771Q29.237513 227.66771 29.471888 228.12083Q29.690638 228.55833 29.690638 229.05833Q29.690638 230.16771 28.815638 230.96458Q27.925013 231.76146 26.378138 231.76146Q25.440638 231.76146 24.706263 231.43333Q23.956263 231.10521 23.581263 230.49583Q23.190638 229.87083 23.190638 229.13646Q23.190638 227.98021 24.159388 227.32396L23.331263 227.32396L23.331263 226.37083L31.940638 226.37083L31.940638 227.41771ZM26.425013 230.68333Q27.628138 230.68333 28.221888 230.18333Q28.815638 229.66771 28.815638 228.96458Q28.815638 228.29271 28.253138 227.80833Q27.675013 227.32396 26.518763 227.32396Q25.268763 227.32396 24.643763 227.83958Q24.018763 228.33958 24.018763 229.04271Q24.018763 229.71458 24.612513 230.19896Q25.190638 230.68333 26.425013 230.68333ZM29.550013 220.30833L28.628138 220.30833Q29.690638 221.04271 29.690638 222.29271Q29.690638 222.83958 29.487513 223.32396Q29.268763 223.79271 28.956263 224.02708Q28.628138 224.26146 28.159388 224.35521Q27.862513 224.41771 27.175013 224.41771L23.331263 224.41771L23.331263 223.35521L26.784388 223.35521Q27.596888 223.35521 27.893763 223.29271Q28.300013 223.19896 28.550013 222.88646Q28.784388 222.55833 28.784388 222.07396Q28.784388 221.60521 28.550013 221.19896Q28.300013 220.77708 27.878138 220.60521Q27.456263 220.41771 26.659388 220.41771L23.331263 220.41771L23.331263 219.37083L29.550013 219.37083L29.550013 220.30833ZM27.550013 213.13646L27.675013 212.04271Q28.628138 212.29271 29.159388 212.99583Q29.690638 213.69896 29.690638 214.77708Q29.690638 216.13646 28.846888 216.94896Q28.003138 217.74583 26.487513 217.74583Q24.925013 217.74583 24.065638 216.93333Q23.190638 216.12083 23.190638 214.83958Q23.190638 213.58958 24.034388 212.80833Q24.878138 212.01146 26.425013 212.01146Q26.518763 212.01146 26.706263 212.01146L26.706263 216.65208Q27.737513 216.58958 28.284388 216.07396Q28.815638 215.55833 28.815638 214.77708Q28.815638 214.19896 28.518763 213.79271Q28.206263 213.37083 27.550013 213.13646ZM25.846888 216.58958L25.846888 213.12083Q25.050013 213.18333 24.659388 213.51146Q24.050013 214.02708 24.050013 214.82396Q24.050013 215.55833 24.534388 216.05833Q25.018763 216.54271 25.846888 216.58958ZM27.690638 210.80833L27.534388 209.77708Q28.159388 209.68333 28.487513 209.29271Q28.815638 208.88646 28.815638 208.15208Q28.815638 207.43333 28.534388 207.08958Q28.237513 206.73021 27.831263 206.73021Q27.471888 206.73021 27.268763 207.04271Q27.128138 207.26146 26.909388 208.12083Q26.612513 209.27708 26.409388 209.73021Q26.190638 210.16771 25.815638 210.40208Q25.440638 210.63646 24.971888 210.63646Q24.565638 210.63646 24.206263 210.44896Q23.846888 210.26146 23.612513 209.93333Q23.440638 209.68333 23.315638 209.26146Q23.190638 208.83958 23.190638 208.33958Q23.190638 207.62083 23.409388 207.07396Q23.612513 206.51146 23.971888 206.24583Q24.331263 205.98021 24.925013 205.88646L25.065638 206.91771Q24.596888 206.98021 24.331263 207.32396Q24.050013 207.65208 24.050013 208.27708Q24.050013 208.99583 24.300013 209.30833Q24.534388 209.62083 24.862513 209.62083Q25.065638 209.62083 25.221888 209.49583Q25.393763 209.35521 25.503138 209.08958Q25.565638 208.93333 25.768763 208.15208Q26.081263 207.02708 26.268763 206.58958Q26.456263 206.15208 26.815638 205.90208Q27.175013 205.65208 27.721888 205.65208Q28.253138 205.65208 28.721888 205.96458Q29.175013 206.26146 29.440638 206.83958Q29.690638 207.41771 29.690638 208.15208Q29.690638 209.37083 29.190638 210.01146Q28.675013 210.63646 27.690638 210.80833ZM28.612513 201.08958L29.534388 200.93333Q29.628138 201.38646 29.628138 201.73021Q29.628138 202.30833 29.456263 202.62083Q29.268763 202.93333 28.971888 203.07396Q28.675013 203.19896 27.721888 203.19896L24.143763 203.19896L24.143763 203.96458L23.331263 203.96458L23.331263 203.19896L21.784388 203.19896L21.159388 202.15208L23.331263 202.15208L23.331263 201.08958L24.143763 201.08958L24.143763 202.15208L27.784388 202.15208Q28.237513 202.15208 28.362513 202.10521Q28.487513 202.04271 28.565638 201.91771Q28.643763 201.79271 28.643763 201.55833Q28.643763 201.37083 28.612513 201.08958ZM27.690638 200.80833L27.534388 199.77708Q28.159388 199.68333 28.487513 199.29271Q28.815638 198.88646 28.815638 198.15208Q28.815638 197.43333 28.534388 197.08958Q28.237513 196.73021 27.831263 196.73021Q27.471888 196.73021 27.268763 197.04271Q27.128138 197.26146 26.909388 198.12083Q26.612513 199.27708 26.409388 199.73021Q26.190638 200.16771 25.815638 200.40208Q25.440638 200.63646 24.971888 200.63646Q24.565638 200.63646 24.206263 200.44896Q23.846888 200.26146 23.612513 199.93333Q23.440638 199.68333 23.315638 199.26146Q23.190638 198.83958 23.190638 198.33958Q23.190638 197.62083 23.409388 197.07396Q23.612513 196.51146 23.971888 196.24583Q24.331263 195.98021 24.925013 195.88646L25.065638 196.91771Q24.596888 196.98021 24.331263 197.32396Q24.050013 197.65208 24.050013 198.27708Q24.050013 198.99583 24.300013 199.30833Q24.534388 199.62083 24.862513 199.62083Q25.065638 199.62083 25.221888 199.49583Q25.393763 199.35521 25.503138 199.08958Q25.565638 198.93333 25.768763 198.15208Q26.081263 197.02708 26.268763 196.58958Q26.456263 196.15208 26.815638 195.90208Q27.175013 195.65208 27.721888 195.65208Q28.253138 195.65208 28.721888 195.96458Q29.175013 196.26146 29.440638 196.83958Q29.690638 197.41771 29.690638 198.15208Q29.690638 199.37083 29.190638 200.01146Q28.675013 200.63646 27.690638 200.80833ZM29.550013 190.26146L20.956263 190.26146L20.956263 187.01146Q20.956263 186.16771 21.034388 185.71458Q21.143763 185.07396 21.440638 184.65208Q21.737513 184.21458 22.268763 183.96458Q22.800013 183.69896 23.440638 183.69896Q24.534388 183.69896 25.300013 184.40208Q26.050013 185.08958 26.050013 186.91771L26.050013 189.12083L29.550013 189.12083L29.550013 190.26146ZM25.050013 189.12083L25.050013 186.90208Q25.050013 185.79271 24.643763 185.33958Q24.221888 184.87083 23.471888 184.87083Q22.940638 184.87083 22.565638 185.15208Q22.175013 185.41771 22.050013 185.85521Q21.971888 186.15208 21.971888 186.91771L21.971888 189.12083L25.050013 189.12083ZM27.550013 178.13646L27.675013 177.04271Q28.628138 177.29271 29.159388 177.99583Q29.690638 178.69896 29.690638 179.77708Q29.690638 181.13646 28.846888 181.94896Q28.003138 182.74583 26.487513 182.74583Q24.925013 182.74583 24.065638 181.93333Q23.190638 181.12083 23.190638 179.83958Q23.190638 178.58958 24.034388 177.80833Q24.878138 177.01146 26.425013 177.01146Q26.518763 177.01146 26.706263 177.01146L26.706263 181.65208Q27.737513 181.58958 28.284388 181.07396Q28.815638 180.55833 28.815638 179.77708Q28.815638 179.19896 28.518763 178.79271Q28.206263 178.37083 27.550013 178.13646ZM25.846888 181.58958L25.846888 178.12083Q25.050013 178.18333 24.659388 178.51146Q24.050013 179.02708 24.050013 179.82396Q24.050013 180.55833 24.534388 181.05833Q25.018763 181.54271 25.846888 181.58958ZM29.550013 175.40208L23.331263 175.40208L23.331263 174.44896L24.268763 174.44896Q23.612513 174.08958 23.409388 173.79271Q23.190638 173.48021 23.190638 173.10521Q23.190638 172.57396 23.518763 172.02708L24.503138 172.38646Q24.268763 172.77708 24.268763 173.15208Q24.268763 173.51146 24.487513 173.79271Q24.690638 174.05833 25.065638 174.16771Q25.628138 174.35521 26.284388 174.35521L29.550013 174.35521L29.550013 175.40208ZM26.784388 168.63646L26.690638 167.57396Q27.346888 167.49583 27.753138 167.21458Q28.159388 166.93333 28.425013 166.35521Q28.675013 165.76146 28.675013 165.02708Q28.675013 164.38646 28.487513 163.88646Q28.284388 163.38646 27.956263 163.15208Q27.612513 162.90208 27.221888 162.90208Q26.815638 162.90208 26.518763 163.13646Q26.206263 163.37083 26.003138 163.90208Q25.862513 164.26146 25.581263 165.44896Q25.300013 166.62083 25.050013 167.08958Q24.721888 167.71458 24.253138 168.01146Q23.768763 168.30833 23.175013 168.30833Q22.534388 168.30833 21.971888 167.94896Q21.393763 167.57396 21.112513 166.87083Q20.815638 166.15208 20.815638 165.29271Q20.815638 164.33958 21.128138 163.60521Q21.425013 162.87083 22.034388 162.48021Q22.628138 162.08958 23.378138 162.05833L23.456263 163.15208Q22.643763 163.24583 22.237513 163.76146Q21.815638 164.26146 21.815638 165.24583Q21.815638 166.27708 22.190638 166.74583Q22.565638 167.21458 23.096888 167.21458Q23.565638 167.21458 23.862513 166.88646Q24.159388 166.55833 24.471888 165.18333Q24.784388 163.79271 25.018763 163.27708Q25.378138 162.52708 25.909388 162.16771Q26.425013 161.80833 27.128138 161.80833Q27.815638 161.80833 28.425013 162.19896Q29.018763 162.58958 29.362513 163.32396Q29.690638 164.05833 29.690638 164.98021Q29.690638 166.15208 29.362513 166.94896Q29.018763 167.73021 28.331263 168.18333Q27.643763 168.62083 26.784388 168.63646ZM27.550013 156.13646L27.675013 155.04271Q28.628138 155.29271 29.159388 155.99583Q29.690638 156.69896 29.690638 157.77708Q29.690638 159.13646 28.846888 159.94896Q28.003138 160.74583 26.487513 160.74583Q24.925013 160.74583 24.065638 159.93333Q23.190638 159.12083 23.190638 157.83958Q23.190638 156.58958 24.034388 155.80833Q24.878138 155.01146 26.425013 155.01146Q26.518763 155.01146 26.706263 155.01146L26.706263 159.65208Q27.737513 159.58958 28.284388 159.07396Q28.815638 158.55833 28.815638 157.77708Q28.815638 157.19896 28.518763 156.79271Q28.206263 156.37083 27.550013 156.13646ZM25.846888 159.58958L25.846888 156.12083Q25.050013 156.18333 24.659388 156.51146Q24.050013 157.02708 24.050013 157.82396Q24.050013 158.55833 24.534388 159.05833Q25.018763 159.54271 25.846888 159.58958ZM27.268763 149.32396L27.409388 148.29271Q28.471888 148.46458 29.081263 149.16771Q29.690638 149.87083 29.690638 150.88646Q29.690638 152.16771 28.862513 152.94896Q28.018763 153.71458 26.456263 153.71458Q25.456263 153.71458 24.706263 153.38646Q23.940638 153.04271 23.565638 152.37083Q23.190638 151.68333 23.190638 150.87083Q23.190638 149.87083 23.706263 149.23021Q24.206263 148.57396 25.159388 148.38646L25.315638 149.41771Q24.690638 149.55833 24.378138 149.93333Q24.050013 150.30833 24.050013 150.83958Q24.050013 151.63646 24.628138 152.13646Q25.190638 152.63646 26.425013 152.63646Q27.690638 152.63646 28.253138 152.15208Q28.815638 151.66771 28.815638 150.90208Q28.815638 150.27708 28.440638 149.87083Q28.065638 149.44896 27.268763 149.32396ZM26.440638 147.77708Q24.706263 147.77708 23.878138 146.82396Q23.190638 146.02708 23.190638 144.87083Q23.190638 143.58958 24.034388 142.77708Q24.862513 141.94896 26.346888 141.94896Q27.550013 141.94896 28.237513 142.30833Q28.925013 142.66771 29.315638 143.37083Q29.690638 144.05833 29.690638 144.87083Q29.690638 146.16771 28.862513 146.98021Q28.018763 147.77708 26.440638 147.77708ZM26.440638 146.69896Q27.628138 146.69896 28.221888 146.18333Q28.815638 145.65208 28.815638 144.87083Q28.815638 144.07396 28.221888 143.55833Q27.628138 143.04271 26.409388 143.04271Q25.253138 143.04271 24.659388 143.57396Q24.065638 144.08958 24.065638 144.87083Q24.065638 145.65208 24.659388 146.18333Q25.237513 146.69896 26.440638 146.69896ZM29.550013 140.38646L23.331263 140.38646L23.331263 139.44896L24.206263 139.44896Q23.190638 138.76146 23.190638 137.46458Q23.190638 136.90208 23.393763 136.43333Q23.596888 135.94896 23.925013 135.71458Q24.253138 135.48021 24.690638 135.38646Q24.987513 135.33958 25.721888 135.33958L29.550013 135.33958L29.550013 136.38646L25.768763 136.38646Q25.112513 136.38646 24.800013 136.51146Q24.487513 136.63646 24.300013 136.94896Q24.096888 137.26146 24.096888 137.68333Q24.096888 138.35521 24.534388 138.85521Q24.956263 139.33958 26.143763 139.33958L29.550013 139.33958L29.550013 140.38646ZM29.550013 129.35521L28.768763 129.35521Q29.690638 129.94896 29.690638 131.08958Q29.690638 131.83958 29.284388 132.46458Q28.862513 133.08958 28.128138 133.43333Q27.393763 133.77708 26.440638 133.77708Q25.518763 133.77708 24.753138 133.46458Q23.987513 133.15208 23.596888 132.52708Q23.190638 131.90208 23.190638 131.13646Q23.190638 130.57396 23.425013 130.13646Q23.659388 129.69896 24.034388 129.41771L20.956263 129.41771L20.956263 128.37083L29.550013 128.37083L29.550013 129.35521ZM26.440638 132.68333Q27.643763 132.68333 28.237513 132.18333Q28.815638 131.68333 28.815638 130.99583Q28.815638 130.30833 28.253138 129.82396Q27.690638 129.33958 26.534388 129.33958Q25.253138 129.33958 24.659388 129.83958Q24.065638 130.32396 24.065638 131.04271Q24.065638 131.74583 24.643763 132.21458Q25.206263 132.68333 26.440638 132.68333Z" fill-rule="nonzero"/><path fill="#000000" d="M65.05 300.21564Q65.05 298.6844 65.3625 297.7625Q65.675 296.825 66.28438 296.325Q66.90938 295.825 67.84688 295.825Q68.53438 295.825 69.05 296.10626Q69.58125 296.3875 69.925 296.91876Q70.26875 297.4344 70.45625 298.1844Q70.64375 298.9344 70.64375 300.21564Q70.64375 301.73126 70.33125 302.65314Q70.03438 303.575 69.40938 304.09064Q68.8 304.59064 67.84688 304.59064Q66.6125 304.59064 65.89375 303.7Q65.05 302.6375 65.05 300.21564ZM66.12813 300.21564Q66.12813 302.325 66.62813 303.02814Q67.12813 303.73126 67.84688 303.73126Q68.58125 303.73126 69.06563 303.02814Q69.56563 302.325 69.56563 300.21564Q69.56563 298.09064 69.06563 297.40314Q68.58125 296.7 67.83125 296.7Q67.1125 296.7 66.675 297.3094Q66.12813 298.09064 66.12813 300.21564Z" fill-rule="nonzero"/><path fill="#000000" d="M58.05 242.56667L59.159374 242.47292Q59.284374 243.28542 59.721874 243.69167Q60.175 244.09792 60.815624 244.09792Q61.565624 244.09792 62.096874 243.51979Q62.628124 242.94167 62.628124 242.00417Q62.628124 241.09792 62.1125 240.58229Q61.6125 240.05104 60.784374 240.05104Q60.284374 240.05104 59.8625 240.28542Q59.45625 240.51979 59.221874 240.87917L58.2375 240.75417L59.065624 236.34792L63.346874 236.34792L63.346874 237.34792L59.909374 237.34792L59.45625 239.66042Q60.221874 239.11354 61.065624 239.11354Q62.190624 239.11354 62.95625 239.89479Q63.7375 240.67604 63.7375 241.91042Q63.7375 243.06667 63.065624 243.92604Q62.2375 244.95729 60.815624 244.95729Q59.64375 244.95729 58.89375 244.30104Q58.159374 243.64479 58.05 242.56667ZM65.05 240.58229Q65.05 239.05104 65.3625 238.12917Q65.675 237.19167 66.28438 236.69167Q66.90938 236.19167 67.84688 236.19167Q68.53438 236.19167 69.05 236.47292Q69.58125 236.75417 69.925 237.28542Q70.26875 237.80104 70.45625 238.55104Q70.64375 239.30104 70.64375 240.58229Q70.64375 242.09792 70.33125 243.01979Q70.03438 243.94167 69.40938 244.45729Q68.8 244.95729 67.84688 244.95729Q66.6125 244.95729 65.89375 244.06667Q65.05 243.00417 65.05 240.58229ZM66.12813 240.58229Q66.12813 242.69167 66.62813 243.39479Q67.12813 244.09792 67.84688 244.09792Q68.58125 244.09792 69.06563 243.39479Q69.56563 242.69167 69.56563 240.58229Q69.56563 238.45729 69.06563 237.76979Q68.58125 237.06667 67.83125 237.06667Q67.1125 237.06667 66.675 237.67604Q66.12813 238.45729 66.12813 240.58229Z" fill-rule="nonzero"/><path fill="#000000" d="M55.01875 185.18333L53.971874 185.18333L53.971874 178.46458Q53.58125 178.82396 52.95625 179.19896Q52.346874 179.55833 51.8625 179.73021L51.8625 178.71458Q52.7375 178.29271 53.39375 177.71458Q54.065624 177.12083 54.346874 176.55833L55.01875 176.55833L55.01875 185.18333ZM58.05 180.94896Q58.05 179.41771 58.3625 178.49583Q58.675 177.55833 59.284374 177.05833Q59.909374 176.55833 60.846874 176.55833Q61.534374 176.55833 62.05 176.83958Q62.58125 177.12083 62.925 177.65208Q63.26875 178.16771 63.45625 178.91771Q63.64375 179.66771 63.64375 180.94896Q63.64375 182.46458 63.33125 183.38646Q63.034374 184.30833 62.409374 184.82396Q61.8 185.32396 60.846874 185.32396Q59.6125 185.32396 58.89375 184.43333Q58.05 183.37083 58.05 180.94896ZM59.128124 180.94896Q59.128124 183.05833 59.628124 183.76146Q60.128124 184.46458 60.846874 184.46458Q61.58125 184.46458 62.065624 183.76146Q62.565624 183.05833 62.565624 180.94896Q62.565624 178.82396 62.065624 178.13646Q61.58125 177.43333 60.83125 177.43333Q60.1125 177.43333 59.675 178.04271Q59.128124 178.82396 59.128124 180.94896ZM65.05 180.94896Q65.05 179.41771 65.3625 178.49583Q65.675 177.55833 66.28438 177.05833Q66.90938 176.55833 67.84688 176.55833Q68.53438 176.55833 69.05 176.83958Q69.58125 177.12083 69.925 177.65208Q70.26875 178.16771 70.45625 178.91771Q70.64375 179.66771 70.64375 180.94896Q70.64375 182.46458 70.33125 183.38646Q70.03438 184.30833 69.40938 184.82396Q68.8 185.32396 67.84688 185.32396Q66.6125 185.32396 65.89375 184.43333Q65.05 183.37083 65.05 180.94896ZM66.12813 180.94896Q66.12813 183.05833 66.62813 183.76146Q67.12813 184.46458 67.84688 184.46458Q68.58125 184.46458 69.06563 183.76146Q69.56563 183.05833 69.56563 180.94896Q69.56563 178.82396 69.06563 178.13646Q68.58125 177.43333 67.83125 177.43333Q67.1125 177.43333 66.675 178.04271Q66.12813 178.82396 66.12813 180.94896Z" fill-rule="nonzero"/><path fill="#000000" d="M55.01875 125.55L53.971874 125.55L53.971874 118.83125Q53.58125 119.19063 52.95625 119.56563Q52.346874 119.925 51.8625 120.09688L51.8625 119.08125Q52.7375 118.65938 53.39375 118.08125Q54.065624 117.4875 54.346874 116.925L55.01875 116.925L55.01875 125.55ZM58.05 123.3L59.159374 123.20625Q59.284374 124.01875 59.721874 124.425Q60.175 124.83125 60.815624 124.83125Q61.565624 124.83125 62.096874 124.25313Q62.628124 123.675 62.628124 122.7375Q62.628124 121.83125 62.1125 121.31563Q61.6125 120.78438 60.784374 120.78438Q60.284374 120.78438 59.8625 121.01875Q59.45625 121.25313 59.221874 121.6125L58.2375 121.4875L59.065624 117.08125L63.346874 117.08125L63.346874 118.08125L59.909374 118.08125L59.45625 120.39375Q60.221874 119.84688 61.065624 119.84688Q62.190624 119.84688 62.95625 120.62813Q63.7375 121.40938 63.7375 122.64375Q63.7375 123.8 63.065624 124.65938Q62.2375 125.69063 60.815624 125.69063Q59.64375 125.69063 58.89375 125.03438Q58.159374 124.37813 58.05 123.3ZM65.05 121.31563Q65.05 119.78438 65.3625 118.8625Q65.675 117.925 66.28438 117.425Q66.90938 116.925 67.84688 116.925Q68.53438 116.925 69.05 117.20625Q69.58125 117.4875 69.925 118.01875Q70.26875 118.53438 70.45625 119.28438Q70.64375 120.03438 70.64375 121.31563Q70.64375 122.83125 70.33125 123.75313Q70.03438 124.675 69.40938 125.19063Q68.8 125.69063 67.84688 125.69063Q66.6125 125.69063 65.89375 124.8Q65.05 123.7375 65.05 121.31563ZM66.12813 121.31563Q66.12813 123.425 66.62813 124.12813Q67.12813 124.83125 67.84688 124.83125Q68.58125 124.83125 69.06563 124.12813Q69.56563 123.425 69.56563 121.31563Q69.56563 119.19063 69.06563 118.50313Q68.58125 117.8 67.83125 117.8Q67.1125 117.8 66.675 118.40938Q66.12813 119.19063 66.12813 121.31563Z" fill-rule="nonzero"/><path fill="#000000" d="M56.596874 64.90104L56.596874 65.916664L50.909374 65.916664Q50.909374 65.541664 51.034374 65.18229Q51.253124 64.604164 51.721874 64.041664Q52.20625 63.479164 53.1125 62.74479Q54.51875 61.58854 55.003124 60.916664Q55.503124 60.24479 55.503124 59.65104Q55.503124 59.02604 55.05 58.604164Q54.596874 58.166664 53.878124 58.166664Q53.1125 58.166664 52.659374 58.61979Q52.20625 59.072914 52.190624 59.885414L51.1125 59.77604Q51.221874 58.55729 51.940624 57.93229Q52.675 57.291664 53.909374 57.291664Q55.14375 57.291664 55.8625 57.979164Q56.58125 58.666664 56.58125 59.68229Q56.58125 60.197914 56.3625 60.697914Q56.159374 61.18229 55.659374 61.74479Q55.175 62.291664 54.05 63.24479Q53.096874 64.041664 52.815624 64.33854Q52.55 64.61979 52.378124 64.90104L56.596874 64.90104ZM58.05 61.68229Q58.05 60.15104 58.3625 59.229164Q58.675 58.291664 59.284374 57.791664Q59.909374 57.291664 60.846874 57.291664Q61.534374 57.291664 62.05 57.572914Q62.58125 57.854164 62.925 58.385414Q63.26875 58.90104 63.45625 59.65104Q63.64375 60.40104 63.64375 61.68229Q63.64375 63.197914 63.33125 64.11979Q63.034374 65.041664 62.409374 65.55729Q61.8 66.05729 60.846874 66.05729Q59.6125 66.05729 58.89375 65.166664Q58.05 64.104164 58.05 61.68229ZM59.128124 61.68229Q59.128124 63.791664 59.628124 64.49479Q60.128124 65.197914 60.846874 65.197914Q61.58125 65.197914 62.065624 64.49479Q62.565624 63.791664 62.565624 61.68229Q62.565624 59.55729 62.065624 58.86979Q61.58125 58.166664 60.83125 58.166664Q60.1125 58.166664 59.675 58.77604Q59.128124 59.55729 59.128124 61.68229ZM65.05 61.68229Q65.05 60.15104 65.3625 59.229164Q65.675 58.291664 66.28438 57.791664Q66.90938 57.291664 67.84688 57.291664Q68.53438 57.291664 69.05 57.572914Q69.58125 57.854164 69.925 58.385414Q70.26875 58.90104 70.45625 59.65104Q70.64375 60.40104 70.64375 61.68229Q70.64375 63.197914 70.33125 64.11979Q70.03438 65.041664 69.40938 65.55729Q68.8 66.05729 67.84688 66.05729Q66.6125 66.05729 65.89375 65.166664Q65.05 64.104164 65.05 61.68229ZM66.12813 61.68229Q66.12813 63.791664 66.62813 64.49479Q67.12813 65.197914 67.84688 65.197914Q68.58125 65.197914 69.06563 64.49479Q69.56563 63.791664 69.56563 61.68229Q69.56563 59.55729 69.06563 58.86979Q68.58125 58.166664 67.83125 58.166664Q67.1125 58.166664 66.675 58.77604Q66.12813 59.55729 66.12813 61.68229Z" fill-rule="nonzero"/><path fill="#000000" d="M78.51875 317.45L77.47188 317.45L77.47188 310.73126Q77.08125 311.09064 76.45625 311.46564Q75.84688 311.825 75.3625 311.9969L75.3625 310.98126Q76.2375 310.5594 76.89375 309.98126Q77.56563 309.3875 77.84688 308.825L78.51875 308.825L78.51875 317.45Z" fill-rule="nonzero"/><path fill="#000000" d="M164.08022 316.4344L164.08022 317.45L158.39272 317.45Q158.39272 317.075 158.51772 316.71564Q158.73647 316.1375 159.20522 315.575Q159.68959 315.0125 160.59584 314.27814Q162.00209 313.1219 162.48647 312.45Q162.98647 311.77814 162.98647 311.1844Q162.98647 310.5594 162.53334 310.1375Q162.08022 309.7 161.36147 309.7Q160.59584 309.7 160.14272 310.15314Q159.68959 310.60626 159.67397 311.41876L158.59584 311.3094Q158.70522 310.09064 159.42397 309.46564Q160.15834 308.825 161.39272 308.825Q162.62709 308.825 163.34584 309.5125Q164.06459 310.2 164.06459 311.21564Q164.06459 311.73126 163.84584 312.23126Q163.64272 312.71564 163.14272 313.27814Q162.65834 313.825 161.53334 314.77814Q160.58022 315.575 160.29897 315.8719Q160.03334 316.15314 159.86147 316.4344L164.08022 316.4344Z" fill-rule="nonzero"/><path fill="#000000" d="M242.51666 315.1844L243.57916 315.04376Q243.75104 315.9344 244.18854 316.34064Q244.62604 316.73126 245.25104 316.73126Q246.00104 316.73126 246.51666 316.21564Q247.03229 315.7 247.03229 314.9344Q247.03229 314.21564 246.54791 313.7469Q246.07916 313.2625 245.34479 313.2625Q245.04791 313.2625 244.59479 313.3875L244.71979 312.45Q244.82916 312.46564 244.89166 312.46564Q245.56354 312.46564 246.09479 312.1219Q246.64166 311.7625 246.64166 311.02814Q246.64166 310.45 246.25104 310.075Q245.86041 309.6844 245.23541 309.6844Q244.62604 309.6844 244.20416 310.075Q243.79791 310.46564 243.68854 311.23126L242.62604 311.04376Q242.81354 309.9969 243.50104 309.41876Q244.18854 308.825 245.20416 308.825Q245.90729 308.825 246.50104 309.1375Q247.09479 309.4344 247.40729 309.95Q247.71979 310.46564 247.71979 311.0594Q247.71979 311.60626 247.42291 312.075Q247.12604 312.52814 246.54791 312.79376Q247.29791 312.96564 247.71979 313.52814Q248.14166 314.075 248.14166 314.91876Q248.14166 316.04376 247.31354 316.825Q246.50104 317.60626 245.25104 317.60626Q244.12604 317.60626 243.37604 316.9344Q242.62604 316.2469 242.51666 315.1844Z" fill-rule="nonzero"/><path fill="#000000" d="M329.875 317.45L329.875 315.3875L326.15625 315.3875L326.15625 314.41876L330.07812 308.85626L330.9375 308.85626L330.9375 314.41876L332.09375 314.41876L332.09375 315.3875L330.9375 315.3875L330.9375 317.45L329.875 317.45ZM329.875 314.41876L329.875 310.5594L327.1875 314.41876L329.875 314.41876Z" fill-rule="nonzero"/><path fill="#000000" d="M410.48334 315.2L411.5927 315.10626Q411.7177 315.91876 412.1552 316.325Q412.60834 316.73126 413.24896 316.73126Q413.99896 316.73126 414.5302 316.15314Q415.06146 315.575 415.06146 314.6375Q415.06146 313.73126 414.54584 313.21564Q414.04584 312.6844 413.2177 312.6844Q412.7177 312.6844 412.29584 312.91876Q411.8896 313.15314 411.6552 313.5125L410.67084 313.3875L411.49896 308.98126L415.7802 308.98126L415.7802 309.98126L412.3427 309.98126L411.8896 312.29376Q412.6552 311.7469 413.49896 311.7469Q414.62396 311.7469 415.3896 312.52814Q416.17084 313.3094 416.17084 314.54376Q416.17084 315.7 415.49896 316.5594Q414.67084 317.59064 413.24896 317.59064Q412.0771 317.59064 411.3271 316.9344Q410.5927 316.27814 410.48334 315.2Z" fill-rule="nonzero"/><path fill="#000000" d="M499.93542 310.96564L498.88855 311.04376Q498.74792 310.41876 498.49792 310.1375Q498.06042 309.6844 497.43542 309.6844Q496.93542 309.6844 496.5448 309.96564Q496.06042 310.34064 495.76355 311.04376Q495.4823 311.73126 495.46667 313.0125Q495.84167 312.4344 496.38855 312.15314Q496.95105 311.8719 497.56042 311.8719Q498.6073 311.8719 499.34167 312.65314Q500.09167 313.4344 500.09167 314.65314Q500.09167 315.46564 499.7323 316.16876Q499.38855 316.85626 498.77917 317.23126Q498.1698 317.59064 497.40417 317.59064Q496.07605 317.59064 495.24792 316.6219Q494.4198 315.65314 494.4198 313.4344Q494.4198 310.9344 495.34167 309.8094Q496.13855 308.825 497.49792 308.825Q498.51355 308.825 499.15417 309.40314Q499.81042 309.96564 499.93542 310.96564ZM495.63855 314.66876Q495.63855 315.21564 495.8573 315.71564Q496.09167 316.2 496.49792 316.46564Q496.9198 316.73126 497.38855 316.73126Q498.0448 316.73126 498.52917 316.2Q499.01355 315.65314 499.01355 314.73126Q499.01355 313.84064 498.52917 313.325Q498.06042 312.8094 497.34167 312.8094Q496.62292 312.8094 496.12292 313.325Q495.63855 313.84064 495.63855 314.66876Z" fill-rule="nonzero"/><path fill="#000000" d="M578.5125 309.98126L578.5125 308.96564L584.075 308.96564L584.075 309.79376Q583.2625 310.66876 582.45 312.1219Q581.65314 313.5594 581.21564 315.09064Q580.8875 316.16876 580.8094 317.45L579.71564 317.45Q579.73126 316.4344 580.10626 314.9969Q580.4969 313.5594 581.2 312.23126Q581.91876 310.90314 582.73126 309.98126L578.5125 309.98126Z" fill-rule="nonzero"/><path fill="#757575" d="M261.07812 37.55L261.07812 23.2375L267.42188 23.2375Q269.32812 23.2375 270.32812 23.628124Q271.32812 24.003124 271.92188 24.9875Q272.51562 25.95625 272.51562 27.14375Q272.51562 28.659374 271.53125 29.70625Q270.54688 30.753124 268.48438 31.034374Q269.23438 31.39375 269.625 31.753124Q270.45312 32.503124 271.20312 33.659374L273.6875 37.55L271.3125 37.55L269.40625 34.565624Q268.57812 33.284374 268.04688 32.596874Q267.51562 31.909374 267.07812 31.64375Q266.65625 31.3625 266.21875 31.253124Q265.89062 31.190624 265.17188 31.190624L262.96875 31.190624L262.96875 37.55L261.07812 37.55ZM262.96875 29.55L267.04688 29.55Q268.34375 29.55 269.0625 29.284374Q269.79688 29.01875 270.17188 28.425Q270.5625 27.83125 270.5625 27.14375Q270.5625 26.128124 269.82812 25.471874Q269.09375 24.815624 267.5 24.815624L262.96875 24.815624L262.96875 29.55ZM281.92188 34.20625L283.73438 34.440624Q283.3125 36.01875 282.14062 36.909374Q280.98438 37.784374 279.17188 37.784374Q276.90625 37.784374 275.5625 36.39375Q274.23438 34.9875 274.23438 32.45625Q274.23438 29.83125 275.57812 28.39375Q276.92188 26.940624 279.07812 26.940624Q281.15625 26.940624 282.46875 28.3625Q283.79688 29.76875 283.79688 32.346874Q283.79688 32.503124 283.78125 32.815624L276.04688 32.815624Q276.14062 34.51875 277.01562 35.425Q277.89062 36.33125 279.1875 36.33125Q280.15625 36.33125 280.82812 35.83125Q281.51562 35.315624 281.92188 34.20625ZM276.14062 31.3625L281.9375 31.3625Q281.82812 30.065624 281.28125 29.409374Q280.4375 28.39375 279.09375 28.39375Q277.89062 28.39375 277.0625 29.20625Q276.23438 30.003124 276.14062 31.3625ZM292.59375 36.26875Q291.60938 37.096874 290.70312 37.440624Q289.79688 37.784374 288.76562 37.784374Q287.0625 37.784374 286.14062 36.95625Q285.21875 36.1125 285.21875 34.815624Q285.21875 34.05 285.5625 33.425Q285.92188 32.8 286.48438 32.425Q287.04688 32.034374 287.75 31.83125Q288.26562 31.70625 289.3125 31.565624Q291.4375 31.315624 292.4375 30.971874Q292.45312 30.6125 292.45312 30.503124Q292.45312 29.440624 291.95312 28.9875Q291.28125 28.39375 289.95312 28.39375Q288.70312 28.39375 288.10938 28.83125Q287.53125 29.26875 287.25 30.378124L285.53125 30.14375Q285.76562 29.034374 286.29688 28.3625Q286.82812 27.675 287.84375 27.315624Q288.85938 26.940624 290.20312 26.940624Q291.53125 26.940624 292.35938 27.253124Q293.1875 27.565624 293.57812 28.05Q293.96875 28.51875 294.125 29.2375Q294.21875 29.690624 294.21875 30.8625L294.21875 33.20625Q294.21875 35.659374 294.32812 36.315624Q294.4375 36.95625 294.78125 37.55L292.9375 37.55Q292.67188 37.003124 292.59375 36.26875ZM292.4375 32.346874Q291.48438 32.7375 289.5625 33.003124Q288.48438 33.159374 288.03125 33.3625Q287.59375 33.55 287.34375 33.925Q287.09375 34.3 287.09375 34.76875Q287.09375 35.471874 287.625 35.940624Q288.15625 36.409374 289.1875 36.409374Q290.20312 36.409374 290.98438 35.971874Q291.78125 35.51875 292.15625 34.753124Q292.4375 34.14375 292.4375 32.9875L292.4375 32.346874ZM296.78125 37.55L296.78125 23.2375L298.53125 23.2375L298.53125 37.55L296.78125 37.55ZM305.46875 37.55L310.96875 23.2375L313.01562 23.2375L318.875 37.55L316.71875 37.55L315.04688 33.20625L309.0625 33.20625L307.48438 37.55L305.46875 37.55ZM309.60938 31.675L314.45312 31.675L312.96875 27.70625Q312.28125 25.89375 311.95312 24.7375Q311.67188 26.1125 311.17188 27.471874L309.60938 31.675ZM319.8125 41.51875L319.8125 27.175L321.42188 27.175L321.42188 28.51875Q321.98438 27.7375 322.6875 27.346874Q323.40625 26.940624 324.42188 26.940624Q325.75 26.940624 326.76562 27.628124Q327.78125 28.315624 328.29688 29.565624Q328.82812 30.8 328.82812 32.284374Q328.82812 33.878124 328.25 35.159374Q327.6875 36.425 326.59375 37.1125Q325.5 37.784374 324.29688 37.784374Q323.42188 37.784374 322.71875 37.409374Q322.03125 37.034374 321.57812 36.471874L321.57812 41.51875L319.8125 41.51875ZM321.40625 32.425Q321.40625 34.425 322.21875 35.378124Q323.03125 36.33125 324.1875 36.33125Q325.35938 36.33125 326.1875 35.346874Q327.03125 34.3625 327.03125 32.26875Q327.03125 30.3 326.20312 29.315624Q325.39062 28.315624 324.26562 28.315624Q323.14062 28.315624 322.26562 29.378124Q321.40625 30.425 321.40625 32.425ZM330.8125 41.51875L330.8125 27.175L332.42188 27.175L332.42188 28.51875Q332.98438 27.7375 333.6875 27.346874Q334.40625 26.940624 335.42188 26.940624Q336.75 26.940624 337.76562 27.628124Q338.78125 28.315624 339.29688 29.565624Q339.82812 30.8 339.82812 32.284374Q339.82812 33.878124 339.25 35.159374Q338.6875 36.425 337.59375 37.1125Q336.5 37.784374 335.29688 37.784374Q334.42188 37.784374 333.71875 37.409374Q333.03125 37.034374 332.57812 36.471874L332.57812 41.51875L330.8125 41.51875ZM332.40625 32.425Q332.40625 34.425 333.21875 35.378124Q334.03125 36.33125 335.1875 36.33125Q336.35938 36.33125 337.1875 35.346874Q338.03125 34.3625 338.03125 32.26875Q338.03125 30.3 337.20312 29.315624Q336.39062 28.315624 335.26562 28.315624Q334.14062 28.315624 333.26562 29.378124Q332.40625 30.425 332.40625 32.425Z" fill-rule="nonzero"/></svg>