<svg version="1.1" viewBox="0.0 0.0 600.0 371.0" fill="none" stroke="none" stroke-linecap="square" stroke-miterlimit="10" width="600" height="371" xmlns:xlink="http://www.w3.org/1999/xlink" xmlns="http://www.w3.org/2000/svg"><path fill="#ffffff" d="M0 0L600.0 0L600.0 371.0L0 371.0L0 0Z" fill-rule="nonzero"/><path stroke="#cccccc" stroke-width="1.0" stroke-linecap="butt" d="M163.5 61.5L163.5 300.5" fill-rule="nonzero"/><path stroke="#cccccc" stroke-width="1.0" stroke-linecap="butt" d="M254.5 61.5L254.5 300.5" fill-rule="nonzero"/><path stroke="#cccccc" stroke-width="1.0" stroke-linecap="butt" d="M345.5 61.5L345.5 300.5" fill-rule="nonzero"/><path stroke="#cccccc" stroke-width="1.0" stroke-linecap="butt" d="M436.5 61.5L436.5 300.5" fill-rule="nonzero"/><path stroke="#cccccc" stroke-width="1.0" stroke-linecap="butt" d="M526.5 61.5L526.5 300.5" fill-rule="nonzero"/><path stroke="#333333" stroke-width="1.0" stroke-linecap="butt" d="M77.5 300.5L581.5 300.5" fill-rule="nonzero"/><path stroke="#cccccc" stroke-width="1.0" stroke-linecap="butt" d="M77.5 252.5L581.5 252.5" fill-rule="nonzero"/><path stroke="#cccccc" stroke-width="1.0" stroke-linecap="butt" d="M77.5 205.5L581.5 205.5" fill-rule="nonzero"/><path stroke="#cccccc" stroke-width="1.0" stroke-linecap="butt" d="M77.5 157.5L581.5 157.5" fill-rule="nonzero"/><path stroke="#cccccc" stroke-width="1.0" stroke-linecap="butt" d="M77.5 109.5L581.5 109.5" fill-rule="nonzero"/><path stroke="#cccccc" stroke-width="1.0" stroke-linecap="butt" d="M77.5 61.5L581.5 61.5" fill-rule="nonzero"/><clipPath id="id_0"><path d="M77.55 61.916668L581.45 61.916668L581.45 300.45L77.55 300.45L77.55 61.916668Z" clip-rule="nonzero"/></clipPath><path stroke="#4285f4" stroke-width="2.0" stroke-linecap="butt" clip-path="url(#id_0)" d="M77.55 292.57364L82.08964 285.29837L91.16892 272.47958L109.32748 246.49854L145.64459 206.81613L218.27882 158.2412L290.91306 264.03073L363.5473 268.73938L436.18152 81.78172L508.81577 70.11267L581.45 254.48462" fill-rule="nonzero"/><path fill="#000000" fill-opacity="0.0" clip-path="url(#id_0)" d="M80.55 292.57364C80.55 294.23047 79.206856 295.57364 77.55 295.57364C75.89314 295.57364 74.55 294.23047 74.55 292.57364C74.55 290.91678 75.89314 289.57364 77.55 289.57364C79.206856 289.57364 80.55 290.91678 80.55 292.57364Z" fill-rule="nonzero"/><path fill="#000000" fill-opacity="0.0" clip-path="url(#id_0)" d="M85.08964 285.29837C85.08964 286.95523 83.74649 288.29837 82.08964 288.29837C80.432785 288.29837 79.08964 286.95523 79.08964 285.29837C79.08964 283.6415 80.432785 282.29837 82.08964 282.29837C83.74649 282.29837 85.08964 283.6415 85.08964 285.29837Z" fill-rule="nonzero"/><path fill="#000000" fill-opacity="0.0" clip-path="url(#id_0)" d="M94.16892 272.47958C94.16892 274.13644 92.825775 275.47958 91.16892 275.47958C89.51206 275.47958 88.16892 274.13644 88.16892 272.47958C88.16892 270.82272 89.51206 269.47958 91.16892 269.47958C92.825775 269.47958 94.16892 270.82272 94.16892 272.47958Z" fill-rule="nonzero"/><path fill="#000000" fill-opacity="0.0" clip-path="url(#id_0)" d="M112.32748 246.49854C112.32748 248.15538 110.98433 249.49854 109.32748 249.49854C107.67062 249.49854 106.32748 248.15538 106.32748 246.49854C106.32748 244.84167 107.67062 243.49854 109.32748 243.49854C110.98433 243.49854 112.32748 244.84167 112.32748 246.49854Z" fill-rule="nonzero"/><path fill="#000000" fill-opacity="0.0" clip-path="url(#id_0)" d="M148.64459 206.81613C148.64459 208.47298 147.30145 209.81613 145.64459 209.81613C143.98775 209.81613 142.64459 208.47298 142.64459 206.81613C142.64459 205.15927 143.98775 203.81613 145.64459 203.81613C147.30145 203.81613 148.64459 205.15927 148.64459 206.81613Z" fill-rule="nonzero"/><path fill="#000000" fill-opacity="0.0" clip-path="url(#id_0)" d="M221.27882 158.2412C221.27882 159.89806 219.93568 161.2412 218.27882 161.2412C216.62198 161.2412 215.27882 159.89806 215.27882 158.2412C215.27882 156.58435 216.62198 155.2412 218.27882 155.2412C219.93568 155.2412 221.27882 156.58435 221.27882 158.2412Z" fill-rule="nonzero"/><path fill="#000000" fill-opacity="0.0" clip-path="url(#id_0)" d="M293.91306 264.03073C293.91306 265.6876 292.56992 267.03073 290.91306 267.03073C289.2562 267.03073 287.91306 265.6876 287.91306 264.03073C287.91306 262.37387 289.2562 261.03073 290.91306 261.03073C292.56992 261.03073 293.91306 262.37387 293.91306 264.03073Z" fill-rule="nonzero"/><path fill="#000000" fill-opacity="0.0" clip-path="url(#id_0)" d="M366.5473 268.73938C366.5473 270.39624 365.20416 271.73938 363.5473 271.73938C361.89044 271.73938 360.5473 270.39624 360.5473 268.73938C360.5473 267.08252 361.89044 265.73938 363.5473 265.73938C365.20416 265.73938 366.5473 267.08252 366.5473 268.73938Z" fill-rule="nonzero"/><path fill="#000000" fill-opacity="0.0" clip-path="url(#id_0)" d="M439.18152 81.78172C439.18152 83.438576 437.83838 84.78172 436.18152 84.78172C434.5247 84.78172 433.18152 83.438576 433.18152 81.78172C433.18152 80.12487 434.5247 78.78172 436.18152 78.78172C437.83838 78.78172 439.18152 80.12487 439.18152 81.78172Z" fill-rule="nonzero"/><path fill="#000000" fill-opacity="0.0" clip-path="url(#id_0)" d="M511.81577 70.11267C511.81577 71.76952 510.47263 73.11267 508.81577 73.11267C507.1589 73.11267 505.81577 71.76952 505.81577 70.11267C505.81577 68.45582 507.1589 67.11267 508.81577 67.11267C510.47263 67.11267 511.81577 68.45582 511.81577 70.11267Z" fill-rule="nonzero"/><path fill="#000000" fill-opacity="0.0" clip-path="url(#id_0)" d="M584.45 254.48462C584.45 256.14148 583.1069 257.48462 581.45 257.48462C579.79315 257.48462 578.45 256.14148 578.45 254.48462C578.45 252.82777 579.79315 251.48462 581.45 251.48462C583.1069 251.48462 584.45 252.82777 584.45 254.48462Z" fill-rule="nonzero"/><path fill="#000000" d="M269.79688 342.075L269.79688 340.85626L270.85938 340.85626L270.85938 342.075L269.79688 342.075ZM269.79688 349.45L269.79688 343.23126L270.85938 343.23126L270.85938 349.45L269.79688 349.45ZM272.79688 349.45L272.79688 343.23126L273.73438 343.23126L273.73438 344.10626Q274.42188 343.09064 275.71875 343.09064Q276.28125 343.09064 276.75 343.29376Q277.23438 343.4969 277.46875 343.825Q277.70312 344.15314 277.79688 344.59064Q277.84375 344.8875 277.84375 345.6219L277.84375 349.45L276.79688 349.45L276.79688 345.66876Q276.79688 345.0125 276.67188 344.7Q276.54688 344.3875 276.23438 344.2Q275.92188 343.9969 275.5 343.9969Q274.82812 343.9969 274.32812 344.4344Q273.84375 344.85626 273.84375 346.04376L273.84375 349.45L272.79688 349.45ZM283.85938 347.16876L284.89062 347.3094Q284.71875 348.3719 284.01562 348.98126Q283.3125 349.59064 282.29688 349.59064Q281.01562 349.59064 280.23438 348.7625Q279.46875 347.91876 279.46875 346.35626Q279.46875 345.35626 279.79688 344.60626Q280.14062 343.84064 280.8125 343.46564Q281.5 343.09064 282.3125 343.09064Q283.3125 343.09064 283.95312 343.60626Q284.60938 344.10626 284.79688 345.0594L283.76562 345.21564Q283.625 344.59064 283.25 344.27814Q282.875 343.95 282.34375 343.95Q281.54688 343.95 281.04688 344.52814Q280.54688 345.09064 280.54688 346.325Q280.54688 347.59064 281.03125 348.15314Q281.51562 348.71564 282.28125 348.71564Q282.90625 348.71564 283.3125 348.34064Q283.73438 347.96564 283.85938 347.16876ZM285.40625 346.34064Q285.40625 344.60626 286.35938 343.77814Q287.15625 343.09064 288.3125 343.09064Q289.59375 343.09064 290.40625 343.9344Q291.23438 344.7625 291.23438 346.2469Q291.23438 347.45 290.875 348.1375Q290.51562 348.825 289.8125 349.21564Q289.125 349.59064 288.3125 349.59064Q287.01562 349.59064 286.20312 348.7625Q285.40625 347.91876 285.40625 346.34064ZM286.48438 346.34064Q286.48438 347.52814 287.0 348.1219Q287.53125 348.71564 288.3125 348.71564Q289.10938 348.71564 289.625 348.1219Q290.14062 347.52814 290.14062 346.3094Q290.14062 345.15314 289.60938 344.5594Q289.09375 343.96564 288.3125 343.96564Q287.53125 343.96564 287.0 344.5594Q286.48438 345.1375 286.48438 346.34064ZM292.79688 349.45L292.79688 343.23126L293.73438 343.23126L293.73438 344.10626Q294.03125 343.6375 294.51562 343.3719Q295.0 343.09064 295.625 343.09064Q296.3125 343.09064 296.75 343.3719Q297.20312 343.65314 297.375 344.16876Q298.125 343.09064 299.29688 343.09064Q300.23438 343.09064 300.71875 343.60626Q301.21875 344.10626 301.21875 345.1844L301.21875 349.45L300.17188 349.45L300.17188 345.52814Q300.17188 344.90314 300.0625 344.6219Q299.96875 344.34064 299.70312 344.16876Q299.4375 343.9969 299.0625 343.9969Q298.40625 343.9969 297.96875 344.4344Q297.54688 344.8719 297.54688 345.84064L297.54688 349.45L296.48438 349.45L296.48438 345.40314Q296.48438 344.7 296.21875 344.35626Q295.96875 343.9969 295.39062 343.9969Q294.9375 343.9969 294.5625 344.23126Q294.1875 344.46564 294.01562 344.91876Q293.84375 345.3719 293.84375 346.21564L293.84375 349.45L292.79688 349.45ZM303.79688 342.075L303.79688 340.85626L304.85938 340.85626L304.85938 342.075L303.79688 342.075ZM303.79688 349.45L303.79688 343.23126L304.85938 343.23126L304.85938 349.45L303.79688 349.45ZM306.79688 349.45L306.79688 343.23126L307.73438 343.23126L307.73438 344.10626Q308.42188 343.09064 309.71875 343.09064Q310.28125 343.09064 310.75 343.29376Q311.23438 343.4969 311.46875 343.825Q311.70312 344.15314 311.79688 344.59064Q311.84375 344.8875 311.84375 345.6219L311.84375 349.45L310.79688 349.45L310.79688 345.66876Q310.79688 345.0125 310.67188 344.7Q310.54688 344.3875 310.23438 344.2Q309.92188 343.9969 309.5 343.9969Q308.82812 343.9969 308.32812 344.4344Q307.84375 344.85626 307.84375 346.04376L307.84375 349.45L306.79688 349.45ZM313.59375 349.96564L314.625 350.1219Q314.6875 350.59064 314.98438 350.8094Q315.375 351.10626 316.04688 351.10626Q316.78125 351.10626 317.17188 350.8094Q317.57812 350.5125 317.71875 349.9969Q317.8125 349.66876 317.79688 348.6375Q317.10938 349.45 316.07812 349.45Q314.79688 349.45 314.09375 348.52814Q313.39062 347.59064 313.39062 346.3094Q313.39062 345.41876 313.70312 344.66876Q314.03125 343.90314 314.64062 343.4969Q315.25 343.09064 316.07812 343.09064Q317.1875 343.09064 317.90625 343.98126L317.90625 343.23126L318.875 343.23126L318.875 348.60626Q318.875 350.0594 318.57812 350.66876Q318.28125 351.27814 317.64062 351.6219Q317.0 351.98126 316.0625 351.98126Q314.95312 351.98126 314.26562 351.48126Q313.57812 350.98126 313.59375 349.96564ZM314.46875 346.23126Q314.46875 347.45 314.95312 348.0125Q315.4375 348.575 316.17188 348.575Q316.90625 348.575 317.39062 348.0125Q317.89062 347.45 317.89062 346.2625Q317.89062 345.1219 317.375 344.54376Q316.875 343.96564 316.15625 343.96564Q315.45312 343.96564 314.95312 344.54376Q314.46875 345.10626 314.46875 346.23126ZM327.85938 347.16876L328.89062 347.3094Q328.71875 348.3719 328.01562 348.98126Q327.3125 349.59064 326.29688 349.59064Q325.01562 349.59064 324.23438 348.7625Q323.46875 347.91876 323.46875 346.35626Q323.46875 345.35626 323.79688 344.60626Q324.14062 343.84064 324.8125 343.46564Q325.5 343.09064 326.3125 343.09064Q327.3125 343.09064 327.95312 343.60626Q328.60938 344.10626 328.79688 345.0594L327.76562 345.21564Q327.625 344.59064 327.25 344.27814Q326.875 343.95 326.34375 343.95Q325.54688 343.95 325.04688 344.52814Q324.54688 345.09064 324.54688 346.325Q324.54688 347.59064 325.03125 348.15314Q325.51562 348.71564 326.28125 348.71564Q326.90625 348.71564 327.3125 348.34064Q327.73438 347.96564 327.85938 347.16876ZM329.40625 346.34064Q329.40625 344.60626 330.35938 343.77814Q331.15625 343.09064 332.3125 343.09064Q333.59375 343.09064 334.40625 343.9344Q335.23438 344.7625 335.23438 346.2469Q335.23438 347.45 334.875 348.1375Q334.51562 348.825 333.8125 349.21564Q333.125 349.59064 332.3125 349.59064Q331.01562 349.59064 330.20312 348.7625Q329.40625 347.91876 329.40625 346.34064ZM330.48438 346.34064Q330.48438 347.52814 331.0 348.1219Q331.53125 348.71564 332.3125 348.71564Q333.10938 348.71564 333.625 348.1219Q334.14062 347.52814 334.14062 346.3094Q334.14062 345.15314 333.60938 344.5594Q333.09375 343.96564 332.3125 343.96564Q331.53125 343.96564 331.0 344.5594Q330.48438 345.1375 330.48438 346.34064ZM336.79688 349.45L336.79688 343.23126L337.73438 343.23126L337.73438 344.10626Q338.42188 343.09064 339.71875 343.09064Q340.28125 343.09064 340.75 343.29376Q341.23438 343.4969 341.46875 343.825Q341.70312 344.15314 341.79688 344.59064Q341.84375 344.8875 341.84375 345.6219L341.84375 349.45L340.79688 349.45L340.79688 345.66876Q340.79688 345.0125 340.67188 344.7Q340.54688 344.3875 340.23438 344.2Q339.92188 343.9969 339.5 343.9969Q338.82812 343.9969 338.32812 344.4344Q337.84375 344.85626 337.84375 346.04376L337.84375 349.45L336.79688 349.45ZM343.79688 349.45L343.79688 343.23126L344.73438 343.23126L344.73438 344.10626Q345.42188 343.09064 346.71875 343.09064Q347.28125 343.09064 347.75 343.29376Q348.23438 343.4969 348.46875 343.825Q348.70312 344.15314 348.79688 344.59064Q348.84375 344.8875 348.84375 345.6219L348.84375 349.45L347.79688 349.45L347.79688 345.66876Q347.79688 345.0125 347.67188 344.7Q347.54688 344.3875 347.23438 344.2Q346.92188 343.9969 346.5 343.9969Q345.82812 343.9969 345.32812 344.4344Q344.84375 344.85626 344.84375 346.04376L344.84375 349.45L343.79688 349.45ZM355.04688 347.45L356.14062 347.575Q355.89062 348.52814 355.1875 349.0594Q354.48438 349.59064 353.40625 349.59064Q352.04688 349.59064 351.23438 348.7469Q350.4375 347.90314 350.4375 346.3875Q350.4375 344.825 351.25 343.96564Q352.0625 343.09064 353.34375 343.09064Q354.59375 343.09064 355.375 343.9344Q356.17188 344.77814 356.17188 346.325Q356.17188 346.41876 356.17188 346.60626L351.53125 346.60626Q351.59375 347.6375 352.10938 348.1844Q352.625 348.71564 353.40625 348.71564Q353.98438 348.71564 354.39062 348.41876Q354.8125 348.10626 355.04688 347.45ZM351.59375 345.7469L355.0625 345.7469Q355.0 344.95 354.67188 344.5594Q354.15625 343.95 353.35938 343.95Q352.625 343.95 352.125 344.4344Q351.64062 344.91876 351.59375 345.7469ZM361.85938 347.16876L362.89062 347.3094Q362.71875 348.3719 362.01562 348.98126Q361.3125 349.59064 360.29688 349.59064Q359.01562 349.59064 358.23438 348.7625Q357.46875 347.91876 357.46875 346.35626Q357.46875 345.35626 357.79688 344.60626Q358.14062 343.84064 358.8125 343.46564Q359.5 343.09064 360.3125 343.09064Q361.3125 343.09064 361.95312 343.60626Q362.60938 344.10626 362.79688 345.0594L361.76562 345.21564Q361.625 344.59064 361.25 344.27814Q360.875 343.95 360.34375 343.95Q359.54688 343.95 359.04688 344.52814Q358.54688 345.09064 358.54688 346.325Q358.54688 347.59064 359.03125 348.15314Q359.51562 348.71564 360.28125 348.71564Q360.90625 348.71564 361.3125 348.34064Q361.73438 347.96564 361.85938 347.16876ZM366.09375 348.5125L366.25 349.4344Q365.79688 349.52814 365.45312 349.52814Q364.875 349.52814 364.5625 349.35626Q364.25 349.16876 364.10938 348.8719Q363.98438 348.575 363.98438 347.6219L363.98438 344.04376L363.21875 344.04376L363.21875 343.23126L363.98438 343.23126L363.98438 341.6844L365.03125 341.0594L365.03125 343.23126L366.09375 343.23126L366.09375 344.04376L365.03125 344.04376L365.03125 347.6844Q365.03125 348.1375 365.07812 348.2625Q365.14062 348.3875 365.26562 348.46564Q365.39062 348.54376 365.625 348.54376Q365.8125 348.54376 366.09375 348.5125ZM366.79688 342.075L366.79688 340.85626L367.85938 340.85626L367.85938 342.075L366.79688 342.075ZM366.79688 349.45L366.79688 343.23126L367.85938 343.23126L367.85938 349.45L366.79688 349.45ZM369.40625 346.34064Q369.40625 344.60626 370.35938 343.77814Q371.15625 343.09064 372.3125 343.09064Q373.59375 343.09064 374.40625 343.9344Q375.23438 344.7625 375.23438 346.2469Q375.23438 347.45 374.875 348.1375Q374.51562 348.825 373.8125 349.21564Q373.125 349.59064 372.3125 349.59064Q371.01562 349.59064 370.20312 348.7625Q369.40625 347.91876 369.40625 346.34064ZM370.48438 346.34064Q370.48438 347.52814 371.0 348.1219Q371.53125 348.71564 372.3125 348.71564Q373.10938 348.71564 373.625 348.1219Q374.14062 347.52814 374.14062 346.3094Q374.14062 345.15314 373.60938 344.5594Q373.09375 343.96564 372.3125 343.96564Q371.53125 343.96564 371.0 344.5594Q370.48438 345.1375 370.48438 346.34064ZM376.79688 349.45L376.79688 343.23126L377.73438 343.23126L377.73438 344.10626Q378.42188 343.09064 379.71875 343.09064Q380.28125 343.09064 380.75 343.29376Q381.23438 343.4969 381.46875 343.825Q381.70312 344.15314 381.79688 344.59064Q381.84375 344.8875 381.84375 345.6219L381.84375 349.45L380.79688 349.45L380.79688 345.66876Q380.79688 345.0125 380.67188 344.7Q380.54688 344.3875 380.23438 344.2Q379.92188 343.9969 379.5 343.9969Q378.82812 343.9969 378.32812 344.4344Q377.84375 344.85626 377.84375 346.04376L377.84375 349.45L376.79688 349.45ZM383.375 347.59064L384.40625 347.4344Q384.5 348.0594 384.89062 348.3875Q385.29688 348.71564 386.03125 348.71564Q386.75 348.71564 387.09375 348.4344Q387.45312 348.1375 387.45312 347.73126Q387.45312 347.3719 387.14062 347.16876Q386.92188 347.02814 386.0625 346.8094Q384.90625 346.5125 384.45312 346.3094Q384.01562 346.09064 383.78125 345.71564Q383.54688 345.34064 383.54688 344.8719Q383.54688 344.46564 383.73438 344.10626Q383.92188 343.7469 384.25 343.5125Q384.5 343.34064 384.92188 343.21564Q385.34375 343.09064 385.84375 343.09064Q386.5625 343.09064 387.10938 343.3094Q387.67188 343.5125 387.9375 343.8719Q388.20312 344.23126 388.29688 344.825L387.26562 344.96564Q387.20312 344.4969 386.85938 344.23126Q386.53125 343.95 385.90625 343.95Q385.1875 343.95 384.875 344.2Q384.5625 344.4344 384.5625 344.7625Q384.5625 344.96564 384.6875 345.1219Q384.82812 345.29376 385.09375 345.40314Q385.25 345.46564 386.03125 345.66876Q387.15625 345.98126 387.59375 346.16876Q388.03125 346.35626 388.28125 346.71564Q388.53125 347.075 388.53125 347.6219Q388.53125 348.15314 388.21875 348.6219Q387.92188 349.075 387.34375 349.34064Q386.76562 349.59064 386.03125 349.59064Q384.8125 349.59064 384.17188 349.09064Q383.54688 348.575 383.375 347.59064Z" fill-rule="nonzero"/><path fill="#000000" d="M29.550013 243.90208L23.331263 243.90208L23.331263 242.94896L24.268763 242.94896Q23.612513 242.58958 23.409388 242.29271Q23.190638 241.98021 23.190638 241.60521Q23.190638 241.07396 23.518763 240.52708L24.503138 240.88646Q24.268763 241.27708 24.268763 241.65208Q24.268763 242.01146 24.487513 242.29271Q24.690638 242.55833 25.065638 242.66771Q25.628138 242.85521 26.284388 242.85521L29.550013 242.85521L29.550013 243.90208ZM27.550013 235.63646L27.675013 234.54271Q28.628138 234.79271 29.159388 235.49583Q29.690638 236.19896 29.690638 237.27708Q29.690638 238.63646 28.846888 239.44896Q28.003138 240.24583 26.487513 240.24583Q24.925013 240.24583 24.065638 239.43333Q23.190638 238.62083 23.190638 237.33958Q23.190638 236.08958 24.034388 235.30833Q24.878138 234.51146 26.425013 234.51146Q26.518763 234.51146 26.706263 234.51146L26.706263 239.15208Q27.737513 239.08958 28.284388 238.57396Q28.815638 238.05833 28.815638 237.27708Q28.815638 236.69896 28.518763 236.29271Q28.206263 235.87083 27.550013 235.63646ZM25.846888 239.08958L25.846888 235.62083Q25.050013 235.68333 24.659388 236.01146Q24.050013 236.52708 24.050013 237.32396Q24.050013 238.05833 24.534388 238.55833Q25.018763 239.04271 25.846888 239.08958ZM31.940638 228.91771L28.893763 228.91771Q29.237513 229.16771 29.471888 229.62083Q29.690638 230.05833 29.690638 230.55833Q29.690638 231.66771 28.815638 232.46458Q27.925013 233.26146 26.378138 233.26146Q25.440638 233.26146 24.706263 232.93333Q23.956263 232.60521 23.581263 231.99583Q23.190638 231.37083 23.190638 230.63646Q23.190638 229.48021 24.159388 228.82396L23.331263 228.82396L23.331263 227.87083L31.940638 227.87083L31.940638 228.91771ZM26.425013 232.18333Q27.628138 232.18333 28.221888 231.68333Q28.815638 231.16771 28.815638 230.46458Q28.815638 229.79271 28.253138 229.30833Q27.675013 228.82396 26.518763 228.82396Q25.268763 228.82396 24.643763 229.33958Q24.018763 229.83958 24.018763 230.54271Q24.018763 231.21458 24.612513 231.69896Q25.190638 232.18333 26.425013 232.18333ZM29.550013 221.80833L28.628138 221.80833Q29.690638 222.54271 29.690638 223.79271Q29.690638 224.33958 29.487513 224.82396Q29.268763 225.29271 28.956263 225.52708Q28.628138 225.76146 28.159388 225.85521Q27.862513 225.91771 27.175013 225.91771L23.331263 225.91771L23.331263 224.85521L26.784388 224.85521Q27.596888 224.85521 27.893763 224.79271Q28.300013 224.69896 28.550013 224.38646Q28.784388 224.05833 28.784388 223.57396Q28.784388 223.10521 28.550013 222.69896Q28.300013 222.27708 27.878138 222.10521Q27.456263 221.91771 26.659388 221.91771L23.331263 221.91771L23.331263 220.87083L29.550013 220.87083L29.550013 221.80833ZM27.550013 214.63646L27.675013 213.54271Q28.628138 213.79271 29.159388 214.49583Q29.690638 215.19896 29.690638 216.27708Q29.690638 217.63646 28.846888 218.44896Q28.003138 219.24583 26.487513 219.24583Q24.925013 219.24583 24.065638 218.43333Q23.190638 217.62083 23.190638 216.33958Q23.190638 215.08958 24.034388 214.30833Q24.878138 213.51146 26.425013 213.51146Q26.518763 213.51146 26.706263 213.51146L26.706263 218.15208Q27.737513 218.08958 28.284388 217.57396Q28.815638 217.05833 28.815638 216.27708Q28.815638 215.69896 28.518763 215.29271Q28.206263 214.87083 27.550013 214.63646ZM25.846888 218.08958L25.846888 214.62083Q25.050013 214.68333 24.659388 215.01146Q24.050013 215.52708 24.050013 216.32396Q24.050013 217.05833 24.534388 217.55833Q25.018763 218.04271 25.846888 218.08958ZM27.690638 212.30833L27.534388 211.27708Q28.159388 211.18333 28.487513 210.79271Q28.815638 210.38646 28.815638 209.65208Q28.815638 208.93333 28.534388 208.58958Q28.237513 208.23021 27.831263 208.23021Q27.471888 208.23021 27.268763 208.54271Q27.128138 208.76146 26.909388 209.62083Q26.612513 210.77708 26.409388 211.23021Q26.190638 211.66771 25.815638 211.90208Q25.440638 212.13646 24.971888 212.13646Q24.565638 212.13646 24.206263 211.94896Q23.846888 211.76146 23.612513 211.43333Q23.440638 211.18333 23.315638 210.76146Q23.190638 210.33958 23.190638 209.83958Q23.190638 209.12083 23.409388 208.57396Q23.612513 208.01146 23.971888 207.74583Q24.331263 207.48021 24.925013 207.38646L25.065638 208.41771Q24.596888 208.48021 24.331263 208.82396Q24.050013 209.15208 24.050013 209.77708Q24.050013 210.49583 24.300013 210.80833Q24.534388 211.12083 24.862513 211.12083Q25.065638 211.12083 25.221888 210.99583Q25.393763 210.85521 25.503138 210.58958Q25.565638 210.43333 25.768763 209.65208Q26.081263 208.52708 26.268763 208.08958Q26.456263 207.65208 26.815638 207.40208Q27.175013 207.15208 27.721888 207.15208Q28.253138 207.15208 28.721888 207.46458Q29.175013 207.76146 29.440638 208.33958Q29.690638 208.91771 29.690638 209.65208Q29.690638 210.87083 29.190638 211.51146Q28.675013 212.13646 27.690638 212.30833ZM28.612513 202.58958L29.534388 202.43333Q29.628138 202.88646 29.628138 203.23021Q29.628138 203.80833 29.456263 204.12083Q29.268763 204.43333 28.971888 204.57396Q28.675013 204.69896 27.721888 204.69896L24.143763 204.69896L24.143763 205.46458L23.331263 205.46458L23.331263 204.69896L21.784388 204.69896L21.159388 203.65208L23.331263 203.65208L23.331263 202.58958L24.143763 202.58958L24.143763 203.65208L27.784388 203.65208Q28.237513 203.65208 28.362513 203.60521Q28.487513 203.54271 28.565638 203.41771Q28.643763 203.29271 28.643763 203.05833Q28.643763 202.87083 28.612513 202.58958ZM27.690638 202.30833L27.534388 201.27708Q28.159388 201.18333 28.487513 200.79271Q28.815638 200.38646 28.815638 199.65208Q28.815638 198.93333 28.534388 198.58958Q28.237513 198.23021 27.831263 198.23021Q27.471888 198.23021 27.268763 198.54271Q27.128138 198.76146 26.909388 199.62083Q26.612513 200.77708 26.409388 201.23021Q26.190638 201.66771 25.815638 201.90208Q25.440638 202.13646 24.971888 202.13646Q24.565638 202.13646 24.206263 201.94896Q23.846888 201.76146 23.612513 201.43333Q23.440638 201.18333 23.315638 200.76146Q23.190638 200.33958 23.190638 199.83958Q23.190638 199.12083 23.409388 198.57396Q23.612513 198.01146 23.971888 197.74583Q24.331263 197.48021 24.925013 197.38646L25.065638 198.41771Q24.596888 198.48021 24.331263 198.82396Q24.050013 199.15208 24.050013 199.77708Q24.050013 200.49583 24.300013 200.80833Q24.534388 201.12083 24.862513 201.12083Q25.065638 201.12083 25.221888 200.99583Q25.393763 200.85521 25.503138 200.58958Q25.565638 200.43333 25.768763 199.65208Q26.081263 198.52708 26.268763 198.08958Q26.456263 197.65208 26.815638 197.40208Q27.175013 197.15208 27.721888 197.15208Q28.253138 197.15208 28.721888 197.46458Q29.175013 197.76146 29.440638 198.33958Q29.690638 198.91771 29.690638 199.65208Q29.690638 200.87083 29.190638 201.51146Q28.675013 202.13646 27.690638 202.30833ZM31.940638 191.88646L23.331263 191.88646L23.331263 190.93333L24.128138 190.93333Q23.659388 190.58958 23.425013 190.16771Q23.190638 189.73021 23.190638 189.12083Q23.190638 188.32396 23.596888 187.71458Q24.003138 187.10521 24.753138 186.80833Q25.503138 186.49583 26.393763 186.49583Q27.346888 186.49583 28.112513 186.83958Q28.878138 187.16771 29.284388 187.82396Q29.690638 188.48021 29.690638 189.19896Q29.690638 189.73021 29.471888 190.15208Q29.237513 190.57396 28.909388 190.83958L31.940638 190.83958L31.940638 191.88646ZM26.471888 190.93333Q27.675013 190.93333 28.253138 190.44896Q28.815638 189.96458 28.815638 189.27708Q28.815638 188.57396 28.221888 188.07396Q27.628138 187.57396 26.378138 187.57396Q25.190638 187.57396 24.612513 188.05833Q24.018763 188.54271 24.018763 189.23021Q24.018763 189.90208 24.643763 190.41771Q25.268763 190.93333 26.471888 190.93333ZM27.550013 180.63646L27.675013 179.54271Q28.628138 179.79271 29.159388 180.49583Q29.690638 181.19896 29.690638 182.27708Q29.690638 183.63646 28.846888 184.44896Q28.003138 185.24583 26.487513 185.24583Q24.925013 185.24583 24.065638 184.43333Q23.190638 183.62083 23.190638 182.33958Q23.190638 181.08958 24.034388 180.30833Q24.878138 179.51146 26.425013 179.51146Q26.518763 179.51146 26.706263 179.51146L26.706263 184.15208Q27.737513 184.08958 28.284388 183.57396Q28.815638 183.05833 28.815638 182.27708Q28.815638 181.69896 28.518763 181.29271Q28.206263 180.87083 27.550013 180.63646ZM25.846888 184.08958L25.846888 180.62083Q25.050013 180.68333 24.659388 181.01146Q24.050013 181.52708 24.050013 182.32396Q24.050013 183.05833 24.534388 183.55833Q25.018763 184.04271 25.846888 184.08958ZM29.550013 177.90208L23.331263 177.90208L23.331263 176.94896L24.268763 176.94896Q23.612513 176.58958 23.409388 176.29271Q23.190638 175.98021 23.190638 175.60521Q23.190638 175.07396 23.518763 174.52708L24.503138 174.88646Q24.268763 175.27708 24.268763 175.65208Q24.268763 176.01146 24.487513 176.29271Q24.690638 176.55833 25.065638 176.66771Q25.628138 176.85521 26.284388 176.85521L29.550013 176.85521L29.550013 177.90208ZM27.690638 171.30833L27.534388 170.27708Q28.159388 170.18333 28.487513 169.79271Q28.815638 169.38646 28.815638 168.65208Q28.815638 167.93333 28.534388 167.58958Q28.237513 167.23021 27.831263 167.23021Q27.471888 167.23021 27.268763 167.54271Q27.128138 167.76146 26.909388 168.62083Q26.612513 169.77708 26.409388 170.23021Q26.190638 170.66771 25.815638 170.90208Q25.440638 171.13646 24.971888 171.13646Q24.565638 171.13646 24.206263 170.94896Q23.846888 170.76146 23.612513 170.43333Q23.440638 170.18333 23.315638 169.76146Q23.190638 169.33958 23.190638 168.83958Q23.190638 168.12083 23.409388 167.57396Q23.612513 167.01146 23.971888 166.74583Q24.331263 166.48021 24.925013 166.38646L25.065638 167.41771Q24.596888 167.48021 24.331263 167.82396Q24.050013 168.15208 24.050013 168.77708Q24.050013 169.49583 24.300013 169.80833Q24.534388 170.12083 24.862513 170.12083Q25.065638 170.12083 25.221888 169.99583Q25.393763 169.85521 25.503138 169.58958Q25.565638 169.43333 25.768763 168.65208Q26.081263 167.52708 26.268763 167.08958Q26.456263 166.65208 26.815638 166.40208Q27.175013 166.15208 27.721888 166.15208Q28.253138 166.15208 28.721888 166.46458Q29.175013 166.76146 29.440638 167.33958Q29.690638 167.91771 29.690638 168.65208Q29.690638 169.87083 29.190638 170.51146Q28.675013 171.13646 27.690638 171.30833ZM27.550013 159.63646L27.675013 158.54271Q28.628138 158.79271 29.159388 159.49583Q29.690638 160.19896 29.690638 161.27708Q29.690638 162.63646 28.846888 163.44896Q28.003138 164.24583 26.487513 164.24583Q24.925013 164.24583 24.065638 163.43333Q23.190638 162.62083 23.190638 161.33958Q23.190638 160.08958 24.034388 159.30833Q24.878138 158.51146 26.425013 158.51146Q26.518763 158.51146 26.706263 158.51146L26.706263 163.15208Q27.737513 163.08958 28.284388 162.57396Q28.815638 162.05833 28.815638 161.27708Q28.815638 160.69896 28.518763 160.29271Q28.206263 159.87083 27.550013 159.63646ZM25.846888 163.08958L25.846888 159.62083Q25.050013 159.68333 24.659388 160.01146Q24.050013 160.52708 24.050013 161.32396Q24.050013 162.05833 24.534388 162.55833Q25.018763 163.04271 25.846888 163.08958ZM27.268763 152.82396L27.409388 151.79271Q28.471888 151.96458 29.081263 152.66771Q29.690638 153.37083 29.690638 154.38646Q29.690638 155.66771 28.862513 156.44896Q28.018763 157.21458 26.456263 157.21458Q25.456263 157.21458 24.706263 156.88646Q23.940638 156.54271 23.565638 155.87083Q23.190638 155.18333 23.190638 154.37083Q23.190638 153.37083 23.706263 152.73021Q24.206263 152.07396 25.159388 151.88646L25.315638 152.91771Q24.690638 153.05833 24.378138 153.43333Q24.050013 153.80833 24.050013 154.33958Q24.050013 155.13646 24.628138 155.63646Q25.190638 156.13646 26.425013 156.13646Q27.690638 156.13646 28.253138 155.65208Q28.815638 155.16771 28.815638 154.40208Q28.815638 153.77708 28.440638 153.37083Q28.065638 152.94896 27.268763 152.82396ZM26.440638 151.27708Q24.706263 151.27708 23.878138 150.32396Q23.190638 149.52708 23.190638 148.37083Q23.190638 147.08958 24.034388 146.27708Q24.862513 145.44896 26.346888 145.44896Q27.550013 145.44896 28.237513 145.80833Q28.925013 146.16771 29.315638 146.87083Q29.690638 147.55833 29.690638 148.37083Q29.690638 149.66771 28.862513 150.48021Q28.018763 151.27708 26.440638 151.27708ZM26.440638 150.19896Q27.628138 150.19896 28.221888 149.68333Q28.815638 149.15208 28.815638 148.37083Q28.815638 147.57396 28.221888 147.05833Q27.628138 146.54271 26.409388 146.54271Q25.253138 146.54271 24.659388 147.07396Q24.065638 147.58958 24.065638 148.37083Q24.065638 149.15208 24.659388 149.68333Q25.237513 150.19896 26.440638 150.19896ZM29.550013 143.88646L23.331263 143.88646L23.331263 142.94896L24.206263 142.94896Q23.190638 142.26146 23.190638 140.96458Q23.190638 140.40208 23.393763 139.93333Q23.596888 139.44896 23.925013 139.21458Q24.253138 138.98021 24.690638 138.88646Q24.987513 138.83958 25.721888 138.83958L29.550013 138.83958L29.550013 139.88646L25.768763 139.88646Q25.112513 139.88646 24.800013 140.01146Q24.487513 140.13646 24.300013 140.44896Q24.096888 140.76146 24.096888 141.18333Q24.096888 141.85521 24.534388 142.35521Q24.956263 142.83958 26.143763 142.83958L29.550013 142.83958L29.550013 143.88646ZM29.550013 132.85521L28.768763 132.85521Q29.690638 133.44896 29.690638 134.58958Q29.690638 135.33958 29.284388 135.96458Q28.862513 136.58958 28.128138 136.93333Q27.393763 137.27708 26.440638 137.27708Q25.518763 137.27708 24.753138 136.96458Q23.987513 136.65208 23.596888 136.02708Q23.190638 135.40208 23.190638 134.63646Q23.190638 134.07396 23.425013 133.63646Q23.659388 133.19896 24.034388 132.91771L20.956263 132.91771L20.956263 131.87083L29.550013 131.87083L29.550013 132.85521ZM26.440638 136.18333Q27.643763 136.18333 28.237513 135.68333Q28.815638 135.18333 28.815638 134.49583Q28.815638 133.80833 28.253138 133.32396Q27.690638 132.83958 26.534388 132.83958Q25.253138 132.83958 24.659388 133.33958Q24.065638 133.82396 24.065638 134.54271Q24.065638 135.24583 24.643763 135.71458Q25.206263 136.18333 26.440638 136.18333Z" fill-rule="nonzero"/><path fill="#000000" d="M65.05 300.21564Q65.05 298.6844 65.3625 297.7625Q65.675 296.825 66.28438 296.325Q66.90938 295.825 67.84688 295.825Q68.53438 295.825 69.05 296.10626Q69.58125 296.3875 69.925 296.91876Q70.26875 297.4344 70.45625 298.1844Q70.64375 298.9344 70.64375 300.21564Q70.64375 301.73126 70.33125 302.65314Q70.03438 303.575 69.40938 304.09064Q68.8 304.59064 67.84688 304.59064Q66.6125 304.59064 65.89375 303.7Q65.05 302.6375 65.05 300.21564ZM66.12813 300.21564Q66.12813 302.325 66.62813 303.02814Q67.12813 303.73126 67.84688 303.73126Q68.58125 303.73126 69.06563 303.02814Q69.56563 302.325 69.56563 300.21564Q69.56563 298.09064 69.06563 297.40314Q68.58125 296.7 67.83125 296.7Q67.1125 296.7 66.675 297.3094Q66.12813 298.09064 66.12813 300.21564Z" fill-rule="nonzero"/><path fill="#000000" d="M55.01875 256.74335L53.971874 256.74335L53.971874 250.0246Q53.58125 250.38397 52.95625 250.75897Q52.346874 251.11835 51.8625 251.29022L51.8625 250.2746Q52.7375 249.85272 53.39375 249.2746Q54.065624 248.68085 54.346874 248.11835L55.01875 248.11835L55.01875 256.74335ZM58.05 252.50897Q58.05 250.97772 58.3625 250.05585Q58.675 249.11835 59.284374 248.61835Q59.909374 248.11835 60.846874 248.11835Q61.534374 248.11835 62.05 248.3996Q62.58125 248.68085 62.925 249.2121Q63.26875 249.72772 63.45625 250.47772Q63.64375 251.22772 63.64375 252.50897Q63.64375 254.0246 63.33125 254.94647Q63.034374 255.86835 62.409374 256.38397Q61.8 256.88397 60.846874 256.88397Q59.6125 256.88397 58.89375 255.99335Q58.05 254.93085 58.05 252.50897ZM59.128124 252.50897Q59.128124 254.61835 59.628124 255.32147Q60.128124 256.0246 60.846874 256.0246Q61.58125 256.0246 62.065624 255.32147Q62.565624 254.61835 62.565624 252.50897Q62.565624 250.38397 62.065624 249.69647Q61.58125 248.99335 60.83125 248.99335Q60.1125 248.99335 59.675 249.60272Q59.128124 250.38397 59.128124 252.50897ZM65.05 252.50897Q65.05 250.97772 65.3625 250.05585Q65.675 249.11835 66.28438 248.61835Q66.90938 248.11835 67.84688 248.11835Q68.53438 248.11835 69.05 248.3996Q69.58125 248.68085 69.925 249.2121Q70.26875 249.72772 70.45625 250.47772Q70.64375 251.22772 70.64375 252.50897Q70.64375 254.0246 70.33125 254.94647Q70.03438 255.86835 69.40938 256.38397Q68.8 256.88397 67.84688 256.88397Q66.6125 256.88397 65.89375 255.99335Q65.05 254.93085 65.05 252.50897ZM66.12813 252.50897Q66.12813 254.61835 66.62813 255.32147Q67.12813 256.0246 67.84688 256.0246Q68.58125 256.0246 69.06563 255.32147Q69.56563 254.61835 69.56563 252.50897Q69.56563 250.38397 69.06563 249.69647Q68.58125 248.99335 67.83125 248.99335Q67.1125 248.99335 66.675 249.60272Q66.12813 250.38397 66.12813 252.50897Z" fill-rule="nonzero"/><path fill="#000000" d="M56.596874 208.02104L56.596874 209.03667L50.909374 209.03667Q50.909374 208.66167 51.034374 208.30229Q51.253124 207.72417 51.721874 207.16167Q52.20625 206.59917 53.1125 205.86479Q54.51875 204.70854 55.003124 204.03667Q55.503124 203.36479 55.503124 202.77104Q55.503124 202.14604 55.05 201.72417Q54.596874 201.28667 53.878124 201.28667Q53.1125 201.28667 52.659374 201.73979Q52.20625 202.19292 52.190624 203.00542L51.1125 202.89604Q51.221874 201.67729 51.940624 201.05229Q52.675 200.41167 53.909374 200.41167Q55.14375 200.41167 55.8625 201.09917Q56.58125 201.78667 56.58125 202.80229Q56.58125 203.31792 56.3625 203.81792Q56.159374 204.30229 55.659374 204.86479Q55.175 205.41167 54.05 206.36479Q53.096874 207.16167 52.815624 207.45854Q52.55 207.73979 52.378124 208.02104L56.596874 208.02104ZM58.05 204.80229Q58.05 203.27104 58.3625 202.34917Q58.675 201.41167 59.284374 200.91167Q59.909374 200.41167 60.846874 200.41167Q61.534374 200.41167 62.05 200.69292Q62.58125 200.97417 62.925 201.50542Q63.26875 202.02104 63.45625 202.77104Q63.64375 203.52104 63.64375 204.80229Q63.64375 206.31792 63.33125 207.23979Q63.034374 208.16167 62.409374 208.67729Q61.8 209.17729 60.846874 209.17729Q59.6125 209.17729 58.89375 208.28667Q58.05 207.22417 58.05 204.80229ZM59.128124 204.80229Q59.128124 206.91167 59.628124 207.61479Q60.128124 208.31792 60.846874 208.31792Q61.58125 208.31792 62.065624 207.61479Q62.565624 206.91167 62.565624 204.80229Q62.565624 202.67729 62.065624 201.98979Q61.58125 201.28667 60.83125 201.28667Q60.1125 201.28667 59.675 201.89604Q59.128124 202.67729 59.128124 204.80229ZM65.05 204.80229Q65.05 203.27104 65.3625 202.34917Q65.675 201.41167 66.28438 200.91167Q66.90938 200.41167 67.84688 200.41167Q68.53438 200.41167 69.05 200.69292Q69.58125 200.97417 69.925 201.50542Q70.26875 202.02104 70.45625 202.77104Q70.64375 203.52104 70.64375 204.80229Q70.64375 206.31792 70.33125 207.23979Q70.03438 208.16167 69.40938 208.67729Q68.8 209.17729 67.84688 209.17729Q66.6125 209.17729 65.89375 208.28667Q65.05 207.22417 65.05 204.80229ZM66.12813 204.80229Q66.12813 206.91167 66.62813 207.61479Q67.12813 208.31792 67.84688 208.31792Q68.58125 208.31792 69.06563 207.61479Q69.56563 206.91167 69.56563 204.80229Q69.56563 202.67729 69.06563 201.98979Q68.58125 201.28667 67.83125 201.28667Q67.1125 201.28667 66.675 201.89604Q66.12813 202.67729 66.12813 204.80229Z" fill-rule="nonzero"/><path fill="#000000" d="M51.05 159.06438L52.1125 158.92375Q52.284374 159.81438 52.721874 160.22063Q53.159374 160.61125 53.784374 160.61125Q54.534374 160.61125 55.05 160.09563Q55.565624 159.58 55.565624 158.81438Q55.565624 158.09563 55.08125 157.62688Q54.6125 157.1425 53.878124 157.1425Q53.58125 157.1425 53.128124 157.2675L53.253124 156.33Q53.3625 156.34563 53.425 156.34563Q54.096874 156.34563 54.628124 156.00188Q55.175 155.6425 55.175 154.90813Q55.175 154.33 54.784374 153.955Q54.39375 153.56438 53.76875 153.56438Q53.159374 153.56438 52.7375 153.955Q52.33125 154.34563 52.221874 155.11125L51.159374 154.92375Q51.346874 153.87688 52.034374 153.29875Q52.721874 152.705 53.7375 152.705Q54.440624 152.705 55.034374 153.0175Q55.628124 153.31438 55.940624 153.83Q56.253124 154.34563 56.253124 154.93938Q56.253124 155.48625 55.95625 155.955Q55.659374 156.40813 55.08125 156.67375Q55.83125 156.84563 56.253124 157.40813Q56.675 157.955 56.675 158.79875Q56.675 159.92375 55.846874 160.705Q55.034374 161.48625 53.784374 161.48625Q52.659374 161.48625 51.909374 160.81438Q51.159374 160.12688 51.05 159.06438ZM58.05 157.09563Q58.05 155.56438 58.3625 154.6425Q58.675 153.705 59.284374 153.205Q59.909374 152.705 60.846874 152.705Q61.534374 152.705 62.05 152.98625Q62.58125 153.2675 62.925 153.79875Q63.26875 154.31438 63.45625 155.06438Q63.64375 155.81438 63.64375 157.09563Q63.64375 158.61125 63.33125 159.53313Q63.034374 160.455 62.409374 160.97063Q61.8 161.47063 60.846874 161.47063Q59.6125 161.47063 58.89375 160.58Q58.05 159.5175 58.05 157.09563ZM59.128124 157.09563Q59.128124 159.205 59.628124 159.90813Q60.128124 160.61125 60.846874 160.61125Q61.58125 160.61125 62.065624 159.90813Q62.565624 159.205 62.565624 157.09563Q62.565624 154.97063 62.065624 154.28313Q61.58125 153.58 60.83125 153.58Q60.1125 153.58 59.675 154.18938Q59.128124 154.97063 59.128124 157.09563ZM65.05 157.09563Q65.05 155.56438 65.3625 154.6425Q65.675 153.705 66.28438 153.205Q66.90938 152.705 67.84688 152.705Q68.53438 152.705 69.05 152.98625Q69.58125 153.2675 69.925 153.79875Q70.26875 154.31438 70.45625 155.06438Q70.64375 155.81438 70.64375 157.09563Q70.64375 158.61125 70.33125 159.53313Q70.03438 160.455 69.40938 160.97063Q68.8 161.47063 67.84688 161.47063Q66.6125 161.47063 65.89375 160.58Q65.05 159.5175 65.05 157.09563ZM66.12813 157.09563Q66.12813 159.205 66.62813 159.90813Q67.12813 160.61125 67.84688 160.61125Q68.58125 160.61125 69.06563 159.90813Q69.56563 159.205 69.56563 157.09563Q69.56563 154.97063 69.06563 154.28313Q68.58125 153.58 67.83125 153.58Q67.1125 153.58 66.675 154.18938Q66.12813 154.97063 66.12813 157.09563Z" fill-rule="nonzero"/><path fill="#000000" d="M54.425 113.62334L54.425 111.56084L50.70625 111.56084L50.70625 110.59209L54.628124 105.02959L55.4875 105.02959L55.4875 110.59209L56.64375 110.59209L56.64375 111.56084L55.4875 111.56084L55.4875 113.62334L54.425 113.62334ZM54.425 110.59209L54.425 106.73271L51.7375 110.59209L54.425 110.59209ZM58.05 109.38896Q58.05 107.85771 58.3625 106.93584Q58.675 105.99834 59.284374 105.49834Q59.909374 104.99834 60.846874 104.99834Q61.534374 104.99834 62.05 105.27959Q62.58125 105.56084 62.925 106.09209Q63.26875 106.60771 63.45625 107.35771Q63.64375 108.10771 63.64375 109.38896Q63.64375 110.90459 63.33125 111.82646Q63.034374 112.74834 62.409374 113.26396Q61.8 113.76396 60.846874 113.76396Q59.6125 113.76396 58.89375 112.87334Q58.05 111.81084 58.05 109.38896ZM59.128124 109.38896Q59.128124 111.49834 59.628124 112.20146Q60.128124 112.90459 60.846874 112.90459Q61.58125 112.90459 62.065624 112.20146Q62.565624 111.49834 62.565624 109.38896Q62.565624 107.26396 62.065624 106.57646Q61.58125 105.87334 60.83125 105.87334Q60.1125 105.87334 59.675 106.48271Q59.128124 107.26396 59.128124 109.38896ZM65.05 109.38896Q65.05 107.85771 65.3625 106.93584Q65.675 105.99834 66.28438 105.49834Q66.90938 104.99834 67.84688 104.99834Q68.53438 104.99834 69.05 105.27959Q69.58125 105.56084 69.925 106.09209Q70.26875 106.60771 70.45625 107.35771Q70.64375 108.10771 70.64375 109.38896Q70.64375 110.90459 70.33125 111.82646Q70.03438 112.74834 69.40938 113.26396Q68.8 113.76396 67.84688 113.76396Q66.6125 113.76396 65.89375 112.87334Q65.05 111.81084 65.05 109.38896ZM66.12813 109.38896Q66.12813 111.49834 66.62813 112.20146Q67.12813 112.90459 67.84688 112.90459Q68.58125 112.90459 69.06563 112.20146Q69.56563 111.49834 69.56563 109.38896Q69.56563 107.26396 69.06563 106.57646Q68.58125 105.87334 67.83125 105.87334Q67.1125 105.87334 66.675 106.48271Q66.12813 107.26396 66.12813 109.38896Z" fill-rule="nonzero"/><path fill="#000000" d="M51.05 63.666664L52.159374 63.572914Q52.284374 64.385414 52.721874 64.791664Q53.175 65.197914 53.815624 65.197914Q54.565624 65.197914 55.096874 64.61979Q55.628124 64.041664 55.628124 63.104164Q55.628124 62.197914 55.1125 61.68229Q54.6125 61.15104 53.784374 61.15104Q53.284374 61.15104 52.8625 61.385414Q52.45625 61.61979 52.221874 61.979164L51.2375 61.854164L52.065624 57.447914L56.346874 57.447914L56.346874 58.447914L52.909374 58.447914L52.45625 60.760414Q53.221874 60.21354 54.065624 60.21354Q55.190624 60.21354 55.95625 60.99479Q56.7375 61.77604 56.7375 63.010414Q56.7375 64.166664 56.065624 65.02604Q55.2375 66.05729 53.815624 66.05729Q52.64375 66.05729 51.89375 65.40104Q51.159374 64.74479 51.05 63.666664ZM58.05 61.68229Q58.05 60.15104 58.3625 59.229164Q58.675 58.291664 59.284374 57.791664Q59.909374 57.291664 60.846874 57.291664Q61.534374 57.291664 62.05 57.572914Q62.58125 57.854164 62.925 58.385414Q63.26875 58.90104 63.45625 59.65104Q63.64375 60.40104 63.64375 61.68229Q63.64375 63.197914 63.33125 64.11979Q63.034374 65.041664 62.409374 65.55729Q61.8 66.05729 60.846874 66.05729Q59.6125 66.05729 58.89375 65.166664Q58.05 64.104164 58.05 61.68229ZM59.128124 61.68229Q59.128124 63.791664 59.628124 64.49479Q60.128124 65.197914 60.846874 65.197914Q61.58125 65.197914 62.065624 64.49479Q62.565624 63.791664 62.565624 61.68229Q62.565624 59.55729 62.065624 58.86979Q61.58125 58.166664 60.83125 58.166664Q60.1125 58.166664 59.675 58.77604Q59.128124 59.55729 59.128124 61.68229ZM65.05 61.68229Q65.05 60.15104 65.3625 59.229164Q65.675 58.291664 66.28438 57.791664Q66.90938 57.291664 67.84688 57.291664Q68.53438 57.291664 69.05 57.572914Q69.58125 57.854164 69.925 58.385414Q70.26875 58.90104 70.45625 59.65104Q70.64375 60.40104 70.64375 61.68229Q70.64375 63.197914 70.33125 64.11979Q70.03438 65.041664 69.40938 65.55729Q68.8 66.05729 67.84688 66.05729Q66.6125 66.05729 65.89375 65.166664Q65.05 64.104164 65.05 61.68229ZM66.12813 61.68229Q66.12813 63.791664 66.62813 64.49479Q67.12813 65.197914 67.84688 65.197914Q68.58125 65.197914 69.06563 64.49479Q69.56563 63.791664 69.56563 61.68229Q69.56563 59.55729 69.06563 58.86979Q68.58125 58.166664 67.83125 58.166664Q67.1125 58.166664 66.675 58.77604Q66.12813 59.55729 66.12813 61.68229Z" fill-rule="nonzero"/><path fill="#000000" d="M162.85002 316.4344L162.85002 317.45L157.16252 317.45Q157.16252 317.075 157.28752 316.71564Q157.50627 316.1375 157.97502 315.575Q158.4594 315.0125 159.36565 314.27814Q160.7719 313.1219 161.25627 312.45Q161.75627 311.77814 161.75627 311.1844Q161.75627 310.5594 161.30315 310.1375Q160.85002 309.7 160.13127 309.7Q159.36565 309.7 158.91252 310.15314Q158.4594 310.60626 158.44377 311.41876L157.36565 311.3094Q157.47502 310.09064 158.19377 309.46564Q158.92815 308.825 160.16252 308.825Q161.3969 308.825 162.11565 309.5125Q162.8344 310.2 162.8344 311.21564Q162.8344 311.73126 162.61565 312.23126Q162.41252 312.71564 161.91252 313.27814Q161.42815 313.825 160.30315 314.77814Q159.35002 315.575 159.06877 315.8719Q158.80315 316.15314 158.63127 316.4344L162.85002 316.4344ZM164.30315 313.21564Q164.30315 311.6844 164.61565 310.7625Q164.92815 309.825 165.53752 309.325Q166.16252 308.825 167.10002 308.825Q167.78752 308.825 168.30315 309.10626Q168.8344 309.3875 169.17815 309.91876Q169.5219 310.4344 169.7094 311.1844Q169.8969 311.9344 169.8969 313.21564Q169.8969 314.73126 169.5844 315.65314Q169.28752 316.575 168.66252 317.09064Q168.05315 317.59064 167.10002 317.59064Q165.86565 317.59064 165.1469 316.7Q164.30315 315.6375 164.30315 313.21564ZM165.38127 313.21564Q165.38127 315.325 165.88127 316.02814Q166.38127 316.73126 167.10002 316.73126Q167.8344 316.73126 168.31877 316.02814Q168.81877 315.325 168.81877 313.21564Q168.81877 311.09064 168.31877 310.40314Q167.8344 309.7 167.0844 309.7Q166.36565 309.7 165.92815 310.3094Q165.38127 311.09064 165.38127 313.21564Z" fill-rule="nonzero"/><path fill="#000000" d="M251.47095 317.45L251.47095 315.3875L247.7522 315.3875L247.7522 314.41876L251.67407 308.85626L252.53345 308.85626L252.53345 314.41876L253.6897 314.41876L253.6897 315.3875L252.53345 315.3875L252.53345 317.45L251.47095 317.45ZM251.47095 314.41876L251.47095 310.5594L248.78345 314.41876L251.47095 314.41876ZM255.09595 313.21564Q255.09595 311.6844 255.40845 310.7625Q255.72095 309.825 256.33032 309.325Q256.95532 308.825 257.89282 308.825Q258.58032 308.825 259.09595 309.10626Q259.6272 309.3875 259.97095 309.91876Q260.3147 310.4344 260.5022 311.1844Q260.6897 311.9344 260.6897 313.21564Q260.6897 314.73126 260.3772 315.65314Q260.08032 316.575 259.45532 317.09064Q258.84595 317.59064 257.89282 317.59064Q256.65845 317.59064 255.9397 316.7Q255.09595 315.6375 255.09595 313.21564ZM256.17407 313.21564Q256.17407 315.325 256.67407 316.02814Q257.17407 316.73126 257.89282 316.73126Q258.6272 316.73126 259.11157 316.02814Q259.61157 315.325 259.61157 313.21564Q259.61157 311.09064 259.11157 310.40314Q258.6272 309.7 257.8772 309.7Q257.15845 309.7 256.72095 310.3094Q256.17407 311.09064 256.17407 313.21564Z" fill-rule="nonzero"/><path fill="#000000" d="M344.35748 310.96564L343.3106 311.04376Q343.16998 310.41876 342.91998 310.1375Q342.48248 309.6844 341.85748 309.6844Q341.35748 309.6844 340.96686 309.96564Q340.48248 310.34064 340.1856 311.04376Q339.90436 311.73126 339.88873 313.0125Q340.26373 312.4344 340.8106 312.15314Q341.3731 311.8719 341.98248 311.8719Q343.02936 311.8719 343.76373 312.65314Q344.51373 313.4344 344.51373 314.65314Q344.51373 315.46564 344.15436 316.16876Q343.8106 316.85626 343.20123 317.23126Q342.59186 317.59064 341.82623 317.59064Q340.4981 317.59064 339.66998 316.6219Q338.84186 315.65314 338.84186 313.4344Q338.84186 310.9344 339.76373 309.8094Q340.5606 308.825 341.91998 308.825Q342.9356 308.825 343.57623 309.40314Q344.23248 309.96564 344.35748 310.96564ZM340.0606 314.66876Q340.0606 315.21564 340.27936 315.71564Q340.51373 316.2 340.91998 316.46564Q341.34186 316.73126 341.8106 316.73126Q342.46686 316.73126 342.95123 316.2Q343.4356 315.65314 343.4356 314.73126Q343.4356 313.84064 342.95123 313.325Q342.48248 312.8094 341.76373 312.8094Q341.04498 312.8094 340.54498 313.325Q340.0606 313.84064 340.0606 314.66876ZM345.88873 313.21564Q345.88873 311.6844 346.20123 310.7625Q346.51373 309.825 347.1231 309.325Q347.7481 308.825 348.6856 308.825Q349.3731 308.825 349.88873 309.10626Q350.41998 309.3875 350.76373 309.91876Q351.10748 310.4344 351.29498 311.1844Q351.48248 311.9344 351.48248 313.21564Q351.48248 314.73126 351.16998 315.65314Q350.8731 316.575 350.2481 317.09064Q349.63873 317.59064 348.6856 317.59064Q347.45123 317.59064 346.73248 316.7Q345.88873 315.6375 345.88873 313.21564ZM346.96686 313.21564Q346.96686 315.325 347.46686 316.02814Q347.96686 316.73126 348.6856 316.73126Q349.41998 316.73126 349.90436 316.02814Q350.40436 315.325 350.40436 313.21564Q350.40436 311.09064 349.90436 310.40314Q349.41998 309.7 348.66998 309.7Q347.95123 309.7 347.51373 310.3094Q346.96686 311.09064 346.96686 313.21564Z" fill-rule="nonzero"/><path fill="#000000" d="M431.30652 312.79376Q430.65027 312.54376 430.32214 312.10626Q430.00964 311.65314 430.00964 311.04376Q430.00964 310.10626 430.68152 309.46564Q431.36902 308.825 432.4784 308.825Q433.6034 308.825 434.2909 309.48126Q434.9784 310.1375 434.9784 311.075Q434.9784 311.66876 434.6659 312.10626Q434.3534 312.54376 433.71277 312.79376Q434.50964 313.04376 434.9159 313.6219Q435.32214 314.2 435.32214 314.9969Q435.32214 316.09064 434.5409 316.84064Q433.77527 317.59064 432.49402 317.59064Q431.2284 317.59064 430.44714 316.84064Q429.6659 316.09064 429.6659 314.96564Q429.6659 314.1219 430.08777 313.5594Q430.52527 312.9969 431.30652 312.79376ZM431.08777 310.9969Q431.08777 311.60626 431.4784 311.9969Q431.88464 312.3875 432.50964 312.3875Q433.11902 312.3875 433.50964 312.0125Q433.90027 311.6219 433.90027 311.0594Q433.90027 310.48126 433.49402 310.09064Q433.08777 309.6844 432.49402 309.6844Q431.88464 309.6844 431.4784 310.075Q431.08777 310.46564 431.08777 310.9969ZM430.75964 314.96564Q430.75964 315.41876 430.96277 315.84064Q431.18152 316.2625 431.6034 316.4969Q432.02527 316.73126 432.50964 316.73126Q433.25964 316.73126 433.74402 316.2469Q434.24402 315.7625 434.24402 315.0125Q434.24402 314.2469 433.74402 313.7469Q433.24402 313.2469 432.4784 313.2469Q431.7284 313.2469 431.24402 313.7469Q430.75964 314.23126 430.75964 314.96564ZM436.68152 313.21564Q436.68152 311.6844 436.99402 310.7625Q437.30652 309.825 437.9159 309.325Q438.5409 308.825 439.4784 308.825Q440.1659 308.825 440.68152 309.10626Q441.21277 309.3875 441.55652 309.91876Q441.90027 310.4344 442.08777 311.1844Q442.27527 311.9344 442.27527 313.21564Q442.27527 314.73126 441.96277 315.65314Q441.6659 316.575 441.0409 317.09064Q440.43152 317.59064 439.4784 317.59064Q438.24402 317.59064 437.52527 316.7Q436.68152 315.6375 436.68152 313.21564ZM437.75964 313.21564Q437.75964 315.325 438.25964 316.02814Q438.75964 316.73126 439.4784 316.73126Q440.21277 316.73126 440.69714 316.02814Q441.19714 315.325 441.19714 313.21564Q441.19714 311.09064 440.69714 310.40314Q440.21277 309.7 439.46277 309.7Q438.74402 309.7 438.30652 310.3094Q437.75964 311.09064 437.75964 313.21564Z" fill-rule="nonzero"/><path fill="#000000" d="M520.94305 317.45L519.8962 317.45L519.8962 310.73126Q519.50555 311.09064 518.88055 311.46564Q518.2712 311.825 517.7868 311.9969L517.7868 310.98126Q518.6618 310.5594 519.31805 309.98126Q519.9899 309.3875 520.2712 308.825L520.94305 308.825L520.94305 317.45ZM523.9743 313.21564Q523.9743 311.6844 524.2868 310.7625Q524.5993 309.825 525.2087 309.325Q525.8337 308.825 526.7712 308.825Q527.4587 308.825 527.9743 309.10626Q528.50555 309.3875 528.8493 309.91876Q529.19305 310.4344 529.38055 311.1844Q529.56805 311.9344 529.56805 313.21564Q529.56805 314.73126 529.25555 315.65314Q528.9587 316.575 528.3337 317.09064Q527.7243 317.59064 526.7712 317.59064Q525.5368 317.59064 524.81805 316.7Q523.9743 315.6375 523.9743 313.21564ZM525.0524 313.21564Q525.0524 315.325 525.5524 316.02814Q526.0524 316.73126 526.7712 316.73126Q527.50555 316.73126 527.9899 316.02814Q528.4899 315.325 528.4899 313.21564Q528.4899 311.09064 527.9899 310.40314Q527.50555 309.7 526.75555 309.7Q526.0368 309.7 525.5993 310.3094Q525.0524 311.09064 525.0524 313.21564ZM530.9743 313.21564Q530.9743 311.6844 531.2868 310.7625Q531.5993 309.825 532.2087 309.325Q532.8337 308.825 533.7712 308.825Q534.4587 308.825 534.9743 309.10626Q535.50555 309.3875 535.8493 309.91876Q536.19305 310.4344 536.38055 311.1844Q536.56805 311.9344 536.56805 313.21564Q536.56805 314.73126 536.25555 315.65314Q535.9587 316.575 535.3337 317.09064Q534.7243 317.59064 533.7712 317.59064Q532.5368 317.59064 531.81805 316.7Q530.9743 315.6375 530.9743 313.21564ZM532.0524 313.21564Q532.0524 315.325 532.5524 316.02814Q533.0524 316.73126 533.7712 316.73126Q534.50555 316.73126 534.9899 316.02814Q535.4899 315.325 535.4899 313.21564Q535.4899 311.09064 534.9899 310.40314Q534.50555 309.7 533.75555 309.7Q533.0368 309.7 532.5993 310.3094Q532.0524 311.09064 532.0524 313.21564Z" fill-rule="nonzero"/><path fill="#757575" d="M23.7375 37.55L23.7375 24.925L19.01875 24.925L19.01875 23.2375L30.3625 23.2375L30.3625 24.925L25.628124 24.925L25.628124 37.55L23.7375 37.55ZM31.8625 37.55L31.8625 23.2375L33.628124 23.2375L33.628124 28.3625Q34.8625 26.940624 36.7375 26.940624Q37.878124 26.940624 38.721874 27.39375Q39.58125 27.846874 39.940624 28.659374Q40.315624 29.45625 40.315624 30.971874L40.315624 37.55L38.565624 37.55L38.565624 30.971874Q38.565624 29.659374 37.9875 29.065624Q37.409374 28.45625 36.378124 28.45625Q35.596874 28.45625 34.89375 28.8625Q34.20625 29.26875 33.909374 29.971874Q33.628124 30.659374 33.628124 31.878124L33.628124 37.55L31.8625 37.55ZM41.846874 37.55L41.846874 27.175L43.425 27.175L43.425 28.753124Q44.034374 27.64375 44.55 27.3Q45.065624 26.940624 45.675 26.940624Q46.565624 26.940624 47.4875 27.503124L46.878124 29.14375Q46.2375 28.753124 45.596874 28.753124Q45.01875 28.753124 44.55 29.1125Q44.096874 29.45625 43.89375 30.065624Q43.6125 31.003124 43.6125 32.1125L43.6125 37.55L41.846874 37.55ZM55.971874 34.20625L57.784374 34.440624Q57.3625 36.01875 56.190624 36.909374Q55.034374 37.784374 53.221874 37.784374Q50.95625 37.784374 49.6125 36.39375Q48.284374 34.9875 48.284374 32.45625Q48.284374 29.83125 49.628124 28.39375Q50.971874 26.940624 53.128124 26.940624Q55.20625 26.940624 56.51875 28.3625Q57.846874 29.76875 57.846874 32.346874Q57.846874 32.503124 57.83125 32.815624L50.096874 32.815624Q50.190624 34.51875 51.065624 35.425Q51.940624 36.33125 53.2375 36.33125Q54.20625 36.33125 54.878124 35.83125Q55.565624 35.315624 55.971874 34.20625ZM50.190624 31.3625L55.9875 31.3625Q55.878124 30.065624 55.33125 29.409374Q54.4875 28.39375 53.14375 28.39375Q51.940624 28.39375 51.1125 29.20625Q50.284374 30.003124 50.190624 31.3625ZM66.64375 36.26875Q65.65938 37.096874 64.75313 37.440624Q63.846874 37.784374 62.815624 37.784374Q61.1125 37.784374 60.190624 36.95625Q59.26875 36.1125 59.26875 34.815624Q59.26875 34.05 59.6125 33.425Q59.971874 32.8 60.534374 32.425Q61.096874 32.034374 61.8 31.83125Q62.315624 31.70625 63.3625 31.565624Q65.4875 31.315624 66.4875 30.971874Q66.50313 30.6125 66.50313 30.503124Q66.50313 29.440624 66.00313 28.9875Q65.33125 28.39375 64.00313 28.39375Q62.753124 28.39375 62.159374 28.83125Q61.58125 29.26875 61.3 30.378124L59.58125 30.14375Q59.815624 29.034374 60.346874 28.3625Q60.878124 27.675 61.89375 27.315624Q62.909374 26.940624 64.25313 26.940624Q65.58125 26.940624 66.40938 27.253124Q67.2375 27.565624 67.62813 28.05Q68.01875 28.51875 68.175 29.2375Q68.26875 29.690624 68.26875 30.8625L68.26875 33.20625Q68.26875 35.659374 68.37813 36.315624Q68.4875 36.95625 68.83125 37.55L66.9875 37.55Q66.72188 37.003124 66.64375 36.26875ZM66.4875 32.346874Q65.53438 32.7375 63.6125 33.003124Q62.534374 33.159374 62.08125 33.3625Q61.64375 33.55 61.39375 33.925Q61.14375 34.3 61.14375 34.76875Q61.14375 35.471874 61.675 35.940624Q62.20625 36.409374 63.2375 36.409374Q64.25313 36.409374 65.03438 35.971874Q65.83125 35.51875 66.20625 34.753124Q66.4875 34.14375 66.4875 32.9875L66.4875 32.346874ZM77.59688 37.55L77.59688 36.2375Q76.6125 37.784374 74.69063 37.784374Q73.45625 37.784374 72.40938 37.096874Q71.37813 36.409374 70.8 35.190624Q70.2375 33.971874 70.2375 32.378124Q70.2375 30.815624 70.75313 29.55Q71.26875 28.284374 72.3 27.6125Q73.34688 26.940624 74.6125 26.940624Q75.55 26.940624 76.28438 27.346874Q77.01875 27.7375 77.4875 28.3625L77.4875 23.2375L79.22188 23.2375L79.22188 37.55L77.59688 37.55ZM72.03438 32.378124Q72.03438 34.3625 72.87813 35.346874Q73.72188 36.33125 74.8625 36.33125Q76.01875 36.33125 76.81563 35.39375Q77.62813 34.45625 77.62813 32.51875Q77.62813 30.39375 76.8 29.39375Q75.9875 28.39375 74.78438 28.39375Q73.6125 28.39375 72.81563 29.3625Q72.03438 30.315624 72.03438 32.378124ZM87.8625 41.51875L87.8625 27.175L89.47188 27.175L89.47188 28.51875Q90.03438 27.7375 90.7375 27.346874Q91.45625 26.940624 92.47188 26.940624Q93.8 26.940624 94.81563 27.628124Q95.83125 28.315624 96.34688 29.565624Q96.87813 30.8 96.87813 32.284374Q96.87813 33.878124 96.3 35.159374Q95.7375 36.425 94.64375 37.1125Q93.55 37.784374 92.34688 37.784374Q91.47188 37.784374 90.76875 37.409374Q90.08125 37.034374 89.62813 36.471874L89.62813 41.51875L87.8625 41.51875ZM89.45625 32.425Q89.45625 34.425 90.26875 35.378124Q91.08125 36.33125 92.2375 36.33125Q93.40938 36.33125 94.2375 35.346874Q95.08125 34.3625 95.08125 32.26875Q95.08125 30.3 94.25313 29.315624Q93.44063 28.315624 92.31563 28.315624Q91.19063 28.315624 90.31563 29.378124Q89.45625 30.425 89.45625 32.425ZM105.97188 34.20625L107.78438 34.440624Q107.3625 36.01875 106.19063 36.909374Q105.03438 37.784374 103.22188 37.784374Q100.95625 37.784374 99.6125 36.39375Q98.28438 34.9875 98.28438 32.45625Q98.28438 29.83125 99.62813 28.39375Q100.97188 26.940624 103.12813 26.940624Q105.20625 26.940624 106.51875 28.3625Q107.84688 29.76875 107.84688 32.346874Q107.84688 32.503124 107.83125 32.815624L100.09688 32.815624Q100.19063 34.51875 101.06563 35.425Q101.94063 36.33125 103.2375 36.33125Q104.20625 36.33125 104.87813 35.83125Q105.56563 35.315624 105.97188 34.20625ZM100.19063 31.3625L105.9875 31.3625Q105.87813 30.065624 105.33125 29.409374Q104.4875 28.39375 103.14375 28.39375Q101.94063 28.39375 101.1125 29.20625Q100.28438 30.003124 100.19063 31.3625ZM109.84688 37.55L109.84688 27.175L111.425 27.175L111.425 28.753124Q112.03438 27.64375 112.55 27.3Q113.06563 26.940624 113.675 26.940624Q114.56563 26.940624 115.4875 27.503124L114.87813 29.14375Q114.2375 28.753124 113.59688 28.753124Q113.01875 28.753124 112.55 29.1125Q112.09688 29.45625 111.89375 30.065624Q111.6125 31.003124 111.6125 32.1125L111.6125 37.55L109.84688 37.55ZM133.31563 32.534374L135.20625 33.003124Q134.6125 35.346874 133.06563 36.58125Q131.51875 37.8 129.26875 37.8Q126.95625 37.8 125.50313 36.8625Q124.06563 35.909374 123.3 34.128124Q122.55 32.33125 122.55 30.284374Q122.55 28.05 123.39375 26.39375Q124.25313 24.721874 125.83125 23.8625Q127.40938 22.9875 129.3 22.9875Q131.45625 22.9875 132.90938 24.08125Q134.37813 25.175 134.95625 27.159374L133.09688 27.596874Q132.59688 26.034374 131.64375 25.33125Q130.70625 24.6125 129.26875 24.6125Q127.6125 24.6125 126.50313 25.409374Q125.39375 26.190624 124.94063 27.534374Q124.50313 28.8625 124.50313 30.26875Q124.50313 32.096874 125.03438 33.471874Q125.56563 34.83125 126.69063 35.503124Q127.81563 36.175 129.1125 36.175Q130.70625 36.175 131.81563 35.253124Q132.925 34.33125 133.31563 32.534374ZM136.22188 32.3625Q136.22188 29.4875 137.81563 28.096874Q139.15938 26.940624 141.08125 26.940624Q143.22188 26.940624 144.56563 28.346874Q145.925 29.753124 145.925 32.221874Q145.925 34.221874 145.33125 35.378124Q144.7375 36.51875 143.58125 37.159374Q142.44063 37.784374 141.08125 37.784374Q138.89375 37.784374 137.55 36.39375Q136.22188 34.9875 136.22188 32.3625ZM138.01875 32.3625Q138.01875 34.3625 138.87813 35.346874Q139.75313 36.33125 141.08125 36.33125Q142.39375 36.33125 143.25313 35.346874Q144.12813 34.346874 144.12813 32.3Q144.12813 30.378124 143.25313 29.39375Q142.37813 28.39375 141.08125 28.39375Q139.75313 28.39375 138.87813 29.39375Q138.01875 30.378124 138.01875 32.3625ZM147.8625 37.55L147.8625 27.175L149.45625 27.175L149.45625 28.659374Q150.59688 26.940624 152.75313 26.940624Q153.69063 26.940624 154.47188 27.284374Q155.26875 27.6125 155.65938 28.159374Q156.05 28.70625 156.20625 29.45625Q156.3 29.95625 156.3 31.175L156.3 37.55L154.53438 37.55L154.53438 31.2375Q154.53438 30.159374 154.33125 29.628124Q154.12813 29.096874 153.59688 28.784374Q153.08125 28.471874 152.37813 28.471874Q151.25313 28.471874 150.44063 29.190624Q149.62813 29.89375 149.62813 31.878124L149.62813 37.55L147.8625 37.55ZM157.8625 37.55L157.8625 27.175L159.45625 27.175L159.45625 28.659374Q160.59688 26.940624 162.75313 26.940624Q163.69063 26.940624 164.47188 27.284374Q165.26875 27.6125 165.65938 28.159374Q166.05 28.70625 166.20625 29.45625Q166.3 29.95625 166.3 31.175L166.3 37.55L164.53438 37.55L164.53438 31.2375Q164.53438 30.159374 164.33125 29.628124Q164.12813 29.096874 163.59688 28.784374Q163.08125 28.471874 162.37813 28.471874Q161.25313 28.471874 160.44063 29.190624Q159.62813 29.89375 159.62813 31.878124L159.62813 37.55L157.8625 37.55ZM174.97188 34.20625L176.78438 34.440624Q176.3625 36.01875 175.19063 36.909374Q174.03438 37.784374 172.22188 37.784374Q169.95625 37.784374 168.6125 36.39375Q167.28438 34.9875 167.28438 32.45625Q167.28438 29.83125 168.62813 28.39375Q169.97188 26.940624 172.12813 26.940624Q174.20625 26.940624 175.51875 28.3625Q176.84688 29.76875 176.84688 32.346874Q176.84688 32.503124 176.83125 32.815624L169.09688 32.815624Q169.19063 34.51875 170.06563 35.425Q170.94063 36.33125 172.2375 36.33125Q173.20625 36.33125 173.87813 35.83125Q174.56563 35.315624 174.97188 34.20625ZM169.19063 31.3625L174.9875 31.3625Q174.87813 30.065624 174.33125 29.409374Q173.4875 28.39375 172.14375 28.39375Q170.94063 28.39375 170.1125 29.20625Q169.28438 30.003124 169.19063 31.3625ZM185.64375 33.753124L187.3625 33.971874Q187.08125 35.76875 185.90938 36.784374Q184.75313 37.784374 183.05 37.784374Q180.925 37.784374 179.62813 36.39375Q178.33125 35.003124 178.33125 32.409374Q178.33125 30.721874 178.87813 29.471874Q179.44063 28.20625 180.58125 27.58125Q181.72188 26.940624 183.06563 26.940624Q184.75313 26.940624 185.81563 27.8Q186.89375 28.659374 187.20625 30.221874L185.4875 30.4875Q185.25313 29.440624 184.62813 28.925Q184.00313 28.39375 183.12813 28.39375Q181.8 28.39375 180.97188 29.346874Q180.14375 30.3 180.14375 32.346874Q180.14375 34.440624 180.94063 35.39375Q181.7375 36.33125 183.03438 36.33125Q184.06563 36.33125 184.75313 35.70625Q185.45625 35.065624 185.64375 33.753124ZM192.70625 35.971874L192.95625 37.534374Q192.22188 37.690624 191.62813 37.690624Q190.675 37.690624 190.14375 37.39375Q189.62813 37.08125 189.40938 36.596874Q189.19063 36.096874 189.19063 34.51875L189.19063 28.55L187.90938 28.55L187.90938 27.175L189.19063 27.175L189.19063 24.6125L190.94063 23.55L190.94063 27.175L192.70625 27.175L192.70625 28.55L190.94063 28.55L190.94063 34.6125Q190.94063 35.3625 191.03438 35.58125Q191.12813 35.784374 191.33125 35.925Q191.55 36.05 191.94063 36.05Q192.22188 36.05 192.70625 35.971874ZM194.87813 25.253124L194.87813 23.2375L196.64375 23.2375L196.64375 25.253124L194.87813 25.253124ZM194.87813 37.55L194.87813 27.175L196.64375 27.175L196.64375 37.55L194.87813 37.55ZM198.22188 32.3625Q198.22188 29.4875 199.81563 28.096874Q201.15938 26.940624 203.08125 26.940624Q205.22188 26.940624 206.56563 28.346874Q207.925 29.753124 207.925 32.221874Q207.925 34.221874 207.33125 35.378124Q206.7375 36.51875 205.58125 37.159374Q204.44063 37.784374 203.08125 37.784374Q200.89375 37.784374 199.55 36.39375Q198.22188 34.9875 198.22188 32.3625ZM200.01875 32.3625Q200.01875 34.3625 200.87813 35.346874Q201.75313 36.33125 203.08125 36.33125Q204.39375 36.33125 205.25313 35.346874Q206.12813 34.346874 206.12813 32.3Q206.12813 30.378124 205.25313 29.39375Q204.37813 28.39375 203.08125 28.39375Q201.75313 28.39375 200.87813 29.39375Q200.01875 30.378124 200.01875 32.3625ZM209.8625 37.55L209.8625 27.175L211.45625 27.175L211.45625 28.659374Q212.59688 26.940624 214.75313 26.940624Q215.69063 26.940624 216.47188 27.284374Q217.26875 27.6125 217.65938 28.159374Q218.05 28.70625 218.20625 29.45625Q218.3 29.95625 218.3 31.175L218.3 37.55L216.53438 37.55L216.53438 31.2375Q216.53438 30.159374 216.33125 29.628124Q216.12813 29.096874 215.59688 28.784374Q215.08125 28.471874 214.37813 28.471874Q213.25313 28.471874 212.44063 29.190624Q211.62813 29.89375 211.62813 31.878124L211.62813 37.55L209.8625 37.55Z" fill-rule="nonzero"/></svg>